G04 #@! TF.GenerationSoftware,KiCad,Pcbnew,(6.0.11-0)*
G04 #@! TF.CreationDate,2024-10-21T12:17:15+07:00*
G04 #@! TF.ProjectId,1,312e6b69-6361-4645-9f70-636258585858,rev?*
G04 #@! TF.SameCoordinates,Original*
G04 #@! TF.FileFunction,Legend,Top*
G04 #@! TF.FilePolarity,Positive*
%FSLAX46Y46*%
G04 Gerber Fmt 4.6, Leading zero omitted, Abs format (unit mm)*
G04 Created by KiCad (PCBNEW (6.0.11-0)) date 2024-10-21 12:17:15*
%MOMM*%
%LPD*%
G01*
G04 APERTURE LIST*
%ADD10C,0.150000*%
%ADD11C,0.120000*%
%ADD12C,1.800000*%
G04 APERTURE END LIST*
D10*
X131901904Y-66832380D02*
X131901904Y-65832380D01*
X132140000Y-65832380D01*
X132282857Y-65880000D01*
X132378095Y-65975238D01*
X132425714Y-66070476D01*
X132473333Y-66260952D01*
X132473333Y-66403809D01*
X132425714Y-66594285D01*
X132378095Y-66689523D01*
X132282857Y-66784761D01*
X132140000Y-66832380D01*
X131901904Y-66832380D01*
X132854285Y-65927619D02*
X132901904Y-65880000D01*
X132997142Y-65832380D01*
X133235238Y-65832380D01*
X133330476Y-65880000D01*
X133378095Y-65927619D01*
X133425714Y-66022857D01*
X133425714Y-66118095D01*
X133378095Y-66260952D01*
X132806666Y-66832380D01*
X133425714Y-66832380D01*
X111182857Y-43372380D02*
X111516190Y-44372380D01*
X111849523Y-43372380D01*
X112182857Y-44372380D02*
X112182857Y-43372380D01*
X112754285Y-44372380D01*
X112754285Y-43372380D01*
X130681904Y-43142380D02*
X131253333Y-43142380D01*
X130967619Y-44142380D02*
X130967619Y-43142380D01*
X131491428Y-43142380D02*
X132158095Y-44142380D01*
X132158095Y-43142380D02*
X131491428Y-44142380D01*
X132729523Y-43142380D02*
X132824761Y-43142380D01*
X132920000Y-43190000D01*
X132967619Y-43237619D01*
X133015238Y-43332857D01*
X133062857Y-43523333D01*
X133062857Y-43761428D01*
X133015238Y-43951904D01*
X132967619Y-44047142D01*
X132920000Y-44094761D01*
X132824761Y-44142380D01*
X132729523Y-44142380D01*
X132634285Y-44094761D01*
X132586666Y-44047142D01*
X132539047Y-43951904D01*
X132491428Y-43761428D01*
X132491428Y-43523333D01*
X132539047Y-43332857D01*
X132586666Y-43237619D01*
X132634285Y-43190000D01*
X132729523Y-43142380D01*
X111165714Y-49332380D02*
X111165714Y-48332380D01*
X111403809Y-48332380D01*
X111546666Y-48380000D01*
X111641904Y-48475238D01*
X111689523Y-48570476D01*
X111737142Y-48760952D01*
X111737142Y-48903809D01*
X111689523Y-49094285D01*
X111641904Y-49189523D01*
X111546666Y-49284761D01*
X111403809Y-49332380D01*
X111165714Y-49332380D01*
X112070476Y-48332380D02*
X112689523Y-48332380D01*
X112356190Y-48713333D01*
X112499047Y-48713333D01*
X112594285Y-48760952D01*
X112641904Y-48808571D01*
X112689523Y-48903809D01*
X112689523Y-49141904D01*
X112641904Y-49237142D01*
X112594285Y-49284761D01*
X112499047Y-49332380D01*
X112213333Y-49332380D01*
X112118095Y-49284761D01*
X112070476Y-49237142D01*
X113594285Y-48332380D02*
X113118095Y-48332380D01*
X113070476Y-48808571D01*
X113118095Y-48760952D01*
X113213333Y-48713333D01*
X113451428Y-48713333D01*
X113546666Y-48760952D01*
X113594285Y-48808571D01*
X113641904Y-48903809D01*
X113641904Y-49141904D01*
X113594285Y-49237142D01*
X113546666Y-49284761D01*
X113451428Y-49332380D01*
X113213333Y-49332380D01*
X113118095Y-49284761D01*
X113070476Y-49237142D01*
X111331904Y-38468571D02*
X111665238Y-38468571D01*
X111808095Y-38992380D02*
X111331904Y-38992380D01*
X111331904Y-37992380D01*
X111808095Y-37992380D01*
X112236666Y-38992380D02*
X112236666Y-37992380D01*
X112808095Y-38992380D01*
X112808095Y-37992380D01*
X110825714Y-69302380D02*
X110825714Y-68302380D01*
X111063809Y-68302380D01*
X111206666Y-68350000D01*
X111301904Y-68445238D01*
X111349523Y-68540476D01*
X111397142Y-68730952D01*
X111397142Y-68873809D01*
X111349523Y-69064285D01*
X111301904Y-69159523D01*
X111206666Y-69254761D01*
X111063809Y-69302380D01*
X110825714Y-69302380D01*
X112349523Y-69302380D02*
X111778095Y-69302380D01*
X112063809Y-69302380D02*
X112063809Y-68302380D01*
X111968571Y-68445238D01*
X111873333Y-68540476D01*
X111778095Y-68588095D01*
X112682857Y-68302380D02*
X113301904Y-68302380D01*
X112968571Y-68683333D01*
X113111428Y-68683333D01*
X113206666Y-68730952D01*
X113254285Y-68778571D01*
X113301904Y-68873809D01*
X113301904Y-69111904D01*
X113254285Y-69207142D01*
X113206666Y-69254761D01*
X113111428Y-69302380D01*
X112825714Y-69302380D01*
X112730476Y-69254761D01*
X112682857Y-69207142D01*
X130445714Y-38902380D02*
X130445714Y-37902380D01*
X130683809Y-37902380D01*
X130826666Y-37950000D01*
X130921904Y-38045238D01*
X130969523Y-38140476D01*
X131017142Y-38330952D01*
X131017142Y-38473809D01*
X130969523Y-38664285D01*
X130921904Y-38759523D01*
X130826666Y-38854761D01*
X130683809Y-38902380D01*
X130445714Y-38902380D01*
X131398095Y-37997619D02*
X131445714Y-37950000D01*
X131540952Y-37902380D01*
X131779047Y-37902380D01*
X131874285Y-37950000D01*
X131921904Y-37997619D01*
X131969523Y-38092857D01*
X131969523Y-38188095D01*
X131921904Y-38330952D01*
X131350476Y-38902380D01*
X131969523Y-38902380D01*
X132302857Y-37902380D02*
X132921904Y-37902380D01*
X132588571Y-38283333D01*
X132731428Y-38283333D01*
X132826666Y-38330952D01*
X132874285Y-38378571D01*
X132921904Y-38473809D01*
X132921904Y-38711904D01*
X132874285Y-38807142D01*
X132826666Y-38854761D01*
X132731428Y-38902380D01*
X132445714Y-38902380D01*
X132350476Y-38854761D01*
X132302857Y-38807142D01*
X130575714Y-41542380D02*
X130575714Y-40542380D01*
X130813809Y-40542380D01*
X130956666Y-40590000D01*
X131051904Y-40685238D01*
X131099523Y-40780476D01*
X131147142Y-40970952D01*
X131147142Y-41113809D01*
X131099523Y-41304285D01*
X131051904Y-41399523D01*
X130956666Y-41494761D01*
X130813809Y-41542380D01*
X130575714Y-41542380D01*
X131528095Y-40637619D02*
X131575714Y-40590000D01*
X131670952Y-40542380D01*
X131909047Y-40542380D01*
X132004285Y-40590000D01*
X132051904Y-40637619D01*
X132099523Y-40732857D01*
X132099523Y-40828095D01*
X132051904Y-40970952D01*
X131480476Y-41542380D01*
X132099523Y-41542380D01*
X132480476Y-40637619D02*
X132528095Y-40590000D01*
X132623333Y-40542380D01*
X132861428Y-40542380D01*
X132956666Y-40590000D01*
X133004285Y-40637619D01*
X133051904Y-40732857D01*
X133051904Y-40828095D01*
X133004285Y-40970952D01*
X132432857Y-41542380D01*
X133051904Y-41542380D01*
X131608095Y-70910000D02*
X131512857Y-70862380D01*
X131370000Y-70862380D01*
X131227142Y-70910000D01*
X131131904Y-71005238D01*
X131084285Y-71100476D01*
X131036666Y-71290952D01*
X131036666Y-71433809D01*
X131084285Y-71624285D01*
X131131904Y-71719523D01*
X131227142Y-71814761D01*
X131370000Y-71862380D01*
X131465238Y-71862380D01*
X131608095Y-71814761D01*
X131655714Y-71767142D01*
X131655714Y-71433809D01*
X131465238Y-71433809D01*
X132084285Y-71862380D02*
X132084285Y-70862380D01*
X132655714Y-71862380D01*
X132655714Y-70862380D01*
X133131904Y-71862380D02*
X133131904Y-70862380D01*
X133370000Y-70862380D01*
X133512857Y-70910000D01*
X133608095Y-71005238D01*
X133655714Y-71100476D01*
X133703333Y-71290952D01*
X133703333Y-71433809D01*
X133655714Y-71624285D01*
X133608095Y-71719523D01*
X133512857Y-71814761D01*
X133370000Y-71862380D01*
X133131904Y-71862380D01*
X131591904Y-64282380D02*
X131591904Y-63282380D01*
X131830000Y-63282380D01*
X131972857Y-63330000D01*
X132068095Y-63425238D01*
X132115714Y-63520476D01*
X132163333Y-63710952D01*
X132163333Y-63853809D01*
X132115714Y-64044285D01*
X132068095Y-64139523D01*
X131972857Y-64234761D01*
X131830000Y-64282380D01*
X131591904Y-64282380D01*
X133020476Y-63615714D02*
X133020476Y-64282380D01*
X132782380Y-63234761D02*
X132544285Y-63949047D01*
X133163333Y-63949047D01*
X131277142Y-46742380D02*
X130943809Y-46266190D01*
X130705714Y-46742380D02*
X130705714Y-45742380D01*
X131086666Y-45742380D01*
X131181904Y-45790000D01*
X131229523Y-45837619D01*
X131277142Y-45932857D01*
X131277142Y-46075714D01*
X131229523Y-46170952D01*
X131181904Y-46218571D01*
X131086666Y-46266190D01*
X130705714Y-46266190D01*
X131610476Y-45742380D02*
X132277142Y-46742380D01*
X132277142Y-45742380D02*
X131610476Y-46742380D01*
X132848571Y-45742380D02*
X132943809Y-45742380D01*
X133039047Y-45790000D01*
X133086666Y-45837619D01*
X133134285Y-45932857D01*
X133181904Y-46123333D01*
X133181904Y-46361428D01*
X133134285Y-46551904D01*
X133086666Y-46647142D01*
X133039047Y-46694761D01*
X132943809Y-46742380D01*
X132848571Y-46742380D01*
X132753333Y-46694761D01*
X132705714Y-46647142D01*
X132658095Y-46551904D01*
X132610476Y-46361428D01*
X132610476Y-46123333D01*
X132658095Y-45932857D01*
X132705714Y-45837619D01*
X132753333Y-45790000D01*
X132848571Y-45742380D01*
X111225714Y-46812380D02*
X111225714Y-45812380D01*
X111463809Y-45812380D01*
X111606666Y-45860000D01*
X111701904Y-45955238D01*
X111749523Y-46050476D01*
X111797142Y-46240952D01*
X111797142Y-46383809D01*
X111749523Y-46574285D01*
X111701904Y-46669523D01*
X111606666Y-46764761D01*
X111463809Y-46812380D01*
X111225714Y-46812380D01*
X112130476Y-45812380D02*
X112749523Y-45812380D01*
X112416190Y-46193333D01*
X112559047Y-46193333D01*
X112654285Y-46240952D01*
X112701904Y-46288571D01*
X112749523Y-46383809D01*
X112749523Y-46621904D01*
X112701904Y-46717142D01*
X112654285Y-46764761D01*
X112559047Y-46812380D01*
X112273333Y-46812380D01*
X112178095Y-46764761D01*
X112130476Y-46717142D01*
X113606666Y-46145714D02*
X113606666Y-46812380D01*
X113368571Y-45764761D02*
X113130476Y-46479047D01*
X113749523Y-46479047D01*
X130765714Y-54162380D02*
X130765714Y-53162380D01*
X131003809Y-53162380D01*
X131146666Y-53210000D01*
X131241904Y-53305238D01*
X131289523Y-53400476D01*
X131337142Y-53590952D01*
X131337142Y-53733809D01*
X131289523Y-53924285D01*
X131241904Y-54019523D01*
X131146666Y-54114761D01*
X131003809Y-54162380D01*
X130765714Y-54162380D01*
X132289523Y-54162380D02*
X131718095Y-54162380D01*
X132003809Y-54162380D02*
X132003809Y-53162380D01*
X131908571Y-53305238D01*
X131813333Y-53400476D01*
X131718095Y-53448095D01*
X132860952Y-53590952D02*
X132765714Y-53543333D01*
X132718095Y-53495714D01*
X132670476Y-53400476D01*
X132670476Y-53352857D01*
X132718095Y-53257619D01*
X132765714Y-53210000D01*
X132860952Y-53162380D01*
X133051428Y-53162380D01*
X133146666Y-53210000D01*
X133194285Y-53257619D01*
X133241904Y-53352857D01*
X133241904Y-53400476D01*
X133194285Y-53495714D01*
X133146666Y-53543333D01*
X133051428Y-53590952D01*
X132860952Y-53590952D01*
X132765714Y-53638571D01*
X132718095Y-53686190D01*
X132670476Y-53781428D01*
X132670476Y-53971904D01*
X132718095Y-54067142D01*
X132765714Y-54114761D01*
X132860952Y-54162380D01*
X133051428Y-54162380D01*
X133146666Y-54114761D01*
X133194285Y-54067142D01*
X133241904Y-53971904D01*
X133241904Y-53781428D01*
X133194285Y-53686190D01*
X133146666Y-53638571D01*
X133051428Y-53590952D01*
X124120000Y-87281904D02*
X124072380Y-87377142D01*
X124072380Y-87520000D01*
X124120000Y-87662857D01*
X124215238Y-87758095D01*
X124310476Y-87805714D01*
X124500952Y-87853333D01*
X124643809Y-87853333D01*
X124834285Y-87805714D01*
X124929523Y-87758095D01*
X125024761Y-87662857D01*
X125072380Y-87520000D01*
X125072380Y-87424761D01*
X125024761Y-87281904D01*
X124977142Y-87234285D01*
X124643809Y-87234285D01*
X124643809Y-87424761D01*
X125072380Y-86805714D02*
X124072380Y-86805714D01*
X125072380Y-86234285D01*
X124072380Y-86234285D01*
X125072380Y-85758095D02*
X124072380Y-85758095D01*
X124072380Y-85520000D01*
X124120000Y-85377142D01*
X124215238Y-85281904D01*
X124310476Y-85234285D01*
X124500952Y-85186666D01*
X124643809Y-85186666D01*
X124834285Y-85234285D01*
X124929523Y-85281904D01*
X125024761Y-85377142D01*
X125072380Y-85520000D01*
X125072380Y-85758095D01*
X130975714Y-61942380D02*
X130975714Y-60942380D01*
X131213809Y-60942380D01*
X131356666Y-60990000D01*
X131451904Y-61085238D01*
X131499523Y-61180476D01*
X131547142Y-61370952D01*
X131547142Y-61513809D01*
X131499523Y-61704285D01*
X131451904Y-61799523D01*
X131356666Y-61894761D01*
X131213809Y-61942380D01*
X130975714Y-61942380D01*
X132499523Y-61942380D02*
X131928095Y-61942380D01*
X132213809Y-61942380D02*
X132213809Y-60942380D01*
X132118571Y-61085238D01*
X132023333Y-61180476D01*
X131928095Y-61228095D01*
X133356666Y-60942380D02*
X133166190Y-60942380D01*
X133070952Y-60990000D01*
X133023333Y-61037619D01*
X132928095Y-61180476D01*
X132880476Y-61370952D01*
X132880476Y-61751904D01*
X132928095Y-61847142D01*
X132975714Y-61894761D01*
X133070952Y-61942380D01*
X133261428Y-61942380D01*
X133356666Y-61894761D01*
X133404285Y-61847142D01*
X133451904Y-61751904D01*
X133451904Y-61513809D01*
X133404285Y-61418571D01*
X133356666Y-61370952D01*
X133261428Y-61323333D01*
X133070952Y-61323333D01*
X132975714Y-61370952D01*
X132928095Y-61418571D01*
X132880476Y-61513809D01*
X110825714Y-56802380D02*
X110825714Y-55802380D01*
X111063809Y-55802380D01*
X111206666Y-55850000D01*
X111301904Y-55945238D01*
X111349523Y-56040476D01*
X111397142Y-56230952D01*
X111397142Y-56373809D01*
X111349523Y-56564285D01*
X111301904Y-56659523D01*
X111206666Y-56754761D01*
X111063809Y-56802380D01*
X110825714Y-56802380D01*
X111778095Y-55897619D02*
X111825714Y-55850000D01*
X111920952Y-55802380D01*
X112159047Y-55802380D01*
X112254285Y-55850000D01*
X112301904Y-55897619D01*
X112349523Y-55992857D01*
X112349523Y-56088095D01*
X112301904Y-56230952D01*
X111730476Y-56802380D01*
X112349523Y-56802380D01*
X113254285Y-55802380D02*
X112778095Y-55802380D01*
X112730476Y-56278571D01*
X112778095Y-56230952D01*
X112873333Y-56183333D01*
X113111428Y-56183333D01*
X113206666Y-56230952D01*
X113254285Y-56278571D01*
X113301904Y-56373809D01*
X113301904Y-56611904D01*
X113254285Y-56707142D01*
X113206666Y-56754761D01*
X113111428Y-56802380D01*
X112873333Y-56802380D01*
X112778095Y-56754761D01*
X112730476Y-56707142D01*
X130835714Y-59182380D02*
X130835714Y-58182380D01*
X131073809Y-58182380D01*
X131216666Y-58230000D01*
X131311904Y-58325238D01*
X131359523Y-58420476D01*
X131407142Y-58610952D01*
X131407142Y-58753809D01*
X131359523Y-58944285D01*
X131311904Y-59039523D01*
X131216666Y-59134761D01*
X131073809Y-59182380D01*
X130835714Y-59182380D01*
X132359523Y-59182380D02*
X131788095Y-59182380D01*
X132073809Y-59182380D02*
X132073809Y-58182380D01*
X131978571Y-58325238D01*
X131883333Y-58420476D01*
X131788095Y-58468095D01*
X132692857Y-58182380D02*
X133359523Y-58182380D01*
X132930952Y-59182380D01*
X111095714Y-64482380D02*
X111095714Y-63482380D01*
X111333809Y-63482380D01*
X111476666Y-63530000D01*
X111571904Y-63625238D01*
X111619523Y-63720476D01*
X111667142Y-63910952D01*
X111667142Y-64053809D01*
X111619523Y-64244285D01*
X111571904Y-64339523D01*
X111476666Y-64434761D01*
X111333809Y-64482380D01*
X111095714Y-64482380D01*
X112619523Y-64482380D02*
X112048095Y-64482380D01*
X112333809Y-64482380D02*
X112333809Y-63482380D01*
X112238571Y-63625238D01*
X112143333Y-63720476D01*
X112048095Y-63768095D01*
X113476666Y-63815714D02*
X113476666Y-64482380D01*
X113238571Y-63434761D02*
X113000476Y-64149047D01*
X113619523Y-64149047D01*
X111266666Y-40722380D02*
X111600000Y-41722380D01*
X111933333Y-40722380D01*
X112266666Y-41722380D02*
X112266666Y-40722380D01*
X112647619Y-40722380D01*
X112742857Y-40770000D01*
X112790476Y-40817619D01*
X112838095Y-40912857D01*
X112838095Y-41055714D01*
X112790476Y-41150952D01*
X112742857Y-41198571D01*
X112647619Y-41246190D01*
X112266666Y-41246190D01*
X111025714Y-67062380D02*
X111025714Y-66062380D01*
X111263809Y-66062380D01*
X111406666Y-66110000D01*
X111501904Y-66205238D01*
X111549523Y-66300476D01*
X111597142Y-66490952D01*
X111597142Y-66633809D01*
X111549523Y-66824285D01*
X111501904Y-66919523D01*
X111406666Y-67014761D01*
X111263809Y-67062380D01*
X111025714Y-67062380D01*
X112549523Y-67062380D02*
X111978095Y-67062380D01*
X112263809Y-67062380D02*
X112263809Y-66062380D01*
X112168571Y-66205238D01*
X112073333Y-66300476D01*
X111978095Y-66348095D01*
X112930476Y-66157619D02*
X112978095Y-66110000D01*
X113073333Y-66062380D01*
X113311428Y-66062380D01*
X113406666Y-66110000D01*
X113454285Y-66157619D01*
X113501904Y-66252857D01*
X113501904Y-66348095D01*
X113454285Y-66490952D01*
X112882857Y-67062380D01*
X113501904Y-67062380D01*
X130975714Y-51682380D02*
X130975714Y-50682380D01*
X131213809Y-50682380D01*
X131356666Y-50730000D01*
X131451904Y-50825238D01*
X131499523Y-50920476D01*
X131547142Y-51110952D01*
X131547142Y-51253809D01*
X131499523Y-51444285D01*
X131451904Y-51539523D01*
X131356666Y-51634761D01*
X131213809Y-51682380D01*
X130975714Y-51682380D01*
X132499523Y-51682380D02*
X131928095Y-51682380D01*
X132213809Y-51682380D02*
X132213809Y-50682380D01*
X132118571Y-50825238D01*
X132023333Y-50920476D01*
X131928095Y-50968095D01*
X132975714Y-51682380D02*
X133166190Y-51682380D01*
X133261428Y-51634761D01*
X133309047Y-51587142D01*
X133404285Y-51444285D01*
X133451904Y-51253809D01*
X133451904Y-50872857D01*
X133404285Y-50777619D01*
X133356666Y-50730000D01*
X133261428Y-50682380D01*
X133070952Y-50682380D01*
X132975714Y-50730000D01*
X132928095Y-50777619D01*
X132880476Y-50872857D01*
X132880476Y-51110952D01*
X132928095Y-51206190D01*
X132975714Y-51253809D01*
X133070952Y-51301428D01*
X133261428Y-51301428D01*
X133356666Y-51253809D01*
X133404285Y-51206190D01*
X133451904Y-51110952D01*
X121532380Y-87953333D02*
X122532380Y-87620000D01*
X121532380Y-87286666D01*
X122437142Y-86381904D02*
X122484761Y-86429523D01*
X122532380Y-86572380D01*
X122532380Y-86667619D01*
X122484761Y-86810476D01*
X122389523Y-86905714D01*
X122294285Y-86953333D01*
X122103809Y-87000952D01*
X121960952Y-87000952D01*
X121770476Y-86953333D01*
X121675238Y-86905714D01*
X121580000Y-86810476D01*
X121532380Y-86667619D01*
X121532380Y-86572380D01*
X121580000Y-86429523D01*
X121627619Y-86381904D01*
X122437142Y-85381904D02*
X122484761Y-85429523D01*
X122532380Y-85572380D01*
X122532380Y-85667619D01*
X122484761Y-85810476D01*
X122389523Y-85905714D01*
X122294285Y-85953333D01*
X122103809Y-86000952D01*
X121960952Y-86000952D01*
X121770476Y-85953333D01*
X121675238Y-85905714D01*
X121580000Y-85810476D01*
X121532380Y-85667619D01*
X121532380Y-85572380D01*
X121580000Y-85429523D01*
X121627619Y-85381904D01*
X118692380Y-36840476D02*
X118692380Y-37316666D01*
X119168571Y-37364285D01*
X119120952Y-37316666D01*
X119073333Y-37221428D01*
X119073333Y-36983333D01*
X119120952Y-36888095D01*
X119168571Y-36840476D01*
X119263809Y-36792857D01*
X119501904Y-36792857D01*
X119597142Y-36840476D01*
X119644761Y-36888095D01*
X119692380Y-36983333D01*
X119692380Y-37221428D01*
X119644761Y-37316666D01*
X119597142Y-37364285D01*
X118692380Y-36507142D02*
X119692380Y-36173809D01*
X118692380Y-35840476D01*
X110885714Y-62102380D02*
X110885714Y-61102380D01*
X111123809Y-61102380D01*
X111266666Y-61150000D01*
X111361904Y-61245238D01*
X111409523Y-61340476D01*
X111457142Y-61530952D01*
X111457142Y-61673809D01*
X111409523Y-61864285D01*
X111361904Y-61959523D01*
X111266666Y-62054761D01*
X111123809Y-62102380D01*
X110885714Y-62102380D01*
X111838095Y-61197619D02*
X111885714Y-61150000D01*
X111980952Y-61102380D01*
X112219047Y-61102380D01*
X112314285Y-61150000D01*
X112361904Y-61197619D01*
X112409523Y-61292857D01*
X112409523Y-61388095D01*
X112361904Y-61530952D01*
X111790476Y-62102380D01*
X112409523Y-62102380D01*
X112742857Y-61102380D02*
X113409523Y-61102380D01*
X112980952Y-62102380D01*
X131451904Y-56782380D02*
X131451904Y-55782380D01*
X131690000Y-55782380D01*
X131832857Y-55830000D01*
X131928095Y-55925238D01*
X131975714Y-56020476D01*
X132023333Y-56210952D01*
X132023333Y-56353809D01*
X131975714Y-56544285D01*
X131928095Y-56639523D01*
X131832857Y-56734761D01*
X131690000Y-56782380D01*
X131451904Y-56782380D01*
X132928095Y-55782380D02*
X132451904Y-55782380D01*
X132404285Y-56258571D01*
X132451904Y-56210952D01*
X132547142Y-56163333D01*
X132785238Y-56163333D01*
X132880476Y-56210952D01*
X132928095Y-56258571D01*
X132975714Y-56353809D01*
X132975714Y-56591904D01*
X132928095Y-56687142D01*
X132880476Y-56734761D01*
X132785238Y-56782380D01*
X132547142Y-56782380D01*
X132451904Y-56734761D01*
X132404285Y-56687142D01*
X131055714Y-69322380D02*
X131055714Y-68322380D01*
X131293809Y-68322380D01*
X131436666Y-68370000D01*
X131531904Y-68465238D01*
X131579523Y-68560476D01*
X131627142Y-68750952D01*
X131627142Y-68893809D01*
X131579523Y-69084285D01*
X131531904Y-69179523D01*
X131436666Y-69274761D01*
X131293809Y-69322380D01*
X131055714Y-69322380D01*
X132579523Y-69322380D02*
X132008095Y-69322380D01*
X132293809Y-69322380D02*
X132293809Y-68322380D01*
X132198571Y-68465238D01*
X132103333Y-68560476D01*
X132008095Y-68608095D01*
X133484285Y-68322380D02*
X133008095Y-68322380D01*
X132960476Y-68798571D01*
X133008095Y-68750952D01*
X133103333Y-68703333D01*
X133341428Y-68703333D01*
X133436666Y-68750952D01*
X133484285Y-68798571D01*
X133531904Y-68893809D01*
X133531904Y-69131904D01*
X133484285Y-69227142D01*
X133436666Y-69274761D01*
X133341428Y-69322380D01*
X133103333Y-69322380D01*
X133008095Y-69274761D01*
X132960476Y-69227142D01*
X110825714Y-54292380D02*
X110825714Y-53292380D01*
X111063809Y-53292380D01*
X111206666Y-53340000D01*
X111301904Y-53435238D01*
X111349523Y-53530476D01*
X111397142Y-53720952D01*
X111397142Y-53863809D01*
X111349523Y-54054285D01*
X111301904Y-54149523D01*
X111206666Y-54244761D01*
X111063809Y-54292380D01*
X110825714Y-54292380D01*
X111730476Y-53292380D02*
X112349523Y-53292380D01*
X112016190Y-53673333D01*
X112159047Y-53673333D01*
X112254285Y-53720952D01*
X112301904Y-53768571D01*
X112349523Y-53863809D01*
X112349523Y-54101904D01*
X112301904Y-54197142D01*
X112254285Y-54244761D01*
X112159047Y-54292380D01*
X111873333Y-54292380D01*
X111778095Y-54244761D01*
X111730476Y-54197142D01*
X112682857Y-53292380D02*
X113301904Y-53292380D01*
X112968571Y-53673333D01*
X113111428Y-53673333D01*
X113206666Y-53720952D01*
X113254285Y-53768571D01*
X113301904Y-53863809D01*
X113301904Y-54101904D01*
X113254285Y-54197142D01*
X113206666Y-54244761D01*
X113111428Y-54292380D01*
X112825714Y-54292380D01*
X112730476Y-54244761D01*
X112682857Y-54197142D01*
X119656666Y-87926666D02*
X119656666Y-87450476D01*
X119942380Y-88021904D02*
X118942380Y-87688571D01*
X119942380Y-87355238D01*
X118942380Y-86831428D02*
X118942380Y-86640952D01*
X118990000Y-86545714D01*
X119085238Y-86450476D01*
X119275714Y-86402857D01*
X119609047Y-86402857D01*
X119799523Y-86450476D01*
X119894761Y-86545714D01*
X119942380Y-86640952D01*
X119942380Y-86831428D01*
X119894761Y-86926666D01*
X119799523Y-87021904D01*
X119609047Y-87069523D01*
X119275714Y-87069523D01*
X119085238Y-87021904D01*
X118990000Y-86926666D01*
X118942380Y-86831428D01*
X118942380Y-85974285D02*
X119751904Y-85974285D01*
X119847142Y-85926666D01*
X119894761Y-85879047D01*
X119942380Y-85783809D01*
X119942380Y-85593333D01*
X119894761Y-85498095D01*
X119847142Y-85450476D01*
X119751904Y-85402857D01*
X118942380Y-85402857D01*
X118942380Y-85069523D02*
X118942380Y-84498095D01*
X119942380Y-84783809D02*
X118942380Y-84783809D01*
X110955714Y-51912380D02*
X110955714Y-50912380D01*
X111193809Y-50912380D01*
X111336666Y-50960000D01*
X111431904Y-51055238D01*
X111479523Y-51150476D01*
X111527142Y-51340952D01*
X111527142Y-51483809D01*
X111479523Y-51674285D01*
X111431904Y-51769523D01*
X111336666Y-51864761D01*
X111193809Y-51912380D01*
X110955714Y-51912380D01*
X111860476Y-50912380D02*
X112479523Y-50912380D01*
X112146190Y-51293333D01*
X112289047Y-51293333D01*
X112384285Y-51340952D01*
X112431904Y-51388571D01*
X112479523Y-51483809D01*
X112479523Y-51721904D01*
X112431904Y-51817142D01*
X112384285Y-51864761D01*
X112289047Y-51912380D01*
X112003333Y-51912380D01*
X111908095Y-51864761D01*
X111860476Y-51817142D01*
X112860476Y-51007619D02*
X112908095Y-50960000D01*
X113003333Y-50912380D01*
X113241428Y-50912380D01*
X113336666Y-50960000D01*
X113384285Y-51007619D01*
X113431904Y-51102857D01*
X113431904Y-51198095D01*
X113384285Y-51340952D01*
X112812857Y-51912380D01*
X113431904Y-51912380D01*
X110785714Y-59452380D02*
X110785714Y-58452380D01*
X111023809Y-58452380D01*
X111166666Y-58500000D01*
X111261904Y-58595238D01*
X111309523Y-58690476D01*
X111357142Y-58880952D01*
X111357142Y-59023809D01*
X111309523Y-59214285D01*
X111261904Y-59309523D01*
X111166666Y-59404761D01*
X111023809Y-59452380D01*
X110785714Y-59452380D01*
X111738095Y-58547619D02*
X111785714Y-58500000D01*
X111880952Y-58452380D01*
X112119047Y-58452380D01*
X112214285Y-58500000D01*
X112261904Y-58547619D01*
X112309523Y-58642857D01*
X112309523Y-58738095D01*
X112261904Y-58880952D01*
X111690476Y-59452380D01*
X112309523Y-59452380D01*
X113166666Y-58452380D02*
X112976190Y-58452380D01*
X112880952Y-58500000D01*
X112833333Y-58547619D01*
X112738095Y-58690476D01*
X112690476Y-58880952D01*
X112690476Y-59261904D01*
X112738095Y-59357142D01*
X112785714Y-59404761D01*
X112880952Y-59452380D01*
X113071428Y-59452380D01*
X113166666Y-59404761D01*
X113214285Y-59357142D01*
X113261904Y-59261904D01*
X113261904Y-59023809D01*
X113214285Y-58928571D01*
X113166666Y-58880952D01*
X113071428Y-58833333D01*
X112880952Y-58833333D01*
X112785714Y-58880952D01*
X112738095Y-58928571D01*
X112690476Y-59023809D01*
X130921904Y-73602380D02*
X131540952Y-73602380D01*
X131207619Y-73983333D01*
X131350476Y-73983333D01*
X131445714Y-74030952D01*
X131493333Y-74078571D01*
X131540952Y-74173809D01*
X131540952Y-74411904D01*
X131493333Y-74507142D01*
X131445714Y-74554761D01*
X131350476Y-74602380D01*
X131064761Y-74602380D01*
X130969523Y-74554761D01*
X130921904Y-74507142D01*
X131826666Y-73602380D02*
X132160000Y-74602380D01*
X132493333Y-73602380D01*
X132731428Y-73602380D02*
X133350476Y-73602380D01*
X133017142Y-73983333D01*
X133160000Y-73983333D01*
X133255238Y-74030952D01*
X133302857Y-74078571D01*
X133350476Y-74173809D01*
X133350476Y-74411904D01*
X133302857Y-74507142D01*
X133255238Y-74554761D01*
X133160000Y-74602380D01*
X132874285Y-74602380D01*
X132779047Y-74554761D01*
X132731428Y-74507142D01*
X130835714Y-49342380D02*
X130835714Y-48342380D01*
X131073809Y-48342380D01*
X131216666Y-48390000D01*
X131311904Y-48485238D01*
X131359523Y-48580476D01*
X131407142Y-48770952D01*
X131407142Y-48913809D01*
X131359523Y-49104285D01*
X131311904Y-49199523D01*
X131216666Y-49294761D01*
X131073809Y-49342380D01*
X130835714Y-49342380D01*
X131788095Y-48437619D02*
X131835714Y-48390000D01*
X131930952Y-48342380D01*
X132169047Y-48342380D01*
X132264285Y-48390000D01*
X132311904Y-48437619D01*
X132359523Y-48532857D01*
X132359523Y-48628095D01*
X132311904Y-48770952D01*
X131740476Y-49342380D01*
X132359523Y-49342380D01*
X133311904Y-49342380D02*
X132740476Y-49342380D01*
X133026190Y-49342380D02*
X133026190Y-48342380D01*
X132930952Y-48485238D01*
X132835714Y-48580476D01*
X132740476Y-48628095D01*
D11*
X105200000Y-28410000D02*
X139370000Y-28410000D01*
X139370000Y-28410000D02*
X139370000Y-94000000D01*
X139370000Y-94000000D02*
X105200000Y-94000000D01*
X105200000Y-94000000D02*
X105200000Y-28410000D01*
%LPC*%
D12*
X119190000Y-33300000D03*
X124500000Y-89340000D03*
X109700000Y-38510000D03*
X124590000Y-33300000D03*
X119420000Y-89340000D03*
X121960000Y-89340000D03*
X109700000Y-41050000D03*
X109700000Y-43590000D03*
X109700000Y-46130000D03*
X109700000Y-48670000D03*
X109700000Y-51210000D03*
X109700000Y-53750000D03*
X109700000Y-56290000D03*
X109700000Y-58830000D03*
X109700000Y-61370000D03*
X109700000Y-63910000D03*
X109700000Y-66450000D03*
X109700000Y-68990000D03*
X109700000Y-71530000D03*
X109700000Y-74070000D03*
X134950000Y-38510000D03*
X134950000Y-41050000D03*
X134950000Y-43590000D03*
X134950000Y-46130000D03*
X134950000Y-48670000D03*
X134950000Y-51210000D03*
X134950000Y-53750000D03*
X134950000Y-56290000D03*
X134950000Y-58830000D03*
X134950000Y-61370000D03*
X134950000Y-63910000D03*
X134950000Y-66450000D03*
X134950000Y-68990000D03*
X134950000Y-71530000D03*
X134950000Y-74070000D03*
M02*
