G04 #@! TF.GenerationSoftware,KiCad,Pcbnew,(6.0.11-0)*
G04 #@! TF.CreationDate,2024-10-21T12:17:15+07:00*
G04 #@! TF.ProjectId,1,312e6b69-6361-4645-9f70-636258585858,rev?*
G04 #@! TF.SameCoordinates,Original*
G04 #@! TF.FileFunction,Copper,L1,Top*
G04 #@! TF.FilePolarity,Positive*
%FSLAX46Y46*%
G04 Gerber Fmt 4.6, Leading zero omitted, Abs format (unit mm)*
G04 Created by KiCad (PCBNEW (6.0.11-0)) date 2024-10-21 12:17:15*
%MOMM*%
%LPD*%
G01*
G04 APERTURE LIST*
G04 #@! TA.AperFunction,ComponentPad*
%ADD10C,1.800000*%
G04 #@! TD*
G04 #@! TA.AperFunction,Conductor*
%ADD11C,0.800000*%
G04 #@! TD*
G04 #@! TA.AperFunction,Conductor*
%ADD12C,0.400000*%
G04 #@! TD*
G04 APERTURE END LIST*
D10*
X119190000Y-33300000D03*
X124500000Y-89340000D03*
X109700000Y-38510000D03*
X124590000Y-33300000D03*
X119420000Y-89340000D03*
X121960000Y-89340000D03*
X109700000Y-41050000D03*
X109700000Y-43590000D03*
X109700000Y-46130000D03*
X109700000Y-48670000D03*
X109700000Y-51210000D03*
X109700000Y-53750000D03*
X109700000Y-56290000D03*
X109700000Y-58830000D03*
X109700000Y-61370000D03*
X109700000Y-63910000D03*
X109700000Y-66450000D03*
X109700000Y-68990000D03*
X109700000Y-71530000D03*
X109700000Y-74070000D03*
X134950000Y-38510000D03*
X134950000Y-41050000D03*
X134950000Y-43590000D03*
X134950000Y-46130000D03*
X134950000Y-48670000D03*
X134950000Y-51210000D03*
X134950000Y-53750000D03*
X134950000Y-56290000D03*
X134950000Y-58830000D03*
X134950000Y-61370000D03*
X134950000Y-63910000D03*
X134950000Y-66450000D03*
X134950000Y-68990000D03*
X134950000Y-71530000D03*
X134950000Y-74070000D03*
D11*
X119190000Y-69810000D02*
X121960000Y-72580000D01*
X119190000Y-33300000D02*
X119190000Y-69810000D01*
X119190000Y-69810000D02*
X114930000Y-74070000D01*
X121960000Y-72580000D02*
X121960000Y-89340000D01*
X114930000Y-74070000D02*
X109700000Y-74070000D01*
D12*
X107000000Y-82000000D02*
X114340000Y-89340000D01*
X109700000Y-61370000D02*
X107000000Y-64070000D01*
X107000000Y-64070000D02*
X107000000Y-82000000D01*
X114340000Y-89340000D02*
X119420000Y-89340000D01*
G04 #@! TA.AperFunction,Conductor*
G36*
X119033710Y-88535779D02*
G01*
X119662025Y-89140000D01*
X119861231Y-89331567D01*
X119864819Y-89339771D01*
X119861231Y-89348433D01*
X119033710Y-90144220D01*
X119025372Y-90147485D01*
X119020276Y-90146205D01*
X118826513Y-90047157D01*
X118826134Y-90046955D01*
X118654104Y-89950905D01*
X118653921Y-89950800D01*
X118579249Y-89907324D01*
X118502105Y-89862408D01*
X118361721Y-89782628D01*
X118361582Y-89782557D01*
X118224301Y-89712591D01*
X118224293Y-89712587D01*
X118224102Y-89712490D01*
X118080462Y-89652952D01*
X117922018Y-89604975D01*
X117921731Y-89604919D01*
X117740241Y-89569567D01*
X117740235Y-89569566D01*
X117739983Y-89569517D01*
X117739731Y-89569491D01*
X117739723Y-89569490D01*
X117587545Y-89553892D01*
X117525572Y-89547539D01*
X117525360Y-89547533D01*
X117525349Y-89547532D01*
X117304457Y-89541016D01*
X117281355Y-89540335D01*
X117273187Y-89536666D01*
X117270000Y-89528640D01*
X117270000Y-89151360D01*
X117273427Y-89143087D01*
X117281355Y-89139665D01*
X117525349Y-89132467D01*
X117525360Y-89132466D01*
X117525572Y-89132460D01*
X117587545Y-89126107D01*
X117739723Y-89110509D01*
X117739731Y-89110508D01*
X117739983Y-89110482D01*
X117740235Y-89110433D01*
X117740241Y-89110432D01*
X117921731Y-89075080D01*
X117921733Y-89075080D01*
X117922018Y-89075024D01*
X118080462Y-89027047D01*
X118224102Y-88967509D01*
X118224293Y-88967412D01*
X118224301Y-88967408D01*
X118361582Y-88897442D01*
X118361587Y-88897439D01*
X118361721Y-88897371D01*
X118502105Y-88817591D01*
X118579249Y-88772675D01*
X118653921Y-88729199D01*
X118654104Y-88729094D01*
X118826134Y-88633044D01*
X118826513Y-88632842D01*
X119020276Y-88533795D01*
X119029202Y-88533081D01*
X119033710Y-88535779D01*
G37*
G04 #@! TD.AperFunction*
G04 #@! TA.AperFunction,Conductor*
G36*
X110014372Y-61055305D02*
G01*
X110017960Y-61063967D01*
X109995520Y-62211818D01*
X109991932Y-62220022D01*
X109987423Y-62222721D01*
X109780371Y-62289696D01*
X109779960Y-62289821D01*
X109590372Y-62343554D01*
X109590262Y-62343584D01*
X109520449Y-62362017D01*
X109420394Y-62388434D01*
X109420351Y-62388446D01*
X109420347Y-62388447D01*
X109264668Y-62431301D01*
X109264538Y-62431343D01*
X109264532Y-62431345D01*
X109227225Y-62443463D01*
X109117762Y-62479017D01*
X108974094Y-62538485D01*
X108828132Y-62616598D01*
X108674341Y-62720244D01*
X108507189Y-62856314D01*
X108507049Y-62856446D01*
X108507041Y-62856453D01*
X108329408Y-63023907D01*
X108321037Y-63027089D01*
X108313109Y-63023667D01*
X108046333Y-62756891D01*
X108042906Y-62748618D01*
X108046092Y-62740592D01*
X108213544Y-62562960D01*
X108213549Y-62562954D01*
X108213685Y-62562810D01*
X108349755Y-62395658D01*
X108453401Y-62241867D01*
X108531514Y-62095905D01*
X108590982Y-61952237D01*
X108638698Y-61805331D01*
X108681552Y-61649652D01*
X108726434Y-61479666D01*
X108780178Y-61290039D01*
X108780303Y-61289628D01*
X108847279Y-61082577D01*
X108853086Y-61075760D01*
X108858182Y-61074480D01*
X108941029Y-61072860D01*
X110006033Y-61052040D01*
X110014372Y-61055305D01*
G37*
G04 #@! TD.AperFunction*
G04 #@! TA.AperFunction,Conductor*
G36*
X122356702Y-87193427D02*
G01*
X122360128Y-87201571D01*
X122362770Y-87440527D01*
X122371674Y-87655402D01*
X122387596Y-87841765D01*
X122411423Y-88006756D01*
X122444040Y-88157514D01*
X122486334Y-88301179D01*
X122539191Y-88444891D01*
X122603497Y-88595788D01*
X122680138Y-88761011D01*
X122680156Y-88761049D01*
X122766474Y-88940375D01*
X122766975Y-88949315D01*
X122764365Y-88953559D01*
X121968433Y-89781231D01*
X121960229Y-89784819D01*
X121951567Y-89781231D01*
X121155635Y-88953559D01*
X121152370Y-88945220D01*
X121153526Y-88940375D01*
X121239843Y-88761049D01*
X121239861Y-88761011D01*
X121316502Y-88595788D01*
X121380808Y-88444891D01*
X121433665Y-88301179D01*
X121475959Y-88157514D01*
X121508576Y-88006756D01*
X121532403Y-87841765D01*
X121548325Y-87655402D01*
X121557229Y-87440527D01*
X121559872Y-87201571D01*
X121563390Y-87193336D01*
X121571571Y-87190000D01*
X122348429Y-87190000D01*
X122356702Y-87193427D01*
G37*
G04 #@! TD.AperFunction*
G04 #@! TA.AperFunction,Conductor*
G36*
X110099625Y-73263526D02*
G01*
X110278950Y-73349843D01*
X110278988Y-73349861D01*
X110279030Y-73349880D01*
X110279056Y-73349893D01*
X110370665Y-73392387D01*
X110444211Y-73426502D01*
X110444322Y-73426549D01*
X110444337Y-73426556D01*
X110517620Y-73457786D01*
X110595108Y-73490808D01*
X110738820Y-73543665D01*
X110739008Y-73543720D01*
X110739013Y-73543722D01*
X110882287Y-73585901D01*
X110882294Y-73585903D01*
X110882485Y-73585959D01*
X110882687Y-73586003D01*
X110882696Y-73586005D01*
X111033043Y-73618533D01*
X111033050Y-73618534D01*
X111033243Y-73618576D01*
X111198234Y-73642403D01*
X111198387Y-73642416D01*
X111198395Y-73642417D01*
X111325128Y-73653244D01*
X111384597Y-73658325D01*
X111384696Y-73658329D01*
X111384710Y-73658330D01*
X111599394Y-73667226D01*
X111599407Y-73667226D01*
X111599472Y-73667229D01*
X111599558Y-73667230D01*
X111599560Y-73667230D01*
X111744316Y-73668831D01*
X111838429Y-73669872D01*
X111846664Y-73673390D01*
X111850000Y-73681571D01*
X111850000Y-74458429D01*
X111846573Y-74466702D01*
X111838429Y-74470128D01*
X111670835Y-74471981D01*
X111599560Y-74472769D01*
X111599558Y-74472769D01*
X111599472Y-74472770D01*
X111599407Y-74472773D01*
X111599394Y-74472773D01*
X111384710Y-74481669D01*
X111384696Y-74481670D01*
X111384597Y-74481674D01*
X111325128Y-74486755D01*
X111198395Y-74497582D01*
X111198387Y-74497583D01*
X111198234Y-74497596D01*
X111033243Y-74521423D01*
X111033050Y-74521465D01*
X111033043Y-74521466D01*
X110882696Y-74553994D01*
X110882687Y-74553996D01*
X110882485Y-74554040D01*
X110882294Y-74554096D01*
X110882287Y-74554098D01*
X110739013Y-74596277D01*
X110739008Y-74596279D01*
X110738820Y-74596334D01*
X110595108Y-74649191D01*
X110517620Y-74682213D01*
X110444337Y-74713443D01*
X110444322Y-74713450D01*
X110444211Y-74713497D01*
X110278988Y-74790138D01*
X110278922Y-74790170D01*
X110278922Y-74790169D01*
X110099624Y-74876474D01*
X110090684Y-74876975D01*
X110086440Y-74874365D01*
X109998855Y-74790138D01*
X109258769Y-74078433D01*
X109255181Y-74070229D01*
X109258769Y-74061567D01*
X110086441Y-73265635D01*
X110094780Y-73262370D01*
X110099625Y-73263526D01*
G37*
G04 #@! TD.AperFunction*
G04 #@! TA.AperFunction,Conductor*
G36*
X119198433Y-32858769D02*
G01*
X119994365Y-33686440D01*
X119997630Y-33694779D01*
X119996474Y-33699624D01*
X119910169Y-33878922D01*
X119910170Y-33878922D01*
X119910138Y-33878988D01*
X119833497Y-34044211D01*
X119769191Y-34195108D01*
X119716334Y-34338820D01*
X119674040Y-34482485D01*
X119641423Y-34633243D01*
X119617596Y-34798234D01*
X119601674Y-34984597D01*
X119592770Y-35199472D01*
X119592769Y-35199558D01*
X119592769Y-35199560D01*
X119590128Y-35438429D01*
X119586610Y-35446664D01*
X119578429Y-35450000D01*
X118801571Y-35450000D01*
X118793298Y-35446573D01*
X118789872Y-35438429D01*
X118787230Y-35199560D01*
X118787230Y-35199558D01*
X118787229Y-35199472D01*
X118778325Y-34984597D01*
X118762403Y-34798234D01*
X118738576Y-34633243D01*
X118705959Y-34482485D01*
X118663665Y-34338820D01*
X118610808Y-34195108D01*
X118546502Y-34044211D01*
X118469861Y-33878988D01*
X118469830Y-33878922D01*
X118383526Y-33699625D01*
X118383025Y-33690685D01*
X118385635Y-33686441D01*
X119181567Y-32858769D01*
X119189771Y-32855181D01*
X119198433Y-32858769D01*
G37*
G04 #@! TD.AperFunction*
G04 #@! TA.AperFunction,Conductor*
G36*
X140433621Y-27528502D02*
G01*
X140480114Y-27582158D01*
X140491500Y-27634500D01*
X140491500Y-94365500D01*
X140471498Y-94433621D01*
X140417842Y-94480114D01*
X140365500Y-94491500D01*
X104634500Y-94491500D01*
X104566379Y-94471498D01*
X104519886Y-94417842D01*
X104508500Y-94365500D01*
X104508500Y-82037352D01*
X106287275Y-82037352D01*
X106288580Y-82044829D01*
X106288580Y-82044830D01*
X106298261Y-82100299D01*
X106299223Y-82106821D01*
X106306898Y-82170242D01*
X106309581Y-82177343D01*
X106310222Y-82179952D01*
X106314685Y-82196262D01*
X106315450Y-82198798D01*
X106316757Y-82206284D01*
X106319811Y-82213241D01*
X106342442Y-82264795D01*
X106344933Y-82270899D01*
X106367513Y-82330656D01*
X106371817Y-82336919D01*
X106373054Y-82339285D01*
X106381299Y-82354097D01*
X106382632Y-82356351D01*
X106385685Y-82363305D01*
X106390307Y-82369328D01*
X106424579Y-82413991D01*
X106428459Y-82419332D01*
X106460339Y-82465720D01*
X106460344Y-82465725D01*
X106464643Y-82471981D01*
X106470313Y-82477032D01*
X106470314Y-82477034D01*
X106511170Y-82513435D01*
X106516446Y-82518416D01*
X113818550Y-89820520D01*
X113824404Y-89826785D01*
X113862439Y-89870385D01*
X113868657Y-89874755D01*
X113914697Y-89907112D01*
X113919993Y-89911045D01*
X113970282Y-89950477D01*
X113977204Y-89953602D01*
X113979452Y-89954964D01*
X113994185Y-89963368D01*
X113996524Y-89964622D01*
X114002739Y-89968990D01*
X114009815Y-89971749D01*
X114009819Y-89971751D01*
X114062274Y-89992202D01*
X114068352Y-89994757D01*
X114126574Y-90021045D01*
X114134045Y-90022429D01*
X114136599Y-90023230D01*
X114152878Y-90027867D01*
X114155433Y-90028523D01*
X114162509Y-90031282D01*
X114190962Y-90035028D01*
X114225851Y-90039621D01*
X114232367Y-90040653D01*
X114274706Y-90048500D01*
X114295187Y-90052296D01*
X114302767Y-90051859D01*
X114302768Y-90051859D01*
X114357398Y-90048709D01*
X114364651Y-90048500D01*
X117225954Y-90048500D01*
X117247556Y-90050366D01*
X117261769Y-90052839D01*
X117261776Y-90052840D01*
X117266214Y-90053612D01*
X117270715Y-90053745D01*
X117270717Y-90053745D01*
X117487209Y-90060131D01*
X117496342Y-90060733D01*
X117658899Y-90077396D01*
X117670127Y-90079061D01*
X117791557Y-90102714D01*
X117791913Y-90102783D01*
X117804338Y-90105866D01*
X117901347Y-90135240D01*
X117913079Y-90139436D01*
X118004314Y-90177253D01*
X118013281Y-90181389D01*
X118115607Y-90233540D01*
X118120624Y-90236241D01*
X118161820Y-90259653D01*
X118245539Y-90307231D01*
X118246681Y-90307888D01*
X118324312Y-90353086D01*
X118395735Y-90394670D01*
X118403775Y-90399255D01*
X118403996Y-90399378D01*
X118404036Y-90399401D01*
X118499998Y-90452979D01*
X118575805Y-90495305D01*
X118584611Y-90500109D01*
X118584990Y-90500311D01*
X118592788Y-90504382D01*
X118786551Y-90603430D01*
X118789905Y-90604690D01*
X118793148Y-90606122D01*
X118792992Y-90606476D01*
X118800135Y-90609869D01*
X118800196Y-90609742D01*
X118804861Y-90611977D01*
X118809322Y-90614584D01*
X119025694Y-90697209D01*
X119030760Y-90698240D01*
X119030761Y-90698240D01*
X119083846Y-90709040D01*
X119252656Y-90743385D01*
X119383324Y-90748176D01*
X119478949Y-90751683D01*
X119478953Y-90751683D01*
X119484113Y-90751872D01*
X119489233Y-90751216D01*
X119489235Y-90751216D01*
X119562291Y-90741857D01*
X119713847Y-90722442D01*
X119718795Y-90720957D01*
X119718802Y-90720956D01*
X119930747Y-90657369D01*
X119935690Y-90655886D01*
X120017161Y-90615974D01*
X120139049Y-90556262D01*
X120139052Y-90556260D01*
X120143684Y-90553991D01*
X120332243Y-90419494D01*
X120496303Y-90256005D01*
X120499319Y-90251808D01*
X120499326Y-90251800D01*
X120586960Y-90129844D01*
X120642954Y-90086196D01*
X120713658Y-90079750D01*
X120776622Y-90112553D01*
X120796715Y-90137536D01*
X120816800Y-90170313D01*
X120816806Y-90170321D01*
X120819501Y-90174719D01*
X120971147Y-90349784D01*
X121149349Y-90497730D01*
X121349322Y-90614584D01*
X121565694Y-90697209D01*
X121570760Y-90698240D01*
X121570761Y-90698240D01*
X121623846Y-90709040D01*
X121792656Y-90743385D01*
X121923324Y-90748176D01*
X122018949Y-90751683D01*
X122018953Y-90751683D01*
X122024113Y-90751872D01*
X122029233Y-90751216D01*
X122029235Y-90751216D01*
X122102291Y-90741857D01*
X122253847Y-90722442D01*
X122258795Y-90720957D01*
X122258802Y-90720956D01*
X122470747Y-90657369D01*
X122475690Y-90655886D01*
X122557161Y-90615974D01*
X122679049Y-90556262D01*
X122679052Y-90556260D01*
X122683684Y-90553991D01*
X122757406Y-90501406D01*
X123703423Y-90501406D01*
X123708704Y-90508461D01*
X123885080Y-90611527D01*
X123894363Y-90615974D01*
X124101003Y-90694883D01*
X124110901Y-90697759D01*
X124327653Y-90741857D01*
X124337883Y-90743076D01*
X124558914Y-90751182D01*
X124569223Y-90750714D01*
X124788623Y-90722608D01*
X124798688Y-90720468D01*
X125010557Y-90656905D01*
X125020152Y-90653144D01*
X125218778Y-90555838D01*
X125227636Y-90550559D01*
X125285097Y-90509572D01*
X125293497Y-90498874D01*
X125286510Y-90485721D01*
X124512811Y-89712021D01*
X124498868Y-89704408D01*
X124497034Y-89704539D01*
X124490420Y-89708790D01*
X123710180Y-90489031D01*
X123703423Y-90501406D01*
X122757406Y-90501406D01*
X122872243Y-90419494D01*
X123036303Y-90256005D01*
X123127275Y-90129404D01*
X123183270Y-90085756D01*
X123253973Y-90079310D01*
X123316938Y-90112113D01*
X123322142Y-90118584D01*
X123340553Y-90135242D01*
X123349331Y-90131458D01*
X124127979Y-89352811D01*
X124134356Y-89341132D01*
X124864408Y-89341132D01*
X124864539Y-89342966D01*
X124868790Y-89349580D01*
X125646307Y-90127096D01*
X125658313Y-90133652D01*
X125670052Y-90124684D01*
X125708010Y-90071859D01*
X125713321Y-90063020D01*
X125811318Y-89864737D01*
X125815117Y-89855142D01*
X125879415Y-89643517D01*
X125881594Y-89633436D01*
X125910702Y-89412338D01*
X125911221Y-89405663D01*
X125912744Y-89343364D01*
X125912550Y-89336646D01*
X125894279Y-89114400D01*
X125892596Y-89104238D01*
X125838710Y-88889708D01*
X125835389Y-88879953D01*
X125747193Y-88677118D01*
X125742315Y-88668020D01*
X125669224Y-88555038D01*
X125658538Y-88545835D01*
X125648973Y-88550238D01*
X124872021Y-89327189D01*
X124864408Y-89341132D01*
X124134356Y-89341132D01*
X124135592Y-89338868D01*
X124135461Y-89337034D01*
X124131210Y-89330420D01*
X123353862Y-88553073D01*
X123342330Y-88546776D01*
X123324054Y-88561095D01*
X123258095Y-88587361D01*
X123188406Y-88573798D01*
X123137113Y-88524711D01*
X123132046Y-88514931D01*
X123073564Y-88388856D01*
X123071951Y-88385232D01*
X123017901Y-88258399D01*
X123015560Y-88252497D01*
X123011834Y-88242366D01*
X122989157Y-88180711D01*
X123705508Y-88180711D01*
X123712251Y-88193040D01*
X124487189Y-88967979D01*
X124501132Y-88975592D01*
X124502966Y-88975461D01*
X124509580Y-88971210D01*
X125288994Y-88191795D01*
X125296011Y-88178944D01*
X125288237Y-88168274D01*
X125285902Y-88166430D01*
X125277320Y-88160729D01*
X125083678Y-88053833D01*
X125074272Y-88049606D01*
X124865772Y-87975772D01*
X124855809Y-87973140D01*
X124638047Y-87934350D01*
X124627796Y-87933381D01*
X124406616Y-87930679D01*
X124396332Y-87931399D01*
X124177693Y-87964855D01*
X124167666Y-87967244D01*
X123957426Y-88035961D01*
X123947916Y-88039958D01*
X123751725Y-88142089D01*
X123743007Y-88147578D01*
X123713961Y-88169386D01*
X123705508Y-88180711D01*
X122989157Y-88180711D01*
X122975561Y-88143744D01*
X122972952Y-88135854D01*
X122956102Y-88078614D01*
X122943255Y-88034976D01*
X122940977Y-88026044D01*
X122918022Y-87919941D01*
X122916467Y-87911309D01*
X122912091Y-87881008D01*
X122898481Y-87786772D01*
X122897649Y-87779527D01*
X122884502Y-87625632D01*
X122884154Y-87620146D01*
X122876232Y-87428957D01*
X122876132Y-87425134D01*
X122873615Y-87197489D01*
X122873614Y-87197475D01*
X122873597Y-87195894D01*
X122873321Y-87191435D01*
X122870754Y-87149969D01*
X122870753Y-87149964D01*
X122870376Y-87143871D01*
X122869736Y-87141419D01*
X122868500Y-87125863D01*
X122868500Y-74035469D01*
X133537095Y-74035469D01*
X133537392Y-74040622D01*
X133537392Y-74040625D01*
X133543067Y-74139041D01*
X133550427Y-74266697D01*
X133551564Y-74271743D01*
X133551565Y-74271749D01*
X133583741Y-74414523D01*
X133601346Y-74492642D01*
X133603288Y-74497424D01*
X133603289Y-74497428D01*
X133677933Y-74681253D01*
X133688484Y-74707237D01*
X133809501Y-74904719D01*
X133961147Y-75079784D01*
X134139349Y-75227730D01*
X134339322Y-75344584D01*
X134555694Y-75427209D01*
X134560760Y-75428240D01*
X134560761Y-75428240D01*
X134613846Y-75439040D01*
X134782656Y-75473385D01*
X134913324Y-75478176D01*
X135008949Y-75481683D01*
X135008953Y-75481683D01*
X135014113Y-75481872D01*
X135019233Y-75481216D01*
X135019235Y-75481216D01*
X135092270Y-75471860D01*
X135243847Y-75452442D01*
X135248795Y-75450957D01*
X135248802Y-75450956D01*
X135460747Y-75387369D01*
X135465690Y-75385886D01*
X135470324Y-75383616D01*
X135669049Y-75286262D01*
X135669052Y-75286260D01*
X135673684Y-75283991D01*
X135862243Y-75149494D01*
X136026303Y-74986005D01*
X136029742Y-74981220D01*
X136070472Y-74924537D01*
X136161458Y-74797917D01*
X136179670Y-74761069D01*
X136261784Y-74594922D01*
X136261785Y-74594920D01*
X136264078Y-74590280D01*
X136331408Y-74368671D01*
X136361640Y-74139041D01*
X136363327Y-74070000D01*
X136357032Y-73993434D01*
X136344773Y-73844318D01*
X136344772Y-73844312D01*
X136344349Y-73839167D01*
X136287925Y-73614533D01*
X136285866Y-73609797D01*
X136197630Y-73406868D01*
X136197628Y-73406865D01*
X136195570Y-73402131D01*
X136069764Y-73207665D01*
X135913887Y-73036358D01*
X135909836Y-73033159D01*
X135909832Y-73033155D01*
X135736669Y-72896400D01*
X135695606Y-72838483D01*
X135692374Y-72767560D01*
X135727999Y-72706148D01*
X135733487Y-72701623D01*
X135743497Y-72688874D01*
X135736510Y-72675721D01*
X134962811Y-71902021D01*
X134948868Y-71894408D01*
X134947034Y-71894539D01*
X134940420Y-71898790D01*
X134160180Y-72679031D01*
X134153423Y-72691406D01*
X134172730Y-72717197D01*
X134172040Y-72717713D01*
X134196627Y-72743737D01*
X134209743Y-72813511D01*
X134183055Y-72879300D01*
X134160023Y-72901719D01*
X134053472Y-72981720D01*
X134011655Y-73013117D01*
X134008083Y-73016855D01*
X133874776Y-73156353D01*
X133851639Y-73180564D01*
X133848725Y-73184836D01*
X133848724Y-73184837D01*
X133833152Y-73207665D01*
X133721119Y-73371899D01*
X133623602Y-73581981D01*
X133561707Y-73805169D01*
X133537095Y-74035469D01*
X122868500Y-74035469D01*
X122868500Y-72661417D01*
X122870051Y-72641707D01*
X122871220Y-72634327D01*
X122871220Y-72634326D01*
X122872252Y-72627810D01*
X122868673Y-72559520D01*
X122868500Y-72552926D01*
X122868500Y-72532390D01*
X122868156Y-72529116D01*
X122866353Y-72511958D01*
X122865836Y-72505384D01*
X122862603Y-72443696D01*
X122862603Y-72443694D01*
X122862257Y-72437097D01*
X122858615Y-72423504D01*
X122855014Y-72404075D01*
X122854232Y-72396639D01*
X122853542Y-72390072D01*
X122832407Y-72325025D01*
X122830535Y-72318706D01*
X122814538Y-72259003D01*
X122814537Y-72259000D01*
X122812830Y-72252630D01*
X122806438Y-72240085D01*
X122798874Y-72221823D01*
X122796568Y-72214726D01*
X122794527Y-72208444D01*
X122773152Y-72171421D01*
X122760336Y-72149223D01*
X122757188Y-72143426D01*
X122729126Y-72088351D01*
X122729124Y-72088348D01*
X122726129Y-72082470D01*
X122717273Y-72071533D01*
X122706073Y-72055237D01*
X122702343Y-72048776D01*
X122702340Y-72048772D01*
X122699040Y-72043056D01*
X122694623Y-72038150D01*
X122694619Y-72038145D01*
X122653278Y-71992231D01*
X122648994Y-71987216D01*
X122638148Y-71973823D01*
X122636072Y-71971259D01*
X122621557Y-71956744D01*
X122617016Y-71951959D01*
X122575673Y-71906043D01*
X122571253Y-71901134D01*
X122559865Y-71892860D01*
X122544832Y-71880019D01*
X122165451Y-71500638D01*
X133537893Y-71500638D01*
X133550627Y-71721468D01*
X133552061Y-71731670D01*
X133600685Y-71947439D01*
X133603773Y-71957292D01*
X133686986Y-72162220D01*
X133691634Y-72171421D01*
X133780097Y-72315781D01*
X133790553Y-72325242D01*
X133799331Y-72321458D01*
X134577979Y-71542811D01*
X134584356Y-71531132D01*
X135314408Y-71531132D01*
X135314539Y-71532966D01*
X135318790Y-71539580D01*
X136096307Y-72317096D01*
X136108313Y-72323652D01*
X136120052Y-72314684D01*
X136158010Y-72261859D01*
X136163321Y-72253020D01*
X136261318Y-72054737D01*
X136265117Y-72045142D01*
X136329415Y-71833517D01*
X136331594Y-71823436D01*
X136360702Y-71602338D01*
X136361221Y-71595663D01*
X136362744Y-71533364D01*
X136362550Y-71526646D01*
X136344279Y-71304400D01*
X136342596Y-71294238D01*
X136288710Y-71079708D01*
X136285389Y-71069953D01*
X136197193Y-70867118D01*
X136192315Y-70858020D01*
X136119224Y-70745038D01*
X136108538Y-70735835D01*
X136098973Y-70740238D01*
X135322021Y-71517189D01*
X135314408Y-71531132D01*
X134584356Y-71531132D01*
X134585592Y-71528868D01*
X134585461Y-71527034D01*
X134581210Y-71520420D01*
X133803862Y-70743073D01*
X133792330Y-70736776D01*
X133780048Y-70746399D01*
X133724467Y-70827877D01*
X133719379Y-70836833D01*
X133626252Y-71037459D01*
X133622689Y-71047146D01*
X133563581Y-71260280D01*
X133561650Y-71270400D01*
X133538145Y-71490349D01*
X133537893Y-71500638D01*
X122165451Y-71500638D01*
X120135405Y-69470592D01*
X120101379Y-69408280D01*
X120098500Y-69381497D01*
X120098500Y-68955469D01*
X133537095Y-68955469D01*
X133537392Y-68960622D01*
X133537392Y-68960625D01*
X133543067Y-69059041D01*
X133550427Y-69186697D01*
X133551564Y-69191743D01*
X133551565Y-69191749D01*
X133583741Y-69334523D01*
X133601346Y-69412642D01*
X133603288Y-69417424D01*
X133603289Y-69417428D01*
X133686540Y-69622450D01*
X133688484Y-69627237D01*
X133809501Y-69824719D01*
X133961147Y-69999784D01*
X134139349Y-70147730D01*
X134143814Y-70150339D01*
X134147979Y-70152773D01*
X134196700Y-70204414D01*
X134209767Y-70274198D01*
X134183033Y-70339968D01*
X134166323Y-70356221D01*
X134155508Y-70370711D01*
X134162251Y-70383040D01*
X134937189Y-71157979D01*
X134951132Y-71165592D01*
X134952966Y-71165461D01*
X134959580Y-71161210D01*
X135738994Y-70381795D01*
X135746011Y-70368944D01*
X135738237Y-70358275D01*
X135736655Y-70357025D01*
X135695592Y-70299109D01*
X135692359Y-70228186D01*
X135727983Y-70166774D01*
X135741578Y-70155563D01*
X135757193Y-70144425D01*
X135862243Y-70069494D01*
X136026303Y-69906005D01*
X136161458Y-69717917D01*
X136208641Y-69622450D01*
X136261784Y-69514922D01*
X136261785Y-69514920D01*
X136264078Y-69510280D01*
X136331408Y-69288671D01*
X136361640Y-69059041D01*
X136363327Y-68990000D01*
X136357032Y-68913434D01*
X136344773Y-68764318D01*
X136344772Y-68764312D01*
X136344349Y-68759167D01*
X136287925Y-68534533D01*
X136285866Y-68529797D01*
X136197630Y-68326868D01*
X136197628Y-68326865D01*
X136195570Y-68322131D01*
X136069764Y-68127665D01*
X135913887Y-67956358D01*
X135909836Y-67953159D01*
X135909832Y-67953155D01*
X135737077Y-67816722D01*
X135696014Y-67758805D01*
X135692782Y-67687882D01*
X135728407Y-67626470D01*
X135742001Y-67615261D01*
X135745872Y-67612500D01*
X135862243Y-67529494D01*
X136026303Y-67366005D01*
X136161458Y-67177917D01*
X136208641Y-67082450D01*
X136261784Y-66974922D01*
X136261785Y-66974920D01*
X136264078Y-66970280D01*
X136331408Y-66748671D01*
X136361640Y-66519041D01*
X136363327Y-66450000D01*
X136357032Y-66373434D01*
X136344773Y-66224318D01*
X136344772Y-66224312D01*
X136344349Y-66219167D01*
X136287925Y-65994533D01*
X136285866Y-65989797D01*
X136197630Y-65786868D01*
X136197628Y-65786865D01*
X136195570Y-65782131D01*
X136069764Y-65587665D01*
X135913887Y-65416358D01*
X135909836Y-65413159D01*
X135909832Y-65413155D01*
X135737077Y-65276722D01*
X135696014Y-65218805D01*
X135692782Y-65147882D01*
X135728407Y-65086470D01*
X135742001Y-65075261D01*
X135745872Y-65072500D01*
X135862243Y-64989494D01*
X136026303Y-64826005D01*
X136161458Y-64637917D01*
X136208641Y-64542450D01*
X136261784Y-64434922D01*
X136261785Y-64434920D01*
X136264078Y-64430280D01*
X136331408Y-64208671D01*
X136361640Y-63979041D01*
X136361722Y-63975691D01*
X136363245Y-63913365D01*
X136363245Y-63913361D01*
X136363327Y-63910000D01*
X136349336Y-63739820D01*
X136344773Y-63684318D01*
X136344772Y-63684312D01*
X136344349Y-63679167D01*
X136313013Y-63554412D01*
X136289184Y-63459544D01*
X136289183Y-63459540D01*
X136287925Y-63454533D01*
X136285866Y-63449797D01*
X136197630Y-63246868D01*
X136197628Y-63246865D01*
X136195570Y-63242131D01*
X136069764Y-63047665D01*
X135913887Y-62876358D01*
X135909836Y-62873159D01*
X135909832Y-62873155D01*
X135737077Y-62736722D01*
X135696014Y-62678805D01*
X135692782Y-62607882D01*
X135728407Y-62546470D01*
X135742001Y-62535261D01*
X135745872Y-62532500D01*
X135862243Y-62449494D01*
X136026303Y-62286005D01*
X136161458Y-62097917D01*
X136167970Y-62084742D01*
X136261784Y-61894922D01*
X136261785Y-61894920D01*
X136264078Y-61890280D01*
X136331408Y-61668671D01*
X136361640Y-61439041D01*
X136363327Y-61370000D01*
X136357032Y-61293434D01*
X136344773Y-61144318D01*
X136344772Y-61144312D01*
X136344349Y-61139167D01*
X136291513Y-60928817D01*
X136289184Y-60919544D01*
X136289183Y-60919540D01*
X136287925Y-60914533D01*
X136285866Y-60909797D01*
X136197630Y-60706868D01*
X136197628Y-60706865D01*
X136195570Y-60702131D01*
X136069764Y-60507665D01*
X135913887Y-60336358D01*
X135909836Y-60333159D01*
X135909832Y-60333155D01*
X135737077Y-60196722D01*
X135696014Y-60138805D01*
X135692782Y-60067882D01*
X135728407Y-60006470D01*
X135742001Y-59995261D01*
X135745872Y-59992500D01*
X135862243Y-59909494D01*
X136026303Y-59746005D01*
X136161458Y-59557917D01*
X136208641Y-59462450D01*
X136261784Y-59354922D01*
X136261785Y-59354920D01*
X136264078Y-59350280D01*
X136331408Y-59128671D01*
X136361640Y-58899041D01*
X136363327Y-58830000D01*
X136357032Y-58753434D01*
X136344773Y-58604318D01*
X136344772Y-58604312D01*
X136344349Y-58599167D01*
X136287925Y-58374533D01*
X136285866Y-58369797D01*
X136197630Y-58166868D01*
X136197628Y-58166865D01*
X136195570Y-58162131D01*
X136069764Y-57967665D01*
X135913887Y-57796358D01*
X135909836Y-57793159D01*
X135909832Y-57793155D01*
X135737077Y-57656722D01*
X135696014Y-57598805D01*
X135692782Y-57527882D01*
X135728407Y-57466470D01*
X135742001Y-57455261D01*
X135745872Y-57452500D01*
X135862243Y-57369494D01*
X136026303Y-57206005D01*
X136161458Y-57017917D01*
X136208641Y-56922450D01*
X136261784Y-56814922D01*
X136261785Y-56814920D01*
X136264078Y-56810280D01*
X136331408Y-56588671D01*
X136361640Y-56359041D01*
X136363327Y-56290000D01*
X136357032Y-56213434D01*
X136344773Y-56064318D01*
X136344772Y-56064312D01*
X136344349Y-56059167D01*
X136287925Y-55834533D01*
X136285866Y-55829797D01*
X136197630Y-55626868D01*
X136197628Y-55626865D01*
X136195570Y-55622131D01*
X136069764Y-55427665D01*
X135913887Y-55256358D01*
X135909836Y-55253159D01*
X135909832Y-55253155D01*
X135737077Y-55116722D01*
X135696014Y-55058805D01*
X135692782Y-54987882D01*
X135728407Y-54926470D01*
X135742001Y-54915261D01*
X135745872Y-54912500D01*
X135862243Y-54829494D01*
X136026303Y-54666005D01*
X136161458Y-54477917D01*
X136208641Y-54382450D01*
X136261784Y-54274922D01*
X136261785Y-54274920D01*
X136264078Y-54270280D01*
X136331408Y-54048671D01*
X136361640Y-53819041D01*
X136363327Y-53750000D01*
X136357032Y-53673434D01*
X136344773Y-53524318D01*
X136344772Y-53524312D01*
X136344349Y-53519167D01*
X136287925Y-53294533D01*
X136285866Y-53289797D01*
X136197630Y-53086868D01*
X136197628Y-53086865D01*
X136195570Y-53082131D01*
X136069764Y-52887665D01*
X135913887Y-52716358D01*
X135909836Y-52713159D01*
X135909832Y-52713155D01*
X135737077Y-52576722D01*
X135696014Y-52518805D01*
X135692782Y-52447882D01*
X135728407Y-52386470D01*
X135742001Y-52375261D01*
X135745872Y-52372500D01*
X135862243Y-52289494D01*
X136026303Y-52126005D01*
X136161458Y-51937917D01*
X136208641Y-51842450D01*
X136261784Y-51734922D01*
X136261785Y-51734920D01*
X136264078Y-51730280D01*
X136331408Y-51508671D01*
X136361640Y-51279041D01*
X136363327Y-51210000D01*
X136357032Y-51133434D01*
X136344773Y-50984318D01*
X136344772Y-50984312D01*
X136344349Y-50979167D01*
X136287925Y-50754533D01*
X136285866Y-50749797D01*
X136197630Y-50546868D01*
X136197628Y-50546865D01*
X136195570Y-50542131D01*
X136069764Y-50347665D01*
X135913887Y-50176358D01*
X135909836Y-50173159D01*
X135909832Y-50173155D01*
X135737077Y-50036722D01*
X135696014Y-49978805D01*
X135692782Y-49907882D01*
X135728407Y-49846470D01*
X135742001Y-49835261D01*
X135745872Y-49832500D01*
X135862243Y-49749494D01*
X136026303Y-49586005D01*
X136161458Y-49397917D01*
X136208641Y-49302450D01*
X136261784Y-49194922D01*
X136261785Y-49194920D01*
X136264078Y-49190280D01*
X136331408Y-48968671D01*
X136361640Y-48739041D01*
X136363327Y-48670000D01*
X136357032Y-48593434D01*
X136344773Y-48444318D01*
X136344772Y-48444312D01*
X136344349Y-48439167D01*
X136287925Y-48214533D01*
X136285866Y-48209797D01*
X136197630Y-48006868D01*
X136197628Y-48006865D01*
X136195570Y-48002131D01*
X136069764Y-47807665D01*
X135913887Y-47636358D01*
X135909836Y-47633159D01*
X135909832Y-47633155D01*
X135737077Y-47496722D01*
X135696014Y-47438805D01*
X135692782Y-47367882D01*
X135728407Y-47306470D01*
X135742001Y-47295261D01*
X135745872Y-47292500D01*
X135862243Y-47209494D01*
X136026303Y-47046005D01*
X136161458Y-46857917D01*
X136208641Y-46762450D01*
X136261784Y-46654922D01*
X136261785Y-46654920D01*
X136264078Y-46650280D01*
X136331408Y-46428671D01*
X136361640Y-46199041D01*
X136363327Y-46130000D01*
X136357032Y-46053434D01*
X136344773Y-45904318D01*
X136344772Y-45904312D01*
X136344349Y-45899167D01*
X136287925Y-45674533D01*
X136285866Y-45669797D01*
X136197630Y-45466868D01*
X136197628Y-45466865D01*
X136195570Y-45462131D01*
X136069764Y-45267665D01*
X135913887Y-45096358D01*
X135909836Y-45093159D01*
X135909832Y-45093155D01*
X135737077Y-44956722D01*
X135696014Y-44898805D01*
X135692782Y-44827882D01*
X135728407Y-44766470D01*
X135742001Y-44755261D01*
X135745872Y-44752500D01*
X135862243Y-44669494D01*
X136026303Y-44506005D01*
X136161458Y-44317917D01*
X136208641Y-44222450D01*
X136261784Y-44114922D01*
X136261785Y-44114920D01*
X136264078Y-44110280D01*
X136331408Y-43888671D01*
X136361640Y-43659041D01*
X136363327Y-43590000D01*
X136357032Y-43513434D01*
X136344773Y-43364318D01*
X136344772Y-43364312D01*
X136344349Y-43359167D01*
X136287925Y-43134533D01*
X136285866Y-43129797D01*
X136197630Y-42926868D01*
X136197628Y-42926865D01*
X136195570Y-42922131D01*
X136069764Y-42727665D01*
X135913887Y-42556358D01*
X135909836Y-42553159D01*
X135909832Y-42553155D01*
X135737077Y-42416722D01*
X135696014Y-42358805D01*
X135692782Y-42287882D01*
X135728407Y-42226470D01*
X135742001Y-42215261D01*
X135745872Y-42212500D01*
X135862243Y-42129494D01*
X136026303Y-41966005D01*
X136161458Y-41777917D01*
X136208641Y-41682450D01*
X136261784Y-41574922D01*
X136261785Y-41574920D01*
X136264078Y-41570280D01*
X136331408Y-41348671D01*
X136361640Y-41119041D01*
X136363327Y-41050000D01*
X136357032Y-40973434D01*
X136344773Y-40824318D01*
X136344772Y-40824312D01*
X136344349Y-40819167D01*
X136287925Y-40594533D01*
X136285866Y-40589797D01*
X136197630Y-40386868D01*
X136197628Y-40386865D01*
X136195570Y-40382131D01*
X136069764Y-40187665D01*
X135913887Y-40016358D01*
X135909836Y-40013159D01*
X135909832Y-40013155D01*
X135737077Y-39876722D01*
X135696014Y-39818805D01*
X135692782Y-39747882D01*
X135728407Y-39686470D01*
X135742001Y-39675261D01*
X135745872Y-39672500D01*
X135862243Y-39589494D01*
X136026303Y-39426005D01*
X136161458Y-39237917D01*
X136208641Y-39142450D01*
X136261784Y-39034922D01*
X136261785Y-39034920D01*
X136264078Y-39030280D01*
X136331408Y-38808671D01*
X136361640Y-38579041D01*
X136363327Y-38510000D01*
X136357032Y-38433434D01*
X136344773Y-38284318D01*
X136344772Y-38284312D01*
X136344349Y-38279167D01*
X136287925Y-38054533D01*
X136285866Y-38049797D01*
X136197630Y-37846868D01*
X136197628Y-37846865D01*
X136195570Y-37842131D01*
X136069764Y-37647665D01*
X135913887Y-37476358D01*
X135909836Y-37473159D01*
X135909832Y-37473155D01*
X135736177Y-37336011D01*
X135736172Y-37336008D01*
X135732123Y-37332810D01*
X135727607Y-37330317D01*
X135727604Y-37330315D01*
X135533879Y-37223373D01*
X135533875Y-37223371D01*
X135529355Y-37220876D01*
X135524486Y-37219152D01*
X135524482Y-37219150D01*
X135315903Y-37145288D01*
X135315899Y-37145287D01*
X135311028Y-37143562D01*
X135305935Y-37142655D01*
X135305932Y-37142654D01*
X135088095Y-37103851D01*
X135088089Y-37103850D01*
X135083006Y-37102945D01*
X135010096Y-37102054D01*
X134856581Y-37100179D01*
X134856579Y-37100179D01*
X134851411Y-37100116D01*
X134622464Y-37135150D01*
X134402314Y-37207106D01*
X134397726Y-37209494D01*
X134397722Y-37209496D01*
X134371065Y-37223373D01*
X134196872Y-37314052D01*
X134192739Y-37317155D01*
X134192736Y-37317157D01*
X134167625Y-37336011D01*
X134011655Y-37453117D01*
X133851639Y-37620564D01*
X133848725Y-37624836D01*
X133848724Y-37624837D01*
X133833152Y-37647665D01*
X133721119Y-37811899D01*
X133623602Y-38021981D01*
X133561707Y-38245169D01*
X133537095Y-38475469D01*
X133537392Y-38480622D01*
X133537392Y-38480625D01*
X133543067Y-38579041D01*
X133550427Y-38706697D01*
X133551564Y-38711743D01*
X133551565Y-38711749D01*
X133583741Y-38854523D01*
X133601346Y-38932642D01*
X133603288Y-38937424D01*
X133603289Y-38937428D01*
X133686540Y-39142450D01*
X133688484Y-39147237D01*
X133809501Y-39344719D01*
X133961147Y-39519784D01*
X134139349Y-39667730D01*
X134143819Y-39670342D01*
X134147511Y-39672500D01*
X134196232Y-39724140D01*
X134209301Y-39793924D01*
X134182566Y-39859694D01*
X134159589Y-39882045D01*
X134011655Y-39993117D01*
X133851639Y-40160564D01*
X133848725Y-40164836D01*
X133848724Y-40164837D01*
X133833152Y-40187665D01*
X133721119Y-40351899D01*
X133623602Y-40561981D01*
X133561707Y-40785169D01*
X133537095Y-41015469D01*
X133537392Y-41020622D01*
X133537392Y-41020625D01*
X133543067Y-41119041D01*
X133550427Y-41246697D01*
X133551564Y-41251743D01*
X133551565Y-41251749D01*
X133583741Y-41394523D01*
X133601346Y-41472642D01*
X133603288Y-41477424D01*
X133603289Y-41477428D01*
X133686540Y-41682450D01*
X133688484Y-41687237D01*
X133809501Y-41884719D01*
X133961147Y-42059784D01*
X134139349Y-42207730D01*
X134143819Y-42210342D01*
X134147511Y-42212500D01*
X134196232Y-42264140D01*
X134209301Y-42333924D01*
X134182566Y-42399694D01*
X134159589Y-42422045D01*
X134011655Y-42533117D01*
X133851639Y-42700564D01*
X133848725Y-42704836D01*
X133848724Y-42704837D01*
X133833152Y-42727665D01*
X133721119Y-42891899D01*
X133623602Y-43101981D01*
X133561707Y-43325169D01*
X133537095Y-43555469D01*
X133537392Y-43560622D01*
X133537392Y-43560625D01*
X133543067Y-43659041D01*
X133550427Y-43786697D01*
X133551564Y-43791743D01*
X133551565Y-43791749D01*
X133583741Y-43934523D01*
X133601346Y-44012642D01*
X133603288Y-44017424D01*
X133603289Y-44017428D01*
X133686540Y-44222450D01*
X133688484Y-44227237D01*
X133809501Y-44424719D01*
X133961147Y-44599784D01*
X134139349Y-44747730D01*
X134143819Y-44750342D01*
X134147511Y-44752500D01*
X134196232Y-44804140D01*
X134209301Y-44873924D01*
X134182566Y-44939694D01*
X134159589Y-44962045D01*
X134011655Y-45073117D01*
X133851639Y-45240564D01*
X133848725Y-45244836D01*
X133848724Y-45244837D01*
X133833152Y-45267665D01*
X133721119Y-45431899D01*
X133623602Y-45641981D01*
X133561707Y-45865169D01*
X133537095Y-46095469D01*
X133537392Y-46100622D01*
X133537392Y-46100625D01*
X133543067Y-46199041D01*
X133550427Y-46326697D01*
X133551564Y-46331743D01*
X133551565Y-46331749D01*
X133583741Y-46474523D01*
X133601346Y-46552642D01*
X133603288Y-46557424D01*
X133603289Y-46557428D01*
X133686540Y-46762450D01*
X133688484Y-46767237D01*
X133809501Y-46964719D01*
X133961147Y-47139784D01*
X134139349Y-47287730D01*
X134143819Y-47290342D01*
X134147511Y-47292500D01*
X134196232Y-47344140D01*
X134209301Y-47413924D01*
X134182566Y-47479694D01*
X134159589Y-47502045D01*
X134011655Y-47613117D01*
X133851639Y-47780564D01*
X133848725Y-47784836D01*
X133848724Y-47784837D01*
X133833152Y-47807665D01*
X133721119Y-47971899D01*
X133623602Y-48181981D01*
X133561707Y-48405169D01*
X133537095Y-48635469D01*
X133537392Y-48640622D01*
X133537392Y-48640625D01*
X133543067Y-48739041D01*
X133550427Y-48866697D01*
X133551564Y-48871743D01*
X133551565Y-48871749D01*
X133583741Y-49014523D01*
X133601346Y-49092642D01*
X133603288Y-49097424D01*
X133603289Y-49097428D01*
X133686540Y-49302450D01*
X133688484Y-49307237D01*
X133809501Y-49504719D01*
X133961147Y-49679784D01*
X134139349Y-49827730D01*
X134143819Y-49830342D01*
X134147511Y-49832500D01*
X134196232Y-49884140D01*
X134209301Y-49953924D01*
X134182566Y-50019694D01*
X134159589Y-50042045D01*
X134011655Y-50153117D01*
X133851639Y-50320564D01*
X133848725Y-50324836D01*
X133848724Y-50324837D01*
X133833152Y-50347665D01*
X133721119Y-50511899D01*
X133623602Y-50721981D01*
X133561707Y-50945169D01*
X133537095Y-51175469D01*
X133537392Y-51180622D01*
X133537392Y-51180625D01*
X133543067Y-51279041D01*
X133550427Y-51406697D01*
X133551564Y-51411743D01*
X133551565Y-51411749D01*
X133583741Y-51554523D01*
X133601346Y-51632642D01*
X133603288Y-51637424D01*
X133603289Y-51637428D01*
X133686540Y-51842450D01*
X133688484Y-51847237D01*
X133809501Y-52044719D01*
X133961147Y-52219784D01*
X134139349Y-52367730D01*
X134143819Y-52370342D01*
X134147511Y-52372500D01*
X134196232Y-52424140D01*
X134209301Y-52493924D01*
X134182566Y-52559694D01*
X134159589Y-52582045D01*
X134011655Y-52693117D01*
X133851639Y-52860564D01*
X133848725Y-52864836D01*
X133848724Y-52864837D01*
X133833152Y-52887665D01*
X133721119Y-53051899D01*
X133623602Y-53261981D01*
X133561707Y-53485169D01*
X133537095Y-53715469D01*
X133537392Y-53720622D01*
X133537392Y-53720625D01*
X133543067Y-53819041D01*
X133550427Y-53946697D01*
X133551564Y-53951743D01*
X133551565Y-53951749D01*
X133583741Y-54094523D01*
X133601346Y-54172642D01*
X133603288Y-54177424D01*
X133603289Y-54177428D01*
X133686540Y-54382450D01*
X133688484Y-54387237D01*
X133809501Y-54584719D01*
X133961147Y-54759784D01*
X134139349Y-54907730D01*
X134143819Y-54910342D01*
X134147511Y-54912500D01*
X134196232Y-54964140D01*
X134209301Y-55033924D01*
X134182566Y-55099694D01*
X134159589Y-55122045D01*
X134011655Y-55233117D01*
X133851639Y-55400564D01*
X133848725Y-55404836D01*
X133848724Y-55404837D01*
X133833152Y-55427665D01*
X133721119Y-55591899D01*
X133623602Y-55801981D01*
X133561707Y-56025169D01*
X133537095Y-56255469D01*
X133537392Y-56260622D01*
X133537392Y-56260625D01*
X133543067Y-56359041D01*
X133550427Y-56486697D01*
X133551564Y-56491743D01*
X133551565Y-56491749D01*
X133583741Y-56634523D01*
X133601346Y-56712642D01*
X133603288Y-56717424D01*
X133603289Y-56717428D01*
X133686540Y-56922450D01*
X133688484Y-56927237D01*
X133809501Y-57124719D01*
X133961147Y-57299784D01*
X134139349Y-57447730D01*
X134143819Y-57450342D01*
X134147511Y-57452500D01*
X134196232Y-57504140D01*
X134209301Y-57573924D01*
X134182566Y-57639694D01*
X134159589Y-57662045D01*
X134011655Y-57773117D01*
X133851639Y-57940564D01*
X133848725Y-57944836D01*
X133848724Y-57944837D01*
X133833152Y-57967665D01*
X133721119Y-58131899D01*
X133623602Y-58341981D01*
X133561707Y-58565169D01*
X133537095Y-58795469D01*
X133537392Y-58800622D01*
X133537392Y-58800625D01*
X133543067Y-58899041D01*
X133550427Y-59026697D01*
X133551564Y-59031743D01*
X133551565Y-59031749D01*
X133583741Y-59174523D01*
X133601346Y-59252642D01*
X133603288Y-59257424D01*
X133603289Y-59257428D01*
X133686540Y-59462450D01*
X133688484Y-59467237D01*
X133809501Y-59664719D01*
X133961147Y-59839784D01*
X134139349Y-59987730D01*
X134143819Y-59990342D01*
X134147511Y-59992500D01*
X134196232Y-60044140D01*
X134209301Y-60113924D01*
X134182566Y-60179694D01*
X134159589Y-60202045D01*
X134011655Y-60313117D01*
X133851639Y-60480564D01*
X133848725Y-60484836D01*
X133848724Y-60484837D01*
X133833152Y-60507665D01*
X133721119Y-60671899D01*
X133623602Y-60881981D01*
X133561707Y-61105169D01*
X133537095Y-61335469D01*
X133537392Y-61340622D01*
X133537392Y-61340625D01*
X133543067Y-61439041D01*
X133550427Y-61566697D01*
X133551564Y-61571743D01*
X133551565Y-61571749D01*
X133583741Y-61714523D01*
X133601346Y-61792642D01*
X133603288Y-61797424D01*
X133603289Y-61797428D01*
X133678180Y-61981861D01*
X133688484Y-62007237D01*
X133809501Y-62204719D01*
X133961147Y-62379784D01*
X134139349Y-62527730D01*
X134143819Y-62530342D01*
X134147511Y-62532500D01*
X134196232Y-62584140D01*
X134209301Y-62653924D01*
X134182566Y-62719694D01*
X134159589Y-62742045D01*
X134011655Y-62853117D01*
X133851639Y-63020564D01*
X133848725Y-63024836D01*
X133848724Y-63024837D01*
X133833152Y-63047665D01*
X133721119Y-63211899D01*
X133623602Y-63421981D01*
X133561707Y-63645169D01*
X133537095Y-63875469D01*
X133537392Y-63880622D01*
X133537392Y-63880625D01*
X133543067Y-63979041D01*
X133550427Y-64106697D01*
X133551564Y-64111743D01*
X133551565Y-64111749D01*
X133583741Y-64254523D01*
X133601346Y-64332642D01*
X133603288Y-64337424D01*
X133603289Y-64337428D01*
X133686540Y-64542450D01*
X133688484Y-64547237D01*
X133809501Y-64744719D01*
X133961147Y-64919784D01*
X134139349Y-65067730D01*
X134143819Y-65070342D01*
X134147511Y-65072500D01*
X134196232Y-65124140D01*
X134209301Y-65193924D01*
X134182566Y-65259694D01*
X134159589Y-65282045D01*
X134011655Y-65393117D01*
X133851639Y-65560564D01*
X133848725Y-65564836D01*
X133848724Y-65564837D01*
X133833152Y-65587665D01*
X133721119Y-65751899D01*
X133623602Y-65961981D01*
X133561707Y-66185169D01*
X133537095Y-66415469D01*
X133537392Y-66420622D01*
X133537392Y-66420625D01*
X133543067Y-66519041D01*
X133550427Y-66646697D01*
X133551564Y-66651743D01*
X133551565Y-66651749D01*
X133583741Y-66794523D01*
X133601346Y-66872642D01*
X133603288Y-66877424D01*
X133603289Y-66877428D01*
X133686540Y-67082450D01*
X133688484Y-67087237D01*
X133809501Y-67284719D01*
X133961147Y-67459784D01*
X134139349Y-67607730D01*
X134143819Y-67610342D01*
X134147511Y-67612500D01*
X134196232Y-67664140D01*
X134209301Y-67733924D01*
X134182566Y-67799694D01*
X134159589Y-67822045D01*
X134011655Y-67933117D01*
X133851639Y-68100564D01*
X133848725Y-68104836D01*
X133848724Y-68104837D01*
X133833152Y-68127665D01*
X133721119Y-68291899D01*
X133623602Y-68501981D01*
X133561707Y-68725169D01*
X133537095Y-68955469D01*
X120098500Y-68955469D01*
X120098500Y-35486687D01*
X120099988Y-35467377D01*
X120102909Y-35448545D01*
X120102909Y-35448539D01*
X120103597Y-35444106D01*
X120106132Y-35214864D01*
X120106232Y-35211042D01*
X120114154Y-35019853D01*
X120114502Y-35014367D01*
X120127649Y-34860472D01*
X120128481Y-34853227D01*
X120146467Y-34728690D01*
X120148022Y-34720058D01*
X120170977Y-34613955D01*
X120173257Y-34605015D01*
X120202956Y-34504133D01*
X120205568Y-34496234D01*
X120205569Y-34496233D01*
X120218378Y-34461406D01*
X123793423Y-34461406D01*
X123798704Y-34468461D01*
X123975080Y-34571527D01*
X123984363Y-34575974D01*
X124191003Y-34654883D01*
X124200901Y-34657759D01*
X124417653Y-34701857D01*
X124427883Y-34703076D01*
X124648914Y-34711182D01*
X124659223Y-34710714D01*
X124878623Y-34682608D01*
X124888688Y-34680468D01*
X125100557Y-34616905D01*
X125110152Y-34613144D01*
X125308778Y-34515838D01*
X125317636Y-34510559D01*
X125375097Y-34469572D01*
X125383497Y-34458874D01*
X125376510Y-34445721D01*
X124602811Y-33672021D01*
X124588868Y-33664408D01*
X124587034Y-33664539D01*
X124580420Y-33668790D01*
X123800180Y-34449031D01*
X123793423Y-34461406D01*
X120218378Y-34461406D01*
X120245566Y-34387485D01*
X120247905Y-34381589D01*
X120301945Y-34254783D01*
X120303556Y-34251161D01*
X120374054Y-34099179D01*
X120374788Y-34097627D01*
X120459163Y-33922337D01*
X120460295Y-33919150D01*
X120460300Y-33919139D01*
X120470815Y-33889547D01*
X120476585Y-33875908D01*
X120501784Y-33824922D01*
X120501785Y-33824920D01*
X120504078Y-33820280D01*
X120571408Y-33598671D01*
X120601640Y-33369041D01*
X120603327Y-33300000D01*
X120600913Y-33270638D01*
X123177893Y-33270638D01*
X123190627Y-33491468D01*
X123192061Y-33501670D01*
X123240685Y-33717439D01*
X123243773Y-33727292D01*
X123326986Y-33932220D01*
X123331634Y-33941421D01*
X123420097Y-34085781D01*
X123430553Y-34095242D01*
X123439331Y-34091458D01*
X124217979Y-33312811D01*
X124224356Y-33301132D01*
X124954408Y-33301132D01*
X124954539Y-33302966D01*
X124958790Y-33309580D01*
X125736307Y-34087096D01*
X125748313Y-34093652D01*
X125760052Y-34084684D01*
X125798010Y-34031859D01*
X125803321Y-34023020D01*
X125901318Y-33824737D01*
X125905117Y-33815142D01*
X125969415Y-33603517D01*
X125971594Y-33593436D01*
X126000702Y-33372338D01*
X126001221Y-33365663D01*
X126002744Y-33303364D01*
X126002550Y-33296646D01*
X125984279Y-33074400D01*
X125982596Y-33064238D01*
X125928710Y-32849708D01*
X125925389Y-32839953D01*
X125837193Y-32637118D01*
X125832315Y-32628020D01*
X125759224Y-32515038D01*
X125748538Y-32505835D01*
X125738973Y-32510238D01*
X124962021Y-33287189D01*
X124954408Y-33301132D01*
X124224356Y-33301132D01*
X124225592Y-33298868D01*
X124225461Y-33297034D01*
X124221210Y-33290420D01*
X123443862Y-32513073D01*
X123432330Y-32506776D01*
X123420048Y-32516399D01*
X123364467Y-32597877D01*
X123359379Y-32606833D01*
X123266252Y-32807459D01*
X123262689Y-32817146D01*
X123203581Y-33030280D01*
X123201650Y-33040400D01*
X123178145Y-33260349D01*
X123177893Y-33270638D01*
X120600913Y-33270638D01*
X120597032Y-33223434D01*
X120584773Y-33074318D01*
X120584772Y-33074312D01*
X120584349Y-33069167D01*
X120550797Y-32935592D01*
X120529184Y-32849544D01*
X120529183Y-32849540D01*
X120527925Y-32844533D01*
X120516017Y-32817146D01*
X120437630Y-32636868D01*
X120437628Y-32636865D01*
X120435570Y-32632131D01*
X120309764Y-32437665D01*
X120153887Y-32266358D01*
X120149836Y-32263159D01*
X120149832Y-32263155D01*
X119994790Y-32140711D01*
X123795508Y-32140711D01*
X123802251Y-32153040D01*
X124577189Y-32927979D01*
X124591132Y-32935592D01*
X124592966Y-32935461D01*
X124599580Y-32931210D01*
X125378994Y-32151795D01*
X125386011Y-32138944D01*
X125378237Y-32128274D01*
X125375902Y-32126430D01*
X125367320Y-32120729D01*
X125173678Y-32013833D01*
X125164272Y-32009606D01*
X124955772Y-31935772D01*
X124945809Y-31933140D01*
X124728047Y-31894350D01*
X124717796Y-31893381D01*
X124496616Y-31890679D01*
X124486332Y-31891399D01*
X124267693Y-31924855D01*
X124257666Y-31927244D01*
X124047426Y-31995961D01*
X124037916Y-31999958D01*
X123841725Y-32102089D01*
X123833007Y-32107578D01*
X123803961Y-32129386D01*
X123795508Y-32140711D01*
X119994790Y-32140711D01*
X119976177Y-32126011D01*
X119976172Y-32126008D01*
X119972123Y-32122810D01*
X119967607Y-32120317D01*
X119967604Y-32120315D01*
X119773879Y-32013373D01*
X119773875Y-32013371D01*
X119769355Y-32010876D01*
X119764486Y-32009152D01*
X119764482Y-32009150D01*
X119555903Y-31935288D01*
X119555899Y-31935287D01*
X119551028Y-31933562D01*
X119545935Y-31932655D01*
X119545932Y-31932654D01*
X119328095Y-31893851D01*
X119328089Y-31893850D01*
X119323006Y-31892945D01*
X119250096Y-31892054D01*
X119096581Y-31890179D01*
X119096579Y-31890179D01*
X119091411Y-31890116D01*
X118862464Y-31925150D01*
X118642314Y-31997106D01*
X118637726Y-31999494D01*
X118637722Y-31999496D01*
X118441461Y-32101663D01*
X118436872Y-32104052D01*
X118432739Y-32107155D01*
X118432736Y-32107157D01*
X118373284Y-32151795D01*
X118251655Y-32243117D01*
X118091639Y-32410564D01*
X118088725Y-32414836D01*
X118088724Y-32414837D01*
X118073152Y-32437665D01*
X117961119Y-32601899D01*
X117863602Y-32811981D01*
X117801707Y-33035169D01*
X117777095Y-33265469D01*
X117777392Y-33270622D01*
X117777392Y-33270625D01*
X117790129Y-33491529D01*
X117790427Y-33496697D01*
X117791564Y-33501743D01*
X117791565Y-33501749D01*
X117823741Y-33644523D01*
X117841346Y-33722642D01*
X117878906Y-33815142D01*
X117913358Y-33899988D01*
X117916767Y-33909452D01*
X117919479Y-33918041D01*
X117919484Y-33918053D01*
X117920837Y-33922339D01*
X117969300Y-34023020D01*
X118005159Y-34097518D01*
X118005928Y-34099145D01*
X118076435Y-34251143D01*
X118078048Y-34254767D01*
X118132098Y-34381600D01*
X118134439Y-34387502D01*
X118174431Y-34496234D01*
X118177043Y-34504133D01*
X118206742Y-34605015D01*
X118209022Y-34613955D01*
X118231977Y-34720058D01*
X118233532Y-34728690D01*
X118251518Y-34853227D01*
X118252350Y-34860472D01*
X118265497Y-35014367D01*
X118265845Y-35019853D01*
X118273767Y-35211042D01*
X118273867Y-35214864D01*
X118276403Y-35444108D01*
X118276501Y-35445683D01*
X118276501Y-35445696D01*
X118277655Y-35464329D01*
X118279624Y-35496129D01*
X118280264Y-35498580D01*
X118281500Y-35514138D01*
X118281500Y-69381497D01*
X118261498Y-69449618D01*
X118244595Y-69470592D01*
X114590592Y-73124595D01*
X114528280Y-73158621D01*
X114501497Y-73161500D01*
X111886682Y-73161500D01*
X111867372Y-73160011D01*
X111848565Y-73157094D01*
X111848562Y-73157094D01*
X111844108Y-73156403D01*
X111839601Y-73156353D01*
X111839599Y-73156353D01*
X111614864Y-73153867D01*
X111611042Y-73153767D01*
X111534729Y-73150605D01*
X111419832Y-73145844D01*
X111414367Y-73145497D01*
X111260472Y-73132350D01*
X111253227Y-73131518D01*
X111158991Y-73117908D01*
X111128690Y-73113532D01*
X111120058Y-73111977D01*
X111031445Y-73092806D01*
X111013952Y-73089021D01*
X111005023Y-73086744D01*
X110904133Y-73057043D01*
X110896255Y-73054438D01*
X110787479Y-73014431D01*
X110781583Y-73012091D01*
X110654808Y-72958065D01*
X110651185Y-72956454D01*
X110525941Y-72898358D01*
X110472561Y-72851548D01*
X110452963Y-72783310D01*
X110473368Y-72715309D01*
X110479855Y-72706248D01*
X110493496Y-72688873D01*
X110486510Y-72675721D01*
X109712811Y-71902021D01*
X109698868Y-71894408D01*
X109697034Y-71894539D01*
X109690420Y-71898790D01*
X108910180Y-72679031D01*
X108903423Y-72691406D01*
X108922730Y-72717197D01*
X108922040Y-72717713D01*
X108946627Y-72743737D01*
X108959743Y-72813511D01*
X108933055Y-72879300D01*
X108910023Y-72901719D01*
X108803472Y-72981720D01*
X108761655Y-73013117D01*
X108758083Y-73016855D01*
X108624776Y-73156353D01*
X108601639Y-73180564D01*
X108598725Y-73184836D01*
X108598724Y-73184837D01*
X108583152Y-73207665D01*
X108471119Y-73371899D01*
X108373602Y-73581981D01*
X108311707Y-73805169D01*
X108287095Y-74035469D01*
X108287392Y-74040622D01*
X108287392Y-74040625D01*
X108293067Y-74139041D01*
X108300427Y-74266697D01*
X108301564Y-74271743D01*
X108301565Y-74271749D01*
X108333741Y-74414523D01*
X108351346Y-74492642D01*
X108353288Y-74497424D01*
X108353289Y-74497428D01*
X108427933Y-74681253D01*
X108438484Y-74707237D01*
X108559501Y-74904719D01*
X108711147Y-75079784D01*
X108889349Y-75227730D01*
X109089322Y-75344584D01*
X109305694Y-75427209D01*
X109310760Y-75428240D01*
X109310761Y-75428240D01*
X109363846Y-75439040D01*
X109532656Y-75473385D01*
X109663324Y-75478176D01*
X109758949Y-75481683D01*
X109758953Y-75481683D01*
X109764113Y-75481872D01*
X109769233Y-75481216D01*
X109769235Y-75481216D01*
X109842270Y-75471860D01*
X109993847Y-75452442D01*
X109998795Y-75450957D01*
X109998802Y-75450956D01*
X110210747Y-75387369D01*
X110215690Y-75385886D01*
X110220324Y-75383616D01*
X110282146Y-75353330D01*
X110299641Y-75346329D01*
X110318045Y-75340518D01*
X110318048Y-75340517D01*
X110322339Y-75339162D01*
X110326389Y-75337213D01*
X110326398Y-75337209D01*
X110497515Y-75254842D01*
X110499142Y-75254073D01*
X110651143Y-75183564D01*
X110654767Y-75181951D01*
X110781600Y-75127901D01*
X110787502Y-75125560D01*
X110797633Y-75121834D01*
X110896255Y-75085561D01*
X110904133Y-75082956D01*
X111005023Y-75053255D01*
X111013952Y-75050978D01*
X111031445Y-75047193D01*
X111120058Y-75028022D01*
X111128690Y-75026467D01*
X111158991Y-75022091D01*
X111253227Y-75008481D01*
X111260472Y-75007649D01*
X111414367Y-74994502D01*
X111419832Y-74994155D01*
X111534729Y-74989394D01*
X111611042Y-74986232D01*
X111614865Y-74986132D01*
X111842511Y-74983615D01*
X111842525Y-74983614D01*
X111844106Y-74983597D01*
X111845680Y-74983500D01*
X111845695Y-74983499D01*
X111890031Y-74980754D01*
X111890036Y-74980753D01*
X111896129Y-74980376D01*
X111898581Y-74979736D01*
X111914137Y-74978500D01*
X114848583Y-74978500D01*
X114868292Y-74980051D01*
X114882190Y-74982252D01*
X114888777Y-74981907D01*
X114888782Y-74981907D01*
X114950480Y-74978673D01*
X114957074Y-74978500D01*
X114977610Y-74978500D01*
X114980882Y-74978156D01*
X114980884Y-74978156D01*
X114998042Y-74976353D01*
X115004616Y-74975836D01*
X115066308Y-74972603D01*
X115066312Y-74972602D01*
X115072903Y-74972257D01*
X115079284Y-74970547D01*
X115079286Y-74970547D01*
X115086491Y-74968617D01*
X115105925Y-74965015D01*
X115113354Y-74964234D01*
X115113363Y-74964232D01*
X115119928Y-74963542D01*
X115184997Y-74942400D01*
X115191299Y-74940533D01*
X115257370Y-74922829D01*
X115269908Y-74916440D01*
X115288174Y-74908875D01*
X115295272Y-74906569D01*
X115295274Y-74906568D01*
X115301556Y-74904527D01*
X115308847Y-74900318D01*
X115360782Y-74870333D01*
X115366579Y-74867185D01*
X115427530Y-74836129D01*
X115438467Y-74827273D01*
X115454763Y-74816073D01*
X115461224Y-74812343D01*
X115461228Y-74812340D01*
X115466944Y-74809040D01*
X115471850Y-74804623D01*
X115471855Y-74804619D01*
X115517769Y-74763278D01*
X115522784Y-74758994D01*
X115536177Y-74748148D01*
X115538741Y-74746072D01*
X115553256Y-74731557D01*
X115558041Y-74727016D01*
X115603957Y-74685673D01*
X115608866Y-74681253D01*
X115617140Y-74669865D01*
X115629981Y-74654832D01*
X119100905Y-71183908D01*
X119163217Y-71149882D01*
X119234032Y-71154947D01*
X119279095Y-71183908D01*
X121014595Y-72919408D01*
X121048621Y-72981720D01*
X121051500Y-73008503D01*
X121051500Y-87153318D01*
X121050011Y-87172628D01*
X121046403Y-87195892D01*
X121046353Y-87200399D01*
X121046353Y-87200401D01*
X121043867Y-87425135D01*
X121043767Y-87428957D01*
X121035845Y-87620146D01*
X121035497Y-87625632D01*
X121022350Y-87779527D01*
X121021518Y-87786772D01*
X121007908Y-87881008D01*
X121003532Y-87911309D01*
X121001977Y-87919941D01*
X120979022Y-88026044D01*
X120976744Y-88034976D01*
X120963898Y-88078614D01*
X120947047Y-88135854D01*
X120944435Y-88143753D01*
X120904439Y-88252497D01*
X120904436Y-88252506D01*
X120902094Y-88258410D01*
X120848054Y-88385216D01*
X120846442Y-88388838D01*
X120790453Y-88509539D01*
X120743643Y-88562919D01*
X120675405Y-88582517D01*
X120607404Y-88562111D01*
X120570360Y-88524959D01*
X120542575Y-88482009D01*
X120542570Y-88482003D01*
X120539764Y-88477665D01*
X120510191Y-88445164D01*
X120457299Y-88387037D01*
X120383887Y-88306358D01*
X120379836Y-88303159D01*
X120379832Y-88303155D01*
X120206177Y-88166011D01*
X120206172Y-88166008D01*
X120202123Y-88162810D01*
X120197607Y-88160317D01*
X120197604Y-88160315D01*
X120003879Y-88053373D01*
X120003875Y-88053371D01*
X119999355Y-88050876D01*
X119994486Y-88049152D01*
X119994482Y-88049150D01*
X119785903Y-87975288D01*
X119785899Y-87975287D01*
X119781028Y-87973562D01*
X119775935Y-87972655D01*
X119775932Y-87972654D01*
X119558095Y-87933851D01*
X119558089Y-87933850D01*
X119553006Y-87932945D01*
X119480096Y-87932054D01*
X119326581Y-87930179D01*
X119326579Y-87930179D01*
X119321411Y-87930116D01*
X119092464Y-87965150D01*
X118939764Y-88015060D01*
X118877233Y-88035498D01*
X118877231Y-88035499D01*
X118872314Y-88037106D01*
X118824011Y-88062251D01*
X118806642Y-88069694D01*
X118786553Y-88076569D01*
X118592790Y-88175616D01*
X118584990Y-88179688D01*
X118584611Y-88179890D01*
X118575805Y-88184694D01*
X118575603Y-88184807D01*
X118449010Y-88255488D01*
X118403775Y-88280744D01*
X118395735Y-88285329D01*
X118395616Y-88285398D01*
X118395580Y-88285419D01*
X118246681Y-88372111D01*
X118245539Y-88372768D01*
X118120624Y-88443758D01*
X118115607Y-88446459D01*
X118013281Y-88498610D01*
X118004314Y-88502746D01*
X117913079Y-88540563D01*
X117901347Y-88544759D01*
X117804338Y-88574133D01*
X117791913Y-88577216D01*
X117670127Y-88600938D01*
X117658899Y-88602603D01*
X117496342Y-88619266D01*
X117487210Y-88619868D01*
X117267688Y-88626344D01*
X117267669Y-88626345D01*
X117266212Y-88626388D01*
X117249141Y-88627683D01*
X117224867Y-88629523D01*
X117224862Y-88629524D01*
X117218926Y-88629974D01*
X117218199Y-88630171D01*
X117202618Y-88631500D01*
X114685661Y-88631500D01*
X114617540Y-88611498D01*
X114596566Y-88594595D01*
X107745405Y-81743435D01*
X107711379Y-81681123D01*
X107708500Y-81654340D01*
X107708500Y-71500638D01*
X108287893Y-71500638D01*
X108300627Y-71721468D01*
X108302061Y-71731670D01*
X108350685Y-71947439D01*
X108353773Y-71957292D01*
X108436986Y-72162220D01*
X108441634Y-72171421D01*
X108530097Y-72315781D01*
X108540553Y-72325242D01*
X108549331Y-72321458D01*
X109327979Y-71542811D01*
X109334356Y-71531132D01*
X110064408Y-71531132D01*
X110064539Y-71532966D01*
X110068790Y-71539580D01*
X110846307Y-72317096D01*
X110858313Y-72323652D01*
X110870052Y-72314684D01*
X110908010Y-72261859D01*
X110913321Y-72253020D01*
X111011318Y-72054737D01*
X111015117Y-72045142D01*
X111079415Y-71833517D01*
X111081594Y-71823436D01*
X111110702Y-71602338D01*
X111111221Y-71595663D01*
X111112744Y-71533364D01*
X111112550Y-71526646D01*
X111094279Y-71304400D01*
X111092596Y-71294238D01*
X111038710Y-71079708D01*
X111035389Y-71069953D01*
X110947193Y-70867118D01*
X110942315Y-70858020D01*
X110869224Y-70745038D01*
X110858538Y-70735835D01*
X110848973Y-70740238D01*
X110072021Y-71517189D01*
X110064408Y-71531132D01*
X109334356Y-71531132D01*
X109335592Y-71528868D01*
X109335461Y-71527034D01*
X109331210Y-71520420D01*
X108553862Y-70743073D01*
X108542330Y-70736776D01*
X108530048Y-70746399D01*
X108474467Y-70827877D01*
X108469379Y-70836833D01*
X108376252Y-71037459D01*
X108372689Y-71047146D01*
X108313581Y-71260280D01*
X108311650Y-71270400D01*
X108288145Y-71490349D01*
X108287893Y-71500638D01*
X107708500Y-71500638D01*
X107708500Y-64415660D01*
X107728502Y-64347539D01*
X107745405Y-64326565D01*
X108083446Y-63988524D01*
X108145758Y-63954498D01*
X108216573Y-63959563D01*
X108273409Y-64002110D01*
X108298332Y-64070365D01*
X108300427Y-64106697D01*
X108301564Y-64111743D01*
X108301565Y-64111749D01*
X108333741Y-64254523D01*
X108351346Y-64332642D01*
X108353288Y-64337424D01*
X108353289Y-64337428D01*
X108436540Y-64542450D01*
X108438484Y-64547237D01*
X108559501Y-64744719D01*
X108711147Y-64919784D01*
X108889349Y-65067730D01*
X108893819Y-65070342D01*
X108897511Y-65072500D01*
X108946232Y-65124140D01*
X108959301Y-65193924D01*
X108932566Y-65259694D01*
X108909589Y-65282045D01*
X108761655Y-65393117D01*
X108601639Y-65560564D01*
X108598725Y-65564836D01*
X108598724Y-65564837D01*
X108583152Y-65587665D01*
X108471119Y-65751899D01*
X108373602Y-65961981D01*
X108311707Y-66185169D01*
X108287095Y-66415469D01*
X108287392Y-66420622D01*
X108287392Y-66420625D01*
X108293067Y-66519041D01*
X108300427Y-66646697D01*
X108301564Y-66651743D01*
X108301565Y-66651749D01*
X108333741Y-66794523D01*
X108351346Y-66872642D01*
X108353288Y-66877424D01*
X108353289Y-66877428D01*
X108436540Y-67082450D01*
X108438484Y-67087237D01*
X108559501Y-67284719D01*
X108711147Y-67459784D01*
X108889349Y-67607730D01*
X108893819Y-67610342D01*
X108897511Y-67612500D01*
X108946232Y-67664140D01*
X108959301Y-67733924D01*
X108932566Y-67799694D01*
X108909589Y-67822045D01*
X108761655Y-67933117D01*
X108601639Y-68100564D01*
X108598725Y-68104836D01*
X108598724Y-68104837D01*
X108583152Y-68127665D01*
X108471119Y-68291899D01*
X108373602Y-68501981D01*
X108311707Y-68725169D01*
X108287095Y-68955469D01*
X108287392Y-68960622D01*
X108287392Y-68960625D01*
X108293067Y-69059041D01*
X108300427Y-69186697D01*
X108301564Y-69191743D01*
X108301565Y-69191749D01*
X108333741Y-69334523D01*
X108351346Y-69412642D01*
X108353288Y-69417424D01*
X108353289Y-69417428D01*
X108436540Y-69622450D01*
X108438484Y-69627237D01*
X108559501Y-69824719D01*
X108711147Y-69999784D01*
X108889349Y-70147730D01*
X108893814Y-70150339D01*
X108897979Y-70152773D01*
X108946700Y-70204414D01*
X108959767Y-70274198D01*
X108933033Y-70339968D01*
X108916323Y-70356221D01*
X108905508Y-70370711D01*
X108912251Y-70383040D01*
X109687189Y-71157979D01*
X109701132Y-71165592D01*
X109702966Y-71165461D01*
X109709580Y-71161210D01*
X110488994Y-70381795D01*
X110496011Y-70368944D01*
X110488237Y-70358275D01*
X110486655Y-70357025D01*
X110445592Y-70299109D01*
X110442359Y-70228186D01*
X110477983Y-70166774D01*
X110491578Y-70155563D01*
X110507193Y-70144425D01*
X110612243Y-70069494D01*
X110776303Y-69906005D01*
X110911458Y-69717917D01*
X110958641Y-69622450D01*
X111011784Y-69514922D01*
X111011785Y-69514920D01*
X111014078Y-69510280D01*
X111081408Y-69288671D01*
X111111640Y-69059041D01*
X111113327Y-68990000D01*
X111107032Y-68913434D01*
X111094773Y-68764318D01*
X111094772Y-68764312D01*
X111094349Y-68759167D01*
X111037925Y-68534533D01*
X111035866Y-68529797D01*
X110947630Y-68326868D01*
X110947628Y-68326865D01*
X110945570Y-68322131D01*
X110819764Y-68127665D01*
X110663887Y-67956358D01*
X110659836Y-67953159D01*
X110659832Y-67953155D01*
X110487077Y-67816722D01*
X110446014Y-67758805D01*
X110442782Y-67687882D01*
X110478407Y-67626470D01*
X110492001Y-67615261D01*
X110495872Y-67612500D01*
X110612243Y-67529494D01*
X110776303Y-67366005D01*
X110911458Y-67177917D01*
X110958641Y-67082450D01*
X111011784Y-66974922D01*
X111011785Y-66974920D01*
X111014078Y-66970280D01*
X111081408Y-66748671D01*
X111111640Y-66519041D01*
X111113327Y-66450000D01*
X111107032Y-66373434D01*
X111094773Y-66224318D01*
X111094772Y-66224312D01*
X111094349Y-66219167D01*
X111037925Y-65994533D01*
X111035866Y-65989797D01*
X110947630Y-65786868D01*
X110947628Y-65786865D01*
X110945570Y-65782131D01*
X110819764Y-65587665D01*
X110663887Y-65416358D01*
X110659836Y-65413159D01*
X110659832Y-65413155D01*
X110487077Y-65276722D01*
X110446014Y-65218805D01*
X110442782Y-65147882D01*
X110478407Y-65086470D01*
X110492001Y-65075261D01*
X110495872Y-65072500D01*
X110612243Y-64989494D01*
X110776303Y-64826005D01*
X110911458Y-64637917D01*
X110958641Y-64542450D01*
X111011784Y-64434922D01*
X111011785Y-64434920D01*
X111014078Y-64430280D01*
X111081408Y-64208671D01*
X111111640Y-63979041D01*
X111111722Y-63975691D01*
X111113245Y-63913365D01*
X111113245Y-63913361D01*
X111113327Y-63910000D01*
X111099336Y-63739820D01*
X111094773Y-63684318D01*
X111094772Y-63684312D01*
X111094349Y-63679167D01*
X111063013Y-63554412D01*
X111039184Y-63459544D01*
X111039183Y-63459540D01*
X111037925Y-63454533D01*
X111035866Y-63449797D01*
X110947630Y-63246868D01*
X110947628Y-63246865D01*
X110945570Y-63242131D01*
X110819764Y-63047665D01*
X110663887Y-62876358D01*
X110659836Y-62873159D01*
X110659832Y-62873155D01*
X110487077Y-62736722D01*
X110446014Y-62678805D01*
X110442782Y-62607882D01*
X110478407Y-62546470D01*
X110492001Y-62535261D01*
X110495872Y-62532500D01*
X110612243Y-62449494D01*
X110776303Y-62286005D01*
X110911458Y-62097917D01*
X110917970Y-62084742D01*
X111011784Y-61894922D01*
X111011785Y-61894920D01*
X111014078Y-61890280D01*
X111081408Y-61668671D01*
X111111640Y-61439041D01*
X111113327Y-61370000D01*
X111107032Y-61293434D01*
X111094773Y-61144318D01*
X111094772Y-61144312D01*
X111094349Y-61139167D01*
X111041513Y-60928817D01*
X111039184Y-60919544D01*
X111039183Y-60919540D01*
X111037925Y-60914533D01*
X111035866Y-60909797D01*
X110947630Y-60706868D01*
X110947628Y-60706865D01*
X110945570Y-60702131D01*
X110819764Y-60507665D01*
X110663887Y-60336358D01*
X110659836Y-60333159D01*
X110659832Y-60333155D01*
X110487077Y-60196722D01*
X110446014Y-60138805D01*
X110442782Y-60067882D01*
X110478407Y-60006470D01*
X110492001Y-59995261D01*
X110495872Y-59992500D01*
X110612243Y-59909494D01*
X110776303Y-59746005D01*
X110911458Y-59557917D01*
X110958641Y-59462450D01*
X111011784Y-59354922D01*
X111011785Y-59354920D01*
X111014078Y-59350280D01*
X111081408Y-59128671D01*
X111111640Y-58899041D01*
X111113327Y-58830000D01*
X111107032Y-58753434D01*
X111094773Y-58604318D01*
X111094772Y-58604312D01*
X111094349Y-58599167D01*
X111037925Y-58374533D01*
X111035866Y-58369797D01*
X110947630Y-58166868D01*
X110947628Y-58166865D01*
X110945570Y-58162131D01*
X110819764Y-57967665D01*
X110663887Y-57796358D01*
X110659836Y-57793159D01*
X110659832Y-57793155D01*
X110487077Y-57656722D01*
X110446014Y-57598805D01*
X110442782Y-57527882D01*
X110478407Y-57466470D01*
X110492001Y-57455261D01*
X110495872Y-57452500D01*
X110612243Y-57369494D01*
X110776303Y-57206005D01*
X110911458Y-57017917D01*
X110958641Y-56922450D01*
X111011784Y-56814922D01*
X111011785Y-56814920D01*
X111014078Y-56810280D01*
X111081408Y-56588671D01*
X111111640Y-56359041D01*
X111113327Y-56290000D01*
X111107032Y-56213434D01*
X111094773Y-56064318D01*
X111094772Y-56064312D01*
X111094349Y-56059167D01*
X111037925Y-55834533D01*
X111035866Y-55829797D01*
X110947630Y-55626868D01*
X110947628Y-55626865D01*
X110945570Y-55622131D01*
X110819764Y-55427665D01*
X110663887Y-55256358D01*
X110659836Y-55253159D01*
X110659832Y-55253155D01*
X110487077Y-55116722D01*
X110446014Y-55058805D01*
X110442782Y-54987882D01*
X110478407Y-54926470D01*
X110492001Y-54915261D01*
X110495872Y-54912500D01*
X110612243Y-54829494D01*
X110776303Y-54666005D01*
X110911458Y-54477917D01*
X110958641Y-54382450D01*
X111011784Y-54274922D01*
X111011785Y-54274920D01*
X111014078Y-54270280D01*
X111081408Y-54048671D01*
X111111640Y-53819041D01*
X111113327Y-53750000D01*
X111107032Y-53673434D01*
X111094773Y-53524318D01*
X111094772Y-53524312D01*
X111094349Y-53519167D01*
X111037925Y-53294533D01*
X111035866Y-53289797D01*
X110947630Y-53086868D01*
X110947628Y-53086865D01*
X110945570Y-53082131D01*
X110819764Y-52887665D01*
X110663887Y-52716358D01*
X110659836Y-52713159D01*
X110659832Y-52713155D01*
X110487077Y-52576722D01*
X110446014Y-52518805D01*
X110442782Y-52447882D01*
X110478407Y-52386470D01*
X110492001Y-52375261D01*
X110495872Y-52372500D01*
X110612243Y-52289494D01*
X110776303Y-52126005D01*
X110911458Y-51937917D01*
X110958641Y-51842450D01*
X111011784Y-51734922D01*
X111011785Y-51734920D01*
X111014078Y-51730280D01*
X111081408Y-51508671D01*
X111111640Y-51279041D01*
X111113327Y-51210000D01*
X111107032Y-51133434D01*
X111094773Y-50984318D01*
X111094772Y-50984312D01*
X111094349Y-50979167D01*
X111037925Y-50754533D01*
X111035866Y-50749797D01*
X110947630Y-50546868D01*
X110947628Y-50546865D01*
X110945570Y-50542131D01*
X110819764Y-50347665D01*
X110663887Y-50176358D01*
X110659836Y-50173159D01*
X110659832Y-50173155D01*
X110487077Y-50036722D01*
X110446014Y-49978805D01*
X110442782Y-49907882D01*
X110478407Y-49846470D01*
X110492001Y-49835261D01*
X110495872Y-49832500D01*
X110612243Y-49749494D01*
X110776303Y-49586005D01*
X110911458Y-49397917D01*
X110958641Y-49302450D01*
X111011784Y-49194922D01*
X111011785Y-49194920D01*
X111014078Y-49190280D01*
X111081408Y-48968671D01*
X111111640Y-48739041D01*
X111113327Y-48670000D01*
X111107032Y-48593434D01*
X111094773Y-48444318D01*
X111094772Y-48444312D01*
X111094349Y-48439167D01*
X111037925Y-48214533D01*
X111035866Y-48209797D01*
X110947630Y-48006868D01*
X110947628Y-48006865D01*
X110945570Y-48002131D01*
X110819764Y-47807665D01*
X110663887Y-47636358D01*
X110659836Y-47633159D01*
X110659832Y-47633155D01*
X110487077Y-47496722D01*
X110446014Y-47438805D01*
X110442782Y-47367882D01*
X110478407Y-47306470D01*
X110492001Y-47295261D01*
X110495872Y-47292500D01*
X110612243Y-47209494D01*
X110776303Y-47046005D01*
X110911458Y-46857917D01*
X110958641Y-46762450D01*
X111011784Y-46654922D01*
X111011785Y-46654920D01*
X111014078Y-46650280D01*
X111081408Y-46428671D01*
X111111640Y-46199041D01*
X111113327Y-46130000D01*
X111107032Y-46053434D01*
X111094773Y-45904318D01*
X111094772Y-45904312D01*
X111094349Y-45899167D01*
X111037925Y-45674533D01*
X111035866Y-45669797D01*
X110947630Y-45466868D01*
X110947628Y-45466865D01*
X110945570Y-45462131D01*
X110819764Y-45267665D01*
X110663887Y-45096358D01*
X110659836Y-45093159D01*
X110659832Y-45093155D01*
X110487077Y-44956722D01*
X110446014Y-44898805D01*
X110442782Y-44827882D01*
X110478407Y-44766470D01*
X110492001Y-44755261D01*
X110495872Y-44752500D01*
X110612243Y-44669494D01*
X110776303Y-44506005D01*
X110911458Y-44317917D01*
X110958641Y-44222450D01*
X111011784Y-44114922D01*
X111011785Y-44114920D01*
X111014078Y-44110280D01*
X111081408Y-43888671D01*
X111111640Y-43659041D01*
X111113327Y-43590000D01*
X111107032Y-43513434D01*
X111094773Y-43364318D01*
X111094772Y-43364312D01*
X111094349Y-43359167D01*
X111037925Y-43134533D01*
X111035866Y-43129797D01*
X110947630Y-42926868D01*
X110947628Y-42926865D01*
X110945570Y-42922131D01*
X110819764Y-42727665D01*
X110663887Y-42556358D01*
X110659836Y-42553159D01*
X110659832Y-42553155D01*
X110487077Y-42416722D01*
X110446014Y-42358805D01*
X110442782Y-42287882D01*
X110478407Y-42226470D01*
X110492001Y-42215261D01*
X110495872Y-42212500D01*
X110612243Y-42129494D01*
X110776303Y-41966005D01*
X110911458Y-41777917D01*
X110958641Y-41682450D01*
X111011784Y-41574922D01*
X111011785Y-41574920D01*
X111014078Y-41570280D01*
X111081408Y-41348671D01*
X111111640Y-41119041D01*
X111113327Y-41050000D01*
X111107032Y-40973434D01*
X111094773Y-40824318D01*
X111094772Y-40824312D01*
X111094349Y-40819167D01*
X111037925Y-40594533D01*
X111035866Y-40589797D01*
X110947630Y-40386868D01*
X110947628Y-40386865D01*
X110945570Y-40382131D01*
X110819764Y-40187665D01*
X110663887Y-40016358D01*
X110659836Y-40013159D01*
X110659832Y-40013155D01*
X110487077Y-39876722D01*
X110446014Y-39818805D01*
X110442782Y-39747882D01*
X110478407Y-39686470D01*
X110492001Y-39675261D01*
X110495872Y-39672500D01*
X110612243Y-39589494D01*
X110776303Y-39426005D01*
X110911458Y-39237917D01*
X110958641Y-39142450D01*
X111011784Y-39034922D01*
X111011785Y-39034920D01*
X111014078Y-39030280D01*
X111081408Y-38808671D01*
X111111640Y-38579041D01*
X111113327Y-38510000D01*
X111107032Y-38433434D01*
X111094773Y-38284318D01*
X111094772Y-38284312D01*
X111094349Y-38279167D01*
X111037925Y-38054533D01*
X111035866Y-38049797D01*
X110947630Y-37846868D01*
X110947628Y-37846865D01*
X110945570Y-37842131D01*
X110819764Y-37647665D01*
X110663887Y-37476358D01*
X110659836Y-37473159D01*
X110659832Y-37473155D01*
X110486177Y-37336011D01*
X110486172Y-37336008D01*
X110482123Y-37332810D01*
X110477607Y-37330317D01*
X110477604Y-37330315D01*
X110283879Y-37223373D01*
X110283875Y-37223371D01*
X110279355Y-37220876D01*
X110274486Y-37219152D01*
X110274482Y-37219150D01*
X110065903Y-37145288D01*
X110065899Y-37145287D01*
X110061028Y-37143562D01*
X110055935Y-37142655D01*
X110055932Y-37142654D01*
X109838095Y-37103851D01*
X109838089Y-37103850D01*
X109833006Y-37102945D01*
X109760096Y-37102054D01*
X109606581Y-37100179D01*
X109606579Y-37100179D01*
X109601411Y-37100116D01*
X109372464Y-37135150D01*
X109152314Y-37207106D01*
X109147726Y-37209494D01*
X109147722Y-37209496D01*
X109121065Y-37223373D01*
X108946872Y-37314052D01*
X108942739Y-37317155D01*
X108942736Y-37317157D01*
X108917625Y-37336011D01*
X108761655Y-37453117D01*
X108601639Y-37620564D01*
X108598725Y-37624836D01*
X108598724Y-37624837D01*
X108583152Y-37647665D01*
X108471119Y-37811899D01*
X108373602Y-38021981D01*
X108311707Y-38245169D01*
X108287095Y-38475469D01*
X108287392Y-38480622D01*
X108287392Y-38480625D01*
X108293067Y-38579041D01*
X108300427Y-38706697D01*
X108301564Y-38711743D01*
X108301565Y-38711749D01*
X108333741Y-38854523D01*
X108351346Y-38932642D01*
X108353288Y-38937424D01*
X108353289Y-38937428D01*
X108436540Y-39142450D01*
X108438484Y-39147237D01*
X108559501Y-39344719D01*
X108711147Y-39519784D01*
X108889349Y-39667730D01*
X108893819Y-39670342D01*
X108897511Y-39672500D01*
X108946232Y-39724140D01*
X108959301Y-39793924D01*
X108932566Y-39859694D01*
X108909589Y-39882045D01*
X108761655Y-39993117D01*
X108601639Y-40160564D01*
X108598725Y-40164836D01*
X108598724Y-40164837D01*
X108583152Y-40187665D01*
X108471119Y-40351899D01*
X108373602Y-40561981D01*
X108311707Y-40785169D01*
X108287095Y-41015469D01*
X108287392Y-41020622D01*
X108287392Y-41020625D01*
X108293067Y-41119041D01*
X108300427Y-41246697D01*
X108301564Y-41251743D01*
X108301565Y-41251749D01*
X108333741Y-41394523D01*
X108351346Y-41472642D01*
X108353288Y-41477424D01*
X108353289Y-41477428D01*
X108436540Y-41682450D01*
X108438484Y-41687237D01*
X108559501Y-41884719D01*
X108711147Y-42059784D01*
X108889349Y-42207730D01*
X108893819Y-42210342D01*
X108897511Y-42212500D01*
X108946232Y-42264140D01*
X108959301Y-42333924D01*
X108932566Y-42399694D01*
X108909589Y-42422045D01*
X108761655Y-42533117D01*
X108601639Y-42700564D01*
X108598725Y-42704836D01*
X108598724Y-42704837D01*
X108583152Y-42727665D01*
X108471119Y-42891899D01*
X108373602Y-43101981D01*
X108311707Y-43325169D01*
X108287095Y-43555469D01*
X108287392Y-43560622D01*
X108287392Y-43560625D01*
X108293067Y-43659041D01*
X108300427Y-43786697D01*
X108301564Y-43791743D01*
X108301565Y-43791749D01*
X108333741Y-43934523D01*
X108351346Y-44012642D01*
X108353288Y-44017424D01*
X108353289Y-44017428D01*
X108436540Y-44222450D01*
X108438484Y-44227237D01*
X108559501Y-44424719D01*
X108711147Y-44599784D01*
X108889349Y-44747730D01*
X108893819Y-44750342D01*
X108897511Y-44752500D01*
X108946232Y-44804140D01*
X108959301Y-44873924D01*
X108932566Y-44939694D01*
X108909589Y-44962045D01*
X108761655Y-45073117D01*
X108601639Y-45240564D01*
X108598725Y-45244836D01*
X108598724Y-45244837D01*
X108583152Y-45267665D01*
X108471119Y-45431899D01*
X108373602Y-45641981D01*
X108311707Y-45865169D01*
X108287095Y-46095469D01*
X108287392Y-46100622D01*
X108287392Y-46100625D01*
X108293067Y-46199041D01*
X108300427Y-46326697D01*
X108301564Y-46331743D01*
X108301565Y-46331749D01*
X108333741Y-46474523D01*
X108351346Y-46552642D01*
X108353288Y-46557424D01*
X108353289Y-46557428D01*
X108436540Y-46762450D01*
X108438484Y-46767237D01*
X108559501Y-46964719D01*
X108711147Y-47139784D01*
X108889349Y-47287730D01*
X108893819Y-47290342D01*
X108897511Y-47292500D01*
X108946232Y-47344140D01*
X108959301Y-47413924D01*
X108932566Y-47479694D01*
X108909589Y-47502045D01*
X108761655Y-47613117D01*
X108601639Y-47780564D01*
X108598725Y-47784836D01*
X108598724Y-47784837D01*
X108583152Y-47807665D01*
X108471119Y-47971899D01*
X108373602Y-48181981D01*
X108311707Y-48405169D01*
X108287095Y-48635469D01*
X108287392Y-48640622D01*
X108287392Y-48640625D01*
X108293067Y-48739041D01*
X108300427Y-48866697D01*
X108301564Y-48871743D01*
X108301565Y-48871749D01*
X108333741Y-49014523D01*
X108351346Y-49092642D01*
X108353288Y-49097424D01*
X108353289Y-49097428D01*
X108436540Y-49302450D01*
X108438484Y-49307237D01*
X108559501Y-49504719D01*
X108711147Y-49679784D01*
X108889349Y-49827730D01*
X108893819Y-49830342D01*
X108897511Y-49832500D01*
X108946232Y-49884140D01*
X108959301Y-49953924D01*
X108932566Y-50019694D01*
X108909589Y-50042045D01*
X108761655Y-50153117D01*
X108601639Y-50320564D01*
X108598725Y-50324836D01*
X108598724Y-50324837D01*
X108583152Y-50347665D01*
X108471119Y-50511899D01*
X108373602Y-50721981D01*
X108311707Y-50945169D01*
X108287095Y-51175469D01*
X108287392Y-51180622D01*
X108287392Y-51180625D01*
X108293067Y-51279041D01*
X108300427Y-51406697D01*
X108301564Y-51411743D01*
X108301565Y-51411749D01*
X108333741Y-51554523D01*
X108351346Y-51632642D01*
X108353288Y-51637424D01*
X108353289Y-51637428D01*
X108436540Y-51842450D01*
X108438484Y-51847237D01*
X108559501Y-52044719D01*
X108711147Y-52219784D01*
X108889349Y-52367730D01*
X108893819Y-52370342D01*
X108897511Y-52372500D01*
X108946232Y-52424140D01*
X108959301Y-52493924D01*
X108932566Y-52559694D01*
X108909589Y-52582045D01*
X108761655Y-52693117D01*
X108601639Y-52860564D01*
X108598725Y-52864836D01*
X108598724Y-52864837D01*
X108583152Y-52887665D01*
X108471119Y-53051899D01*
X108373602Y-53261981D01*
X108311707Y-53485169D01*
X108287095Y-53715469D01*
X108287392Y-53720622D01*
X108287392Y-53720625D01*
X108293067Y-53819041D01*
X108300427Y-53946697D01*
X108301564Y-53951743D01*
X108301565Y-53951749D01*
X108333741Y-54094523D01*
X108351346Y-54172642D01*
X108353288Y-54177424D01*
X108353289Y-54177428D01*
X108436540Y-54382450D01*
X108438484Y-54387237D01*
X108559501Y-54584719D01*
X108711147Y-54759784D01*
X108889349Y-54907730D01*
X108893819Y-54910342D01*
X108897511Y-54912500D01*
X108946232Y-54964140D01*
X108959301Y-55033924D01*
X108932566Y-55099694D01*
X108909589Y-55122045D01*
X108761655Y-55233117D01*
X108601639Y-55400564D01*
X108598725Y-55404836D01*
X108598724Y-55404837D01*
X108583152Y-55427665D01*
X108471119Y-55591899D01*
X108373602Y-55801981D01*
X108311707Y-56025169D01*
X108287095Y-56255469D01*
X108287392Y-56260622D01*
X108287392Y-56260625D01*
X108293067Y-56359041D01*
X108300427Y-56486697D01*
X108301564Y-56491743D01*
X108301565Y-56491749D01*
X108333741Y-56634523D01*
X108351346Y-56712642D01*
X108353288Y-56717424D01*
X108353289Y-56717428D01*
X108436540Y-56922450D01*
X108438484Y-56927237D01*
X108559501Y-57124719D01*
X108711147Y-57299784D01*
X108889349Y-57447730D01*
X108893819Y-57450342D01*
X108897511Y-57452500D01*
X108946232Y-57504140D01*
X108959301Y-57573924D01*
X108932566Y-57639694D01*
X108909589Y-57662045D01*
X108761655Y-57773117D01*
X108601639Y-57940564D01*
X108598725Y-57944836D01*
X108598724Y-57944837D01*
X108583152Y-57967665D01*
X108471119Y-58131899D01*
X108373602Y-58341981D01*
X108311707Y-58565169D01*
X108287095Y-58795469D01*
X108287392Y-58800622D01*
X108287392Y-58800625D01*
X108293067Y-58899041D01*
X108300427Y-59026697D01*
X108301564Y-59031743D01*
X108301565Y-59031749D01*
X108333741Y-59174523D01*
X108351346Y-59252642D01*
X108353288Y-59257424D01*
X108353289Y-59257428D01*
X108436540Y-59462450D01*
X108438484Y-59467237D01*
X108559501Y-59664719D01*
X108711147Y-59839784D01*
X108889349Y-59987730D01*
X108893819Y-59990342D01*
X108897511Y-59992500D01*
X108946232Y-60044140D01*
X108959301Y-60113924D01*
X108932566Y-60179694D01*
X108909589Y-60202045D01*
X108761655Y-60313117D01*
X108601639Y-60480564D01*
X108598725Y-60484836D01*
X108598724Y-60484837D01*
X108583152Y-60507665D01*
X108471119Y-60671899D01*
X108373602Y-60881981D01*
X108372223Y-60886954D01*
X108372219Y-60886965D01*
X108368959Y-60898718D01*
X108362284Y-60916291D01*
X108362371Y-60916326D01*
X108360720Y-60920408D01*
X108360696Y-60920472D01*
X108358705Y-60924535D01*
X108357320Y-60928817D01*
X108291799Y-61131368D01*
X108291776Y-61131439D01*
X108291729Y-61131586D01*
X108289022Y-61140212D01*
X108288897Y-61140623D01*
X108286137Y-61150018D01*
X108286054Y-61150310D01*
X108286043Y-61150349D01*
X108233577Y-61335469D01*
X108232393Y-61339645D01*
X108229948Y-61348577D01*
X108229900Y-61348760D01*
X108229875Y-61348852D01*
X108185906Y-61515383D01*
X108185562Y-61516659D01*
X108147472Y-61655030D01*
X108145828Y-61660513D01*
X108110345Y-61769755D01*
X108106929Y-61779019D01*
X108069163Y-61870260D01*
X108063833Y-61881525D01*
X108016004Y-61970896D01*
X108009399Y-61981861D01*
X107940063Y-62084742D01*
X107933294Y-62093869D01*
X107830132Y-62220597D01*
X107824099Y-62227481D01*
X107673449Y-62387289D01*
X107673413Y-62387329D01*
X107672443Y-62388358D01*
X107641530Y-62424346D01*
X107641160Y-62424991D01*
X107631086Y-62436944D01*
X106519472Y-63548558D01*
X106513206Y-63554412D01*
X106475340Y-63587444D01*
X106475337Y-63587447D01*
X106469615Y-63592439D01*
X106465248Y-63598653D01*
X106432872Y-63644719D01*
X106428939Y-63650014D01*
X106389524Y-63700282D01*
X106386401Y-63707198D01*
X106385017Y-63709484D01*
X106376643Y-63724165D01*
X106375378Y-63726525D01*
X106371010Y-63732739D01*
X106368250Y-63739818D01*
X106368249Y-63739820D01*
X106347798Y-63792275D01*
X106345247Y-63798344D01*
X106318955Y-63856573D01*
X106317571Y-63864040D01*
X106316770Y-63866595D01*
X106312141Y-63882848D01*
X106311478Y-63885428D01*
X106308718Y-63892509D01*
X106307727Y-63900040D01*
X106307726Y-63900042D01*
X106300379Y-63955852D01*
X106299348Y-63962359D01*
X106287704Y-64025186D01*
X106288141Y-64032766D01*
X106288141Y-64032767D01*
X106291291Y-64087392D01*
X106291500Y-64094646D01*
X106291500Y-81971088D01*
X106291208Y-81979658D01*
X106287275Y-82037352D01*
X104508500Y-82037352D01*
X104508500Y-27634500D01*
X104528502Y-27566379D01*
X104582158Y-27519886D01*
X104634500Y-27508500D01*
X140365500Y-27508500D01*
X140433621Y-27528502D01*
G37*
G04 #@! TD.AperFunction*
M02*
