M48
; DRILL file {KiCad (6.0.11-0)} date 2024 October 21, Monday 12:15:02
; FORMAT={-:-/ absolute / metric / decimal}
; #@! TF.CreationDate,2024-10-21T12:15:02+07:00
; #@! TF.GenerationSoftware,Kicad,Pcbnew,(6.0.11-0)
; #@! TF.FileFunction,Plated,1,2,PTH
FMAT,2
METRIC
; #@! TA.AperFunction,Plated,PTH,ComponentDrill
T1C1.020
%
G90
G05
T1
X109.7Y-38.51
X109.7Y-41.05
X109.7Y-43.59
X109.7Y-46.13
X109.7Y-48.67
X109.7Y-51.21
X109.7Y-53.75
X109.7Y-56.29
X109.7Y-58.83
X109.7Y-61.37
X109.7Y-63.91
X109.7Y-66.45
X109.7Y-68.99
X109.7Y-71.53
X109.7Y-74.07
X119.19Y-33.3
X119.42Y-89.34
X121.96Y-89.34
X124.5Y-89.34
X124.59Y-33.3
X134.95Y-38.51
X134.95Y-41.05
X134.95Y-43.59
X134.95Y-46.13
X134.95Y-48.67
X134.95Y-51.21
X134.95Y-53.75
X134.95Y-56.29
X134.95Y-58.83
X134.95Y-61.37
X134.95Y-63.91
X134.95Y-66.45
X134.95Y-68.99
X134.95Y-71.53
X134.95Y-74.07
T0
M30
