%TF.GenerationSoftware,KiCad,Pcbnew,(6.0.11-0)*%
%TF.CreationDate,2024-10-21T12:15:03+07:00*%
%TF.ProjectId,1,312e6b69-6361-4645-9f70-636258585858,rev?*%
%TF.SameCoordinates,Original*%
%TF.FileFunction,Drillmap*%
%TF.FilePolarity,Positive*%
%FSLAX45Y45*%
G04 Gerber Fmt 4.5, Leading zero omitted, Abs format (unit mm)*
G04 Created by KiCad (PCBNEW (6.0.11-0)) date 2024-10-21 12:15:03*
%MOMM*%
%LPD*%
G01*
G04 APERTURE LIST*
%ADD10C,0.100000*%
%ADD11C,0.200000*%
%ADD12C,0.102000*%
G04 APERTURE END LIST*
D10*
X10400000Y-2700000D02*
X10400000Y-9500000D01*
X10400000Y-9500000D02*
X14100000Y-9500000D01*
X14100000Y-9500000D02*
X14100000Y-2700000D01*
X14100000Y-2700000D02*
X10400000Y-2700000D01*
D11*
D12*
X10919000Y-3800000D02*
X11021000Y-3902000D01*
X11021000Y-3800000D02*
X10919000Y-3902000D01*
X10919000Y-4054000D02*
X11021000Y-4156000D01*
X11021000Y-4054000D02*
X10919000Y-4156000D01*
X10919000Y-4308000D02*
X11021000Y-4410000D01*
X11021000Y-4308000D02*
X10919000Y-4410000D01*
X10919000Y-4562000D02*
X11021000Y-4664000D01*
X11021000Y-4562000D02*
X10919000Y-4664000D01*
X10919000Y-4816000D02*
X11021000Y-4918000D01*
X11021000Y-4816000D02*
X10919000Y-4918000D01*
X10919000Y-5070000D02*
X11021000Y-5172000D01*
X11021000Y-5070000D02*
X10919000Y-5172000D01*
X10919000Y-5324000D02*
X11021000Y-5426000D01*
X11021000Y-5324000D02*
X10919000Y-5426000D01*
X10919000Y-5578000D02*
X11021000Y-5680000D01*
X11021000Y-5578000D02*
X10919000Y-5680000D01*
X10919000Y-5832000D02*
X11021000Y-5934000D01*
X11021000Y-5832000D02*
X10919000Y-5934000D01*
X10919000Y-6086000D02*
X11021000Y-6188000D01*
X11021000Y-6086000D02*
X10919000Y-6188000D01*
X10919000Y-6340000D02*
X11021000Y-6442000D01*
X11021000Y-6340000D02*
X10919000Y-6442000D01*
X10919000Y-6594000D02*
X11021000Y-6696000D01*
X11021000Y-6594000D02*
X10919000Y-6696000D01*
X10919000Y-6848000D02*
X11021000Y-6950000D01*
X11021000Y-6848000D02*
X10919000Y-6950000D01*
X10919000Y-7102000D02*
X11021000Y-7204000D01*
X11021000Y-7102000D02*
X10919000Y-7204000D01*
X10919000Y-7356000D02*
X11021000Y-7458000D01*
X11021000Y-7356000D02*
X10919000Y-7458000D01*
X11868000Y-3279000D02*
X11970000Y-3381000D01*
X11970000Y-3279000D02*
X11868000Y-3381000D01*
X11891000Y-8883000D02*
X11993000Y-8985000D01*
X11993000Y-8883000D02*
X11891000Y-8985000D01*
X12145000Y-8883000D02*
X12247000Y-8985000D01*
X12247000Y-8883000D02*
X12145000Y-8985000D01*
X12399000Y-8883000D02*
X12501000Y-8985000D01*
X12501000Y-8883000D02*
X12399000Y-8985000D01*
X12408000Y-3279000D02*
X12510000Y-3381000D01*
X12510000Y-3279000D02*
X12408000Y-3381000D01*
X13444000Y-3800000D02*
X13546000Y-3902000D01*
X13546000Y-3800000D02*
X13444000Y-3902000D01*
X13444000Y-4054000D02*
X13546000Y-4156000D01*
X13546000Y-4054000D02*
X13444000Y-4156000D01*
X13444000Y-4308000D02*
X13546000Y-4410000D01*
X13546000Y-4308000D02*
X13444000Y-4410000D01*
X13444000Y-4562000D02*
X13546000Y-4664000D01*
X13546000Y-4562000D02*
X13444000Y-4664000D01*
X13444000Y-4816000D02*
X13546000Y-4918000D01*
X13546000Y-4816000D02*
X13444000Y-4918000D01*
X13444000Y-5070000D02*
X13546000Y-5172000D01*
X13546000Y-5070000D02*
X13444000Y-5172000D01*
X13444000Y-5324000D02*
X13546000Y-5426000D01*
X13546000Y-5324000D02*
X13444000Y-5426000D01*
X13444000Y-5578000D02*
X13546000Y-5680000D01*
X13546000Y-5578000D02*
X13444000Y-5680000D01*
X13444000Y-5832000D02*
X13546000Y-5934000D01*
X13546000Y-5832000D02*
X13444000Y-5934000D01*
X13444000Y-6086000D02*
X13546000Y-6188000D01*
X13546000Y-6086000D02*
X13444000Y-6188000D01*
X13444000Y-6340000D02*
X13546000Y-6442000D01*
X13546000Y-6340000D02*
X13444000Y-6442000D01*
X13444000Y-6594000D02*
X13546000Y-6696000D01*
X13546000Y-6594000D02*
X13444000Y-6696000D01*
X13444000Y-6848000D02*
X13546000Y-6950000D01*
X13546000Y-6848000D02*
X13444000Y-6950000D01*
X13444000Y-7102000D02*
X13546000Y-7204000D01*
X13546000Y-7102000D02*
X13444000Y-7204000D01*
X13444000Y-7356000D02*
X13546000Y-7458000D01*
X13546000Y-7356000D02*
X13444000Y-7458000D01*
D11*
X10652619Y-9815476D02*
X10652619Y-9615476D01*
X10700238Y-9615476D01*
X10728810Y-9625000D01*
X10747857Y-9644048D01*
X10757381Y-9663095D01*
X10766905Y-9701190D01*
X10766905Y-9729762D01*
X10757381Y-9767857D01*
X10747857Y-9786905D01*
X10728810Y-9805952D01*
X10700238Y-9815476D01*
X10652619Y-9815476D01*
X10852619Y-9815476D02*
X10852619Y-9682143D01*
X10852619Y-9720238D02*
X10862143Y-9701190D01*
X10871667Y-9691667D01*
X10890714Y-9682143D01*
X10909762Y-9682143D01*
X10976429Y-9815476D02*
X10976429Y-9682143D01*
X10976429Y-9615476D02*
X10966905Y-9625000D01*
X10976429Y-9634524D01*
X10985952Y-9625000D01*
X10976429Y-9615476D01*
X10976429Y-9634524D01*
X11100238Y-9815476D02*
X11081190Y-9805952D01*
X11071667Y-9786905D01*
X11071667Y-9615476D01*
X11205000Y-9815476D02*
X11185952Y-9805952D01*
X11176429Y-9786905D01*
X11176429Y-9615476D01*
X11433571Y-9815476D02*
X11433571Y-9615476D01*
X11500238Y-9758333D01*
X11566905Y-9615476D01*
X11566905Y-9815476D01*
X11747857Y-9815476D02*
X11747857Y-9710714D01*
X11738333Y-9691667D01*
X11719286Y-9682143D01*
X11681190Y-9682143D01*
X11662143Y-9691667D01*
X11747857Y-9805952D02*
X11728809Y-9815476D01*
X11681190Y-9815476D01*
X11662143Y-9805952D01*
X11652619Y-9786905D01*
X11652619Y-9767857D01*
X11662143Y-9748810D01*
X11681190Y-9739286D01*
X11728809Y-9739286D01*
X11747857Y-9729762D01*
X11843095Y-9682143D02*
X11843095Y-9882143D01*
X11843095Y-9691667D02*
X11862143Y-9682143D01*
X11900238Y-9682143D01*
X11919286Y-9691667D01*
X11928809Y-9701190D01*
X11938333Y-9720238D01*
X11938333Y-9777381D01*
X11928809Y-9796429D01*
X11919286Y-9805952D01*
X11900238Y-9815476D01*
X11862143Y-9815476D01*
X11843095Y-9805952D01*
X12024048Y-9796429D02*
X12033571Y-9805952D01*
X12024048Y-9815476D01*
X12014524Y-9805952D01*
X12024048Y-9796429D01*
X12024048Y-9815476D01*
X12024048Y-9691667D02*
X12033571Y-9701190D01*
X12024048Y-9710714D01*
X12014524Y-9701190D01*
X12024048Y-9691667D01*
X12024048Y-9710714D01*
D12*
X10293000Y-10094000D02*
X10395000Y-10196000D01*
X10395000Y-10094000D02*
X10293000Y-10196000D01*
D11*
X10757381Y-10235476D02*
X10643095Y-10235476D01*
X10700238Y-10235476D02*
X10700238Y-10035476D01*
X10681190Y-10064048D01*
X10662143Y-10083095D01*
X10643095Y-10092619D01*
X10843095Y-10216429D02*
X10852619Y-10225952D01*
X10843095Y-10235476D01*
X10833571Y-10225952D01*
X10843095Y-10216429D01*
X10843095Y-10235476D01*
X10976429Y-10035476D02*
X10995476Y-10035476D01*
X11014524Y-10045000D01*
X11024048Y-10054524D01*
X11033571Y-10073571D01*
X11043095Y-10111667D01*
X11043095Y-10159286D01*
X11033571Y-10197381D01*
X11024048Y-10216429D01*
X11014524Y-10225952D01*
X10995476Y-10235476D01*
X10976429Y-10235476D01*
X10957381Y-10225952D01*
X10947857Y-10216429D01*
X10938333Y-10197381D01*
X10928810Y-10159286D01*
X10928810Y-10111667D01*
X10938333Y-10073571D01*
X10947857Y-10054524D01*
X10957381Y-10045000D01*
X10976429Y-10035476D01*
X11119286Y-10054524D02*
X11128810Y-10045000D01*
X11147857Y-10035476D01*
X11195476Y-10035476D01*
X11214524Y-10045000D01*
X11224048Y-10054524D01*
X11233571Y-10073571D01*
X11233571Y-10092619D01*
X11224048Y-10121190D01*
X11109762Y-10235476D01*
X11233571Y-10235476D01*
X11357381Y-10035476D02*
X11376428Y-10035476D01*
X11395476Y-10045000D01*
X11405000Y-10054524D01*
X11414524Y-10073571D01*
X11424048Y-10111667D01*
X11424048Y-10159286D01*
X11414524Y-10197381D01*
X11405000Y-10216429D01*
X11395476Y-10225952D01*
X11376428Y-10235476D01*
X11357381Y-10235476D01*
X11338333Y-10225952D01*
X11328809Y-10216429D01*
X11319286Y-10197381D01*
X11309762Y-10159286D01*
X11309762Y-10111667D01*
X11319286Y-10073571D01*
X11328809Y-10054524D01*
X11338333Y-10045000D01*
X11357381Y-10035476D01*
X11509762Y-10235476D02*
X11509762Y-10102143D01*
X11509762Y-10121190D02*
X11519286Y-10111667D01*
X11538333Y-10102143D01*
X11566905Y-10102143D01*
X11585952Y-10111667D01*
X11595476Y-10130714D01*
X11595476Y-10235476D01*
X11595476Y-10130714D02*
X11605000Y-10111667D01*
X11624048Y-10102143D01*
X11652619Y-10102143D01*
X11671667Y-10111667D01*
X11681190Y-10130714D01*
X11681190Y-10235476D01*
X11776428Y-10235476D02*
X11776428Y-10102143D01*
X11776428Y-10121190D02*
X11785952Y-10111667D01*
X11805000Y-10102143D01*
X11833571Y-10102143D01*
X11852619Y-10111667D01*
X11862143Y-10130714D01*
X11862143Y-10235476D01*
X11862143Y-10130714D02*
X11871667Y-10111667D01*
X11890714Y-10102143D01*
X11919286Y-10102143D01*
X11938333Y-10111667D01*
X11947857Y-10130714D01*
X11947857Y-10235476D01*
X12338333Y-10025952D02*
X12166905Y-10283095D01*
X12595476Y-10035476D02*
X12614524Y-10035476D01*
X12633571Y-10045000D01*
X12643095Y-10054524D01*
X12652619Y-10073571D01*
X12662143Y-10111667D01*
X12662143Y-10159286D01*
X12652619Y-10197381D01*
X12643095Y-10216429D01*
X12633571Y-10225952D01*
X12614524Y-10235476D01*
X12595476Y-10235476D01*
X12576428Y-10225952D01*
X12566905Y-10216429D01*
X12557381Y-10197381D01*
X12547857Y-10159286D01*
X12547857Y-10111667D01*
X12557381Y-10073571D01*
X12566905Y-10054524D01*
X12576428Y-10045000D01*
X12595476Y-10035476D01*
X12747857Y-10216429D02*
X12757381Y-10225952D01*
X12747857Y-10235476D01*
X12738333Y-10225952D01*
X12747857Y-10216429D01*
X12747857Y-10235476D01*
X12881190Y-10035476D02*
X12900238Y-10035476D01*
X12919286Y-10045000D01*
X12928809Y-10054524D01*
X12938333Y-10073571D01*
X12947857Y-10111667D01*
X12947857Y-10159286D01*
X12938333Y-10197381D01*
X12928809Y-10216429D01*
X12919286Y-10225952D01*
X12900238Y-10235476D01*
X12881190Y-10235476D01*
X12862143Y-10225952D01*
X12852619Y-10216429D01*
X12843095Y-10197381D01*
X12833571Y-10159286D01*
X12833571Y-10111667D01*
X12843095Y-10073571D01*
X12852619Y-10054524D01*
X12862143Y-10045000D01*
X12881190Y-10035476D01*
X13119286Y-10102143D02*
X13119286Y-10235476D01*
X13071667Y-10025952D02*
X13024048Y-10168810D01*
X13147857Y-10168810D01*
X13262143Y-10035476D02*
X13281190Y-10035476D01*
X13300238Y-10045000D01*
X13309762Y-10054524D01*
X13319286Y-10073571D01*
X13328809Y-10111667D01*
X13328809Y-10159286D01*
X13319286Y-10197381D01*
X13309762Y-10216429D01*
X13300238Y-10225952D01*
X13281190Y-10235476D01*
X13262143Y-10235476D01*
X13243095Y-10225952D01*
X13233571Y-10216429D01*
X13224048Y-10197381D01*
X13214524Y-10159286D01*
X13214524Y-10111667D01*
X13224048Y-10073571D01*
X13233571Y-10054524D01*
X13243095Y-10045000D01*
X13262143Y-10035476D01*
X13405000Y-10054524D02*
X13414524Y-10045000D01*
X13433571Y-10035476D01*
X13481190Y-10035476D01*
X13500238Y-10045000D01*
X13509762Y-10054524D01*
X13519286Y-10073571D01*
X13519286Y-10092619D01*
X13509762Y-10121190D01*
X13395476Y-10235476D01*
X13519286Y-10235476D01*
X13595476Y-10035476D02*
X13595476Y-10073571D01*
X13671667Y-10035476D02*
X13671667Y-10073571D01*
X13966905Y-10311667D02*
X13957381Y-10302143D01*
X13938333Y-10273571D01*
X13928809Y-10254524D01*
X13919286Y-10225952D01*
X13909762Y-10178333D01*
X13909762Y-10140238D01*
X13919286Y-10092619D01*
X13928809Y-10064048D01*
X13938333Y-10045000D01*
X13957381Y-10016429D01*
X13966905Y-10006905D01*
X14024048Y-10035476D02*
X14147857Y-10035476D01*
X14081190Y-10111667D01*
X14109762Y-10111667D01*
X14128809Y-10121190D01*
X14138333Y-10130714D01*
X14147857Y-10149762D01*
X14147857Y-10197381D01*
X14138333Y-10216429D01*
X14128809Y-10225952D01*
X14109762Y-10235476D01*
X14052619Y-10235476D01*
X14033571Y-10225952D01*
X14024048Y-10216429D01*
X14328809Y-10035476D02*
X14233571Y-10035476D01*
X14224048Y-10130714D01*
X14233571Y-10121190D01*
X14252619Y-10111667D01*
X14300238Y-10111667D01*
X14319286Y-10121190D01*
X14328809Y-10130714D01*
X14338333Y-10149762D01*
X14338333Y-10197381D01*
X14328809Y-10216429D01*
X14319286Y-10225952D01*
X14300238Y-10235476D01*
X14252619Y-10235476D01*
X14233571Y-10225952D01*
X14224048Y-10216429D01*
X14576428Y-10235476D02*
X14576428Y-10035476D01*
X14662143Y-10235476D02*
X14662143Y-10130714D01*
X14652619Y-10111667D01*
X14633571Y-10102143D01*
X14605000Y-10102143D01*
X14585952Y-10111667D01*
X14576428Y-10121190D01*
X14785952Y-10235476D02*
X14766905Y-10225952D01*
X14757381Y-10216429D01*
X14747857Y-10197381D01*
X14747857Y-10140238D01*
X14757381Y-10121190D01*
X14766905Y-10111667D01*
X14785952Y-10102143D01*
X14814524Y-10102143D01*
X14833571Y-10111667D01*
X14843095Y-10121190D01*
X14852619Y-10140238D01*
X14852619Y-10197381D01*
X14843095Y-10216429D01*
X14833571Y-10225952D01*
X14814524Y-10235476D01*
X14785952Y-10235476D01*
X14966905Y-10235476D02*
X14947857Y-10225952D01*
X14938333Y-10206905D01*
X14938333Y-10035476D01*
X15119286Y-10225952D02*
X15100238Y-10235476D01*
X15062143Y-10235476D01*
X15043095Y-10225952D01*
X15033571Y-10206905D01*
X15033571Y-10130714D01*
X15043095Y-10111667D01*
X15062143Y-10102143D01*
X15100238Y-10102143D01*
X15119286Y-10111667D01*
X15128809Y-10130714D01*
X15128809Y-10149762D01*
X15033571Y-10168810D01*
X15205000Y-10225952D02*
X15224048Y-10235476D01*
X15262143Y-10235476D01*
X15281190Y-10225952D01*
X15290714Y-10206905D01*
X15290714Y-10197381D01*
X15281190Y-10178333D01*
X15262143Y-10168810D01*
X15233571Y-10168810D01*
X15214524Y-10159286D01*
X15205000Y-10140238D01*
X15205000Y-10130714D01*
X15214524Y-10111667D01*
X15233571Y-10102143D01*
X15262143Y-10102143D01*
X15281190Y-10111667D01*
X15357381Y-10311667D02*
X15366905Y-10302143D01*
X15385952Y-10273571D01*
X15395476Y-10254524D01*
X15405000Y-10225952D01*
X15414524Y-10178333D01*
X15414524Y-10140238D01*
X15405000Y-10092619D01*
X15395476Y-10064048D01*
X15385952Y-10045000D01*
X15366905Y-10016429D01*
X15357381Y-10006905D01*
M02*
