G04 #@! TF.GenerationSoftware,KiCad,Pcbnew,(6.0.11-0)*
G04 #@! TF.CreationDate,2024-11-12T18:10:11+07:00*
G04 #@! TF.ProjectId,1,312e6b69-6361-4645-9f70-636258585858,rev?*
G04 #@! TF.SameCoordinates,Original*
G04 #@! TF.FileFunction,Copper,L1,Top*
G04 #@! TF.FilePolarity,Positive*
%FSLAX46Y46*%
G04 Gerber Fmt 4.6, Leading zero omitted, Abs format (unit mm)*
G04 Created by KiCad (PCBNEW (6.0.11-0)) date 2024-11-12 18:10:11*
%MOMM*%
%LPD*%
G01*
G04 APERTURE LIST*
G04 #@! TA.AperFunction,ComponentPad*
%ADD10C,1.800000*%
G04 #@! TD*
G04 #@! TA.AperFunction,Conductor*
%ADD11C,0.800000*%
G04 #@! TD*
G04 #@! TA.AperFunction,Conductor*
%ADD12C,0.400000*%
G04 #@! TD*
G04 APERTURE END LIST*
D10*
X119150000Y-31670000D03*
X124500000Y-89340000D03*
X109700000Y-38510000D03*
X124550000Y-31670000D03*
X119420000Y-89340000D03*
X121960000Y-89340000D03*
X109700000Y-41050000D03*
X109700000Y-43590000D03*
X109700000Y-46130000D03*
X109700000Y-48670000D03*
X109700000Y-51210000D03*
X109700000Y-53750000D03*
X109700000Y-56290000D03*
X109700000Y-58830000D03*
X109700000Y-61370000D03*
X109700000Y-63910000D03*
X109700000Y-66450000D03*
X109700000Y-68990000D03*
X109700000Y-71530000D03*
X109700000Y-74070000D03*
X134950000Y-38510000D03*
X134950000Y-41050000D03*
X134950000Y-43590000D03*
X134950000Y-46130000D03*
X134950000Y-48670000D03*
X134950000Y-51210000D03*
X134950000Y-53750000D03*
X134950000Y-56290000D03*
X134950000Y-58830000D03*
X134950000Y-61370000D03*
X134950000Y-63910000D03*
X134950000Y-66450000D03*
X134950000Y-68990000D03*
X134950000Y-71530000D03*
X134950000Y-74070000D03*
D11*
X119190000Y-69810000D02*
X121960000Y-72580000D01*
X119190000Y-69810000D02*
X114930000Y-74070000D01*
X121960000Y-72580000D02*
X121960000Y-89340000D01*
X119190000Y-69810000D02*
X119150000Y-69770000D01*
X114930000Y-74070000D02*
X109700000Y-74070000D01*
X119150000Y-69770000D02*
X119150000Y-31670000D01*
D12*
X107000000Y-50000000D02*
X107000000Y-82000000D01*
X108330000Y-48670000D02*
X107000000Y-50000000D01*
X109700000Y-48670000D02*
X108330000Y-48670000D01*
X107000000Y-82000000D02*
X114340000Y-89340000D01*
X114340000Y-89340000D02*
X119420000Y-89340000D01*
G04 #@! TA.AperFunction,Conductor*
G36*
X122356615Y-86833427D02*
G01*
X122360042Y-86841657D01*
X122361071Y-87129883D01*
X122365632Y-87387979D01*
X122375702Y-87612614D01*
X122393298Y-87812116D01*
X122420440Y-87994813D01*
X122459147Y-88169034D01*
X122511438Y-88343105D01*
X122579331Y-88525354D01*
X122664845Y-88724110D01*
X122664879Y-88724182D01*
X122664882Y-88724189D01*
X122766574Y-88940415D01*
X122766993Y-88949360D01*
X122764419Y-88953504D01*
X121968433Y-89781231D01*
X121960229Y-89784819D01*
X121951567Y-89781231D01*
X121155581Y-88953504D01*
X121152316Y-88945165D01*
X121153426Y-88940415D01*
X121255117Y-88724189D01*
X121255120Y-88724182D01*
X121255154Y-88724110D01*
X121340668Y-88525354D01*
X121408561Y-88343105D01*
X121460852Y-88169034D01*
X121499559Y-87994813D01*
X121526701Y-87812116D01*
X121544297Y-87612614D01*
X121554367Y-87387979D01*
X121558928Y-87129883D01*
X121559958Y-86841657D01*
X121563414Y-86833397D01*
X121571658Y-86830000D01*
X122348342Y-86830000D01*
X122356615Y-86833427D01*
G37*
G04 #@! TD.AperFunction*
G04 #@! TA.AperFunction,Conductor*
G36*
X110099584Y-73263426D02*
G01*
X110315889Y-73365154D01*
X110315989Y-73365197D01*
X110514500Y-73450606D01*
X110514513Y-73450611D01*
X110514645Y-73450668D01*
X110696894Y-73518561D01*
X110870965Y-73570852D01*
X111045186Y-73609559D01*
X111045373Y-73609587D01*
X111045385Y-73609589D01*
X111227727Y-73636678D01*
X111227732Y-73636679D01*
X111227883Y-73636701D01*
X111427385Y-73654297D01*
X111427510Y-73654303D01*
X111427516Y-73654303D01*
X111506574Y-73657847D01*
X111652020Y-73664367D01*
X111910116Y-73668928D01*
X112198343Y-73669958D01*
X112206603Y-73673414D01*
X112210000Y-73681658D01*
X112210000Y-74458342D01*
X112206573Y-74466615D01*
X112198343Y-74470042D01*
X111910116Y-74471071D01*
X111652020Y-74475632D01*
X111506574Y-74482152D01*
X111427516Y-74485696D01*
X111427510Y-74485696D01*
X111427385Y-74485702D01*
X111227883Y-74503298D01*
X111227732Y-74503320D01*
X111227727Y-74503321D01*
X111045385Y-74530410D01*
X111045373Y-74530412D01*
X111045186Y-74530440D01*
X110870965Y-74569147D01*
X110696894Y-74621438D01*
X110514645Y-74689331D01*
X110514513Y-74689388D01*
X110514500Y-74689393D01*
X110327897Y-74769679D01*
X110315889Y-74774845D01*
X110315817Y-74774879D01*
X110315810Y-74774882D01*
X110099585Y-74876574D01*
X110090640Y-74876993D01*
X110086496Y-74874419D01*
X109982952Y-74774845D01*
X109258769Y-74078433D01*
X109255181Y-74070229D01*
X109258769Y-74061567D01*
X110086497Y-73265581D01*
X110094835Y-73262316D01*
X110099584Y-73263426D01*
G37*
G04 #@! TD.AperFunction*
G04 #@! TA.AperFunction,Conductor*
G36*
X119158433Y-31228769D02*
G01*
X119954419Y-32056496D01*
X119957684Y-32064835D01*
X119956574Y-32069584D01*
X119854845Y-32285889D01*
X119769331Y-32484645D01*
X119701438Y-32666894D01*
X119649147Y-32840965D01*
X119610440Y-33015186D01*
X119583298Y-33197883D01*
X119565702Y-33397385D01*
X119555632Y-33622020D01*
X119555631Y-33622100D01*
X119551071Y-33880116D01*
X119550042Y-34168342D01*
X119546586Y-34176603D01*
X119538342Y-34180000D01*
X118761658Y-34180000D01*
X118753385Y-34176573D01*
X118749958Y-34168342D01*
X118748928Y-33880116D01*
X118744368Y-33622100D01*
X118744367Y-33622020D01*
X118734297Y-33397385D01*
X118716701Y-33197883D01*
X118689559Y-33015186D01*
X118650852Y-32840965D01*
X118598561Y-32666894D01*
X118530668Y-32484645D01*
X118445154Y-32285889D01*
X118343426Y-32069585D01*
X118343007Y-32060640D01*
X118345581Y-32056496D01*
X119141567Y-31228769D01*
X119149771Y-31225181D01*
X119158433Y-31228769D01*
G37*
G04 #@! TD.AperFunction*
G04 #@! TA.AperFunction,Conductor*
G36*
X109071168Y-48038035D02*
G01*
X110136662Y-48662187D01*
X110142068Y-48669325D01*
X110140843Y-48678196D01*
X110138859Y-48680714D01*
X109828526Y-48979146D01*
X109313495Y-49474427D01*
X109305156Y-49477692D01*
X109300420Y-49476588D01*
X109119672Y-49391887D01*
X109119658Y-49391881D01*
X109119541Y-49391826D01*
X108943024Y-49318082D01*
X108942852Y-49318024D01*
X108942846Y-49318022D01*
X108776008Y-49262006D01*
X108776002Y-49262004D01*
X108775718Y-49261909D01*
X108775423Y-49261844D01*
X108775420Y-49261843D01*
X108633027Y-49230389D01*
X108615191Y-49226449D01*
X108614782Y-49226419D01*
X108614778Y-49226418D01*
X108553374Y-49221855D01*
X108459013Y-49214843D01*
X108304752Y-49230234D01*
X108304227Y-49230388D01*
X108304224Y-49230389D01*
X108219332Y-49255361D01*
X108149976Y-49275763D01*
X107992254Y-49354571D01*
X107915157Y-49409041D01*
X107829447Y-49469595D01*
X107829443Y-49469598D01*
X107829156Y-49469801D01*
X107828891Y-49470041D01*
X107666502Y-49617119D01*
X107658070Y-49620133D01*
X107650375Y-49616720D01*
X107383894Y-49350239D01*
X107380467Y-49341966D01*
X107384108Y-49333484D01*
X107588156Y-49139629D01*
X107588651Y-49139185D01*
X107777494Y-48979146D01*
X107778032Y-48978716D01*
X107948451Y-48850737D01*
X107948950Y-48850383D01*
X108106186Y-48744696D01*
X108106520Y-48744480D01*
X108208720Y-48680715D01*
X108255858Y-48651304D01*
X108255925Y-48651293D01*
X108255911Y-48651271D01*
X108402531Y-48560885D01*
X108402532Y-48560884D01*
X108402565Y-48560864D01*
X108551484Y-48463632D01*
X108551590Y-48463555D01*
X108551600Y-48463548D01*
X108707701Y-48349941D01*
X108707705Y-48349938D01*
X108707845Y-48349836D01*
X108876826Y-48209739D01*
X109057226Y-48039618D01*
X109065597Y-48036435D01*
X109071168Y-48038035D01*
G37*
G04 #@! TD.AperFunction*
G04 #@! TA.AperFunction,Conductor*
G36*
X119033633Y-88535706D02*
G01*
X119439073Y-88925598D01*
X119673963Y-89151480D01*
X119861231Y-89331567D01*
X119864819Y-89339771D01*
X119861231Y-89348433D01*
X119665525Y-89536634D01*
X119033633Y-90144294D01*
X119025294Y-90147559D01*
X119020325Y-90146343D01*
X118788197Y-90031233D01*
X118788082Y-90031175D01*
X118581438Y-89925861D01*
X118581386Y-89925835D01*
X118397421Y-89833658D01*
X118397309Y-89833606D01*
X118397290Y-89833597D01*
X118226442Y-89754540D01*
X118226443Y-89754540D01*
X118226280Y-89754465D01*
X118226132Y-89754407D01*
X118226119Y-89754401D01*
X118137380Y-89719378D01*
X118057986Y-89688042D01*
X117882560Y-89634176D01*
X117824709Y-89621699D01*
X117690247Y-89592700D01*
X117690236Y-89592698D01*
X117690027Y-89592653D01*
X117591271Y-89579435D01*
X117470573Y-89563280D01*
X117470566Y-89563279D01*
X117470407Y-89563258D01*
X117470244Y-89563247D01*
X117470235Y-89563246D01*
X117213871Y-89545789D01*
X117213724Y-89545779D01*
X117213588Y-89545776D01*
X117213579Y-89545776D01*
X116921477Y-89540218D01*
X116913271Y-89536634D01*
X116910000Y-89528520D01*
X116910000Y-89151480D01*
X116913427Y-89143207D01*
X116921477Y-89139782D01*
X117213579Y-89134223D01*
X117213588Y-89134223D01*
X117213724Y-89134220D01*
X117213871Y-89134210D01*
X117470235Y-89116753D01*
X117470244Y-89116752D01*
X117470407Y-89116741D01*
X117470566Y-89116720D01*
X117470573Y-89116719D01*
X117591271Y-89100564D01*
X117690027Y-89087346D01*
X117690236Y-89087301D01*
X117690247Y-89087299D01*
X117824709Y-89058300D01*
X117882560Y-89045823D01*
X118057986Y-88991957D01*
X118137380Y-88960621D01*
X118226119Y-88925598D01*
X118226132Y-88925592D01*
X118226280Y-88925534D01*
X118241491Y-88918496D01*
X118397290Y-88846402D01*
X118397309Y-88846393D01*
X118397421Y-88846341D01*
X118581386Y-88754164D01*
X118581438Y-88754138D01*
X118788082Y-88648824D01*
X118788197Y-88648766D01*
X119020325Y-88533657D01*
X119029259Y-88533052D01*
X119033633Y-88535706D01*
G37*
G04 #@! TD.AperFunction*
G04 #@! TA.AperFunction,Conductor*
G36*
X140433621Y-27528502D02*
G01*
X140480114Y-27582158D01*
X140491500Y-27634500D01*
X140491500Y-94365500D01*
X140471498Y-94433621D01*
X140417842Y-94480114D01*
X140365500Y-94491500D01*
X104634500Y-94491500D01*
X104566379Y-94471498D01*
X104519886Y-94417842D01*
X104508500Y-94365500D01*
X104508500Y-82037352D01*
X106287275Y-82037352D01*
X106288580Y-82044829D01*
X106288580Y-82044830D01*
X106298261Y-82100299D01*
X106299223Y-82106821D01*
X106306898Y-82170242D01*
X106309581Y-82177343D01*
X106310222Y-82179952D01*
X106314685Y-82196262D01*
X106315450Y-82198798D01*
X106316757Y-82206284D01*
X106319811Y-82213241D01*
X106342442Y-82264795D01*
X106344933Y-82270899D01*
X106367513Y-82330656D01*
X106371817Y-82336919D01*
X106373054Y-82339285D01*
X106381299Y-82354097D01*
X106382632Y-82356351D01*
X106385685Y-82363305D01*
X106390307Y-82369328D01*
X106424579Y-82413991D01*
X106428459Y-82419332D01*
X106460339Y-82465720D01*
X106460344Y-82465725D01*
X106464643Y-82471981D01*
X106470313Y-82477032D01*
X106470314Y-82477034D01*
X106511170Y-82513435D01*
X106516446Y-82518416D01*
X113818550Y-89820520D01*
X113824404Y-89826785D01*
X113862439Y-89870385D01*
X113868657Y-89874755D01*
X113914697Y-89907112D01*
X113919993Y-89911045D01*
X113970282Y-89950477D01*
X113977204Y-89953602D01*
X113979452Y-89954964D01*
X113994185Y-89963368D01*
X113996524Y-89964622D01*
X114002739Y-89968990D01*
X114009815Y-89971749D01*
X114009819Y-89971751D01*
X114062274Y-89992202D01*
X114068352Y-89994757D01*
X114126574Y-90021045D01*
X114134045Y-90022429D01*
X114136599Y-90023230D01*
X114152878Y-90027867D01*
X114155433Y-90028523D01*
X114162509Y-90031282D01*
X114190962Y-90035028D01*
X114225851Y-90039621D01*
X114232367Y-90040653D01*
X114274706Y-90048500D01*
X114295187Y-90052296D01*
X114302767Y-90051859D01*
X114302768Y-90051859D01*
X114357398Y-90048709D01*
X114364651Y-90048500D01*
X116870097Y-90048500D01*
X116890396Y-90050146D01*
X116895090Y-90050912D01*
X116907277Y-90052902D01*
X116907282Y-90052902D01*
X116911708Y-90053625D01*
X116916195Y-90053710D01*
X116916202Y-90053711D01*
X117114468Y-90057484D01*
X117188289Y-90058888D01*
X117194438Y-90059156D01*
X117292227Y-90065814D01*
X117414774Y-90074159D01*
X117422929Y-90074982D01*
X117506714Y-90086196D01*
X117596743Y-90098246D01*
X117606576Y-90099961D01*
X117747555Y-90130366D01*
X117757975Y-90133084D01*
X117883411Y-90171601D01*
X117892683Y-90174848D01*
X118020656Y-90225357D01*
X118027312Y-90228208D01*
X118172792Y-90295527D01*
X118176285Y-90297210D01*
X118250007Y-90334148D01*
X118349302Y-90383901D01*
X118350071Y-90384289D01*
X118549099Y-90485721D01*
X118554917Y-90488686D01*
X118559950Y-90491216D01*
X118690264Y-90555838D01*
X118789089Y-90604845D01*
X118789093Y-90604847D01*
X118792193Y-90606384D01*
X118795390Y-90607552D01*
X118800105Y-90609935D01*
X118800197Y-90609743D01*
X118804861Y-90611977D01*
X118809322Y-90614584D01*
X119025694Y-90697209D01*
X119030760Y-90698240D01*
X119030761Y-90698240D01*
X119083846Y-90709040D01*
X119252656Y-90743385D01*
X119383324Y-90748176D01*
X119478949Y-90751683D01*
X119478953Y-90751683D01*
X119484113Y-90751872D01*
X119489233Y-90751216D01*
X119489235Y-90751216D01*
X119562291Y-90741857D01*
X119713847Y-90722442D01*
X119718795Y-90720957D01*
X119718802Y-90720956D01*
X119930747Y-90657369D01*
X119935690Y-90655886D01*
X120016236Y-90616427D01*
X120139049Y-90556262D01*
X120139052Y-90556260D01*
X120143684Y-90553991D01*
X120332243Y-90419494D01*
X120496303Y-90256005D01*
X120499319Y-90251808D01*
X120499326Y-90251800D01*
X120586960Y-90129844D01*
X120642954Y-90086196D01*
X120713658Y-90079750D01*
X120776622Y-90112553D01*
X120796715Y-90137536D01*
X120816800Y-90170313D01*
X120816806Y-90170321D01*
X120819501Y-90174719D01*
X120971147Y-90349784D01*
X121149349Y-90497730D01*
X121349322Y-90614584D01*
X121565694Y-90697209D01*
X121570760Y-90698240D01*
X121570761Y-90698240D01*
X121623846Y-90709040D01*
X121792656Y-90743385D01*
X121923324Y-90748176D01*
X122018949Y-90751683D01*
X122018953Y-90751683D01*
X122024113Y-90751872D01*
X122029233Y-90751216D01*
X122029235Y-90751216D01*
X122102291Y-90741857D01*
X122253847Y-90722442D01*
X122258795Y-90720957D01*
X122258802Y-90720956D01*
X122470747Y-90657369D01*
X122475690Y-90655886D01*
X122556236Y-90616427D01*
X122679049Y-90556262D01*
X122679052Y-90556260D01*
X122683684Y-90553991D01*
X122757406Y-90501406D01*
X123703423Y-90501406D01*
X123708704Y-90508461D01*
X123885080Y-90611527D01*
X123894363Y-90615974D01*
X124101003Y-90694883D01*
X124110901Y-90697759D01*
X124327653Y-90741857D01*
X124337883Y-90743076D01*
X124558914Y-90751182D01*
X124569223Y-90750714D01*
X124788623Y-90722608D01*
X124798688Y-90720468D01*
X125010557Y-90656905D01*
X125020152Y-90653144D01*
X125218778Y-90555838D01*
X125227636Y-90550559D01*
X125285097Y-90509572D01*
X125293497Y-90498874D01*
X125286510Y-90485721D01*
X124512811Y-89712021D01*
X124498868Y-89704408D01*
X124497034Y-89704539D01*
X124490420Y-89708790D01*
X123710180Y-90489031D01*
X123703423Y-90501406D01*
X122757406Y-90501406D01*
X122872243Y-90419494D01*
X123036303Y-90256005D01*
X123127275Y-90129404D01*
X123183270Y-90085756D01*
X123253973Y-90079310D01*
X123316938Y-90112113D01*
X123322142Y-90118584D01*
X123340553Y-90135242D01*
X123349331Y-90131458D01*
X124127979Y-89352811D01*
X124134356Y-89341132D01*
X124864408Y-89341132D01*
X124864539Y-89342966D01*
X124868790Y-89349580D01*
X125646307Y-90127096D01*
X125658313Y-90133652D01*
X125670052Y-90124684D01*
X125708010Y-90071859D01*
X125713321Y-90063020D01*
X125811318Y-89864737D01*
X125815117Y-89855142D01*
X125879415Y-89643517D01*
X125881594Y-89633436D01*
X125910702Y-89412338D01*
X125911221Y-89405663D01*
X125912744Y-89343364D01*
X125912550Y-89336646D01*
X125894279Y-89114400D01*
X125892596Y-89104238D01*
X125838710Y-88889708D01*
X125835389Y-88879953D01*
X125747193Y-88677118D01*
X125742315Y-88668020D01*
X125669224Y-88555038D01*
X125658538Y-88545835D01*
X125648973Y-88550238D01*
X124872021Y-89327189D01*
X124864408Y-89341132D01*
X124134356Y-89341132D01*
X124135592Y-89338868D01*
X124135461Y-89337034D01*
X124131210Y-89330420D01*
X123353862Y-88553073D01*
X123342330Y-88546776D01*
X123325449Y-88560002D01*
X123259490Y-88586268D01*
X123189801Y-88572705D01*
X123138508Y-88523618D01*
X123132000Y-88510615D01*
X123129334Y-88504418D01*
X123057303Y-88336999D01*
X123054979Y-88331204D01*
X123041807Y-88295844D01*
X123003509Y-88193040D01*
X122999869Y-88183268D01*
X122999010Y-88180711D01*
X123705508Y-88180711D01*
X123712251Y-88193040D01*
X124487189Y-88967979D01*
X124501132Y-88975592D01*
X124502966Y-88975461D01*
X124509580Y-88971210D01*
X125288994Y-88191795D01*
X125296011Y-88178944D01*
X125288237Y-88168274D01*
X125285902Y-88166430D01*
X125277320Y-88160729D01*
X125083678Y-88053833D01*
X125074272Y-88049606D01*
X124865772Y-87975772D01*
X124855809Y-87973140D01*
X124638047Y-87934350D01*
X124627796Y-87933381D01*
X124406616Y-87930679D01*
X124396332Y-87931399D01*
X124177693Y-87964855D01*
X124167666Y-87967244D01*
X123957426Y-88035961D01*
X123947916Y-88039958D01*
X123751725Y-88142089D01*
X123743007Y-88147578D01*
X123713961Y-88169386D01*
X123705508Y-88180711D01*
X122999010Y-88180711D01*
X122997269Y-88175533D01*
X122957672Y-88043718D01*
X122955344Y-88034796D01*
X122939805Y-87964855D01*
X122926649Y-87905643D01*
X122925020Y-87896840D01*
X122904021Y-87755492D01*
X122903140Y-87748046D01*
X122888430Y-87581267D01*
X122888069Y-87575840D01*
X122879004Y-87373621D01*
X122878898Y-87370204D01*
X122874571Y-87125335D01*
X122874552Y-87123559D01*
X122873545Y-86841479D01*
X122873545Y-86841476D01*
X122873539Y-86839824D01*
X122873289Y-86835377D01*
X122870843Y-86791970D01*
X122870843Y-86791969D01*
X122870496Y-86785813D01*
X122869701Y-86782722D01*
X122868500Y-86767155D01*
X122868500Y-74035469D01*
X133537095Y-74035469D01*
X133537392Y-74040622D01*
X133537392Y-74040625D01*
X133543067Y-74139041D01*
X133550427Y-74266697D01*
X133551564Y-74271743D01*
X133551565Y-74271749D01*
X133583741Y-74414523D01*
X133601346Y-74492642D01*
X133603288Y-74497424D01*
X133603289Y-74497428D01*
X133677933Y-74681253D01*
X133688484Y-74707237D01*
X133809501Y-74904719D01*
X133961147Y-75079784D01*
X134139349Y-75227730D01*
X134339322Y-75344584D01*
X134344147Y-75346426D01*
X134344148Y-75346427D01*
X134354717Y-75350463D01*
X134555694Y-75427209D01*
X134560760Y-75428240D01*
X134560761Y-75428240D01*
X134613846Y-75439040D01*
X134782656Y-75473385D01*
X134913324Y-75478176D01*
X135008949Y-75481683D01*
X135008953Y-75481683D01*
X135014113Y-75481872D01*
X135019233Y-75481216D01*
X135019235Y-75481216D01*
X135092270Y-75471860D01*
X135243847Y-75452442D01*
X135248795Y-75450957D01*
X135248802Y-75450956D01*
X135460747Y-75387369D01*
X135465690Y-75385886D01*
X135528996Y-75354873D01*
X135669049Y-75286262D01*
X135669052Y-75286260D01*
X135673684Y-75283991D01*
X135862243Y-75149494D01*
X136026303Y-74986005D01*
X136029742Y-74981220D01*
X136070472Y-74924537D01*
X136161458Y-74797917D01*
X136179670Y-74761069D01*
X136261784Y-74594922D01*
X136261785Y-74594920D01*
X136264078Y-74590280D01*
X136331408Y-74368671D01*
X136361640Y-74139041D01*
X136363327Y-74070000D01*
X136357032Y-73993434D01*
X136344773Y-73844318D01*
X136344772Y-73844312D01*
X136344349Y-73839167D01*
X136287925Y-73614533D01*
X136285866Y-73609797D01*
X136197630Y-73406868D01*
X136197628Y-73406865D01*
X136195570Y-73402131D01*
X136069764Y-73207665D01*
X136023158Y-73156445D01*
X135976327Y-73104979D01*
X135913887Y-73036358D01*
X135909836Y-73033159D01*
X135909832Y-73033155D01*
X135736669Y-72896400D01*
X135695606Y-72838483D01*
X135692374Y-72767560D01*
X135727999Y-72706148D01*
X135733487Y-72701623D01*
X135743497Y-72688874D01*
X135736510Y-72675721D01*
X134962811Y-71902021D01*
X134948868Y-71894408D01*
X134947034Y-71894539D01*
X134940420Y-71898790D01*
X134160180Y-72679031D01*
X134153423Y-72691406D01*
X134172730Y-72717197D01*
X134172040Y-72717713D01*
X134196627Y-72743737D01*
X134209743Y-72813511D01*
X134183055Y-72879300D01*
X134160023Y-72901719D01*
X134053472Y-72981720D01*
X134011655Y-73013117D01*
X134008083Y-73016855D01*
X133875660Y-73155428D01*
X133851639Y-73180564D01*
X133848725Y-73184836D01*
X133848724Y-73184837D01*
X133833152Y-73207665D01*
X133721119Y-73371899D01*
X133623602Y-73581981D01*
X133561707Y-73805169D01*
X133537095Y-74035469D01*
X122868500Y-74035469D01*
X122868500Y-72661417D01*
X122870051Y-72641707D01*
X122871220Y-72634327D01*
X122871220Y-72634326D01*
X122872252Y-72627810D01*
X122868673Y-72559520D01*
X122868500Y-72552926D01*
X122868500Y-72532390D01*
X122868156Y-72529116D01*
X122866353Y-72511958D01*
X122865836Y-72505384D01*
X122862603Y-72443696D01*
X122862603Y-72443694D01*
X122862257Y-72437097D01*
X122858615Y-72423504D01*
X122855014Y-72404075D01*
X122854232Y-72396639D01*
X122853542Y-72390072D01*
X122832407Y-72325025D01*
X122830535Y-72318706D01*
X122814538Y-72259003D01*
X122814537Y-72259000D01*
X122812830Y-72252630D01*
X122806438Y-72240085D01*
X122798874Y-72221823D01*
X122796568Y-72214726D01*
X122794527Y-72208444D01*
X122773152Y-72171421D01*
X122760336Y-72149223D01*
X122757188Y-72143426D01*
X122729126Y-72088351D01*
X122729124Y-72088348D01*
X122726129Y-72082470D01*
X122717273Y-72071533D01*
X122706073Y-72055237D01*
X122702343Y-72048776D01*
X122702340Y-72048772D01*
X122699040Y-72043056D01*
X122694623Y-72038150D01*
X122694619Y-72038145D01*
X122653278Y-71992231D01*
X122648994Y-71987216D01*
X122638148Y-71973823D01*
X122636072Y-71971259D01*
X122621557Y-71956744D01*
X122617016Y-71951959D01*
X122575673Y-71906043D01*
X122571253Y-71901134D01*
X122559865Y-71892860D01*
X122544832Y-71880019D01*
X122165451Y-71500638D01*
X133537893Y-71500638D01*
X133550627Y-71721468D01*
X133552061Y-71731670D01*
X133600685Y-71947439D01*
X133603773Y-71957292D01*
X133686986Y-72162220D01*
X133691634Y-72171421D01*
X133780097Y-72315781D01*
X133790553Y-72325242D01*
X133799331Y-72321458D01*
X134577979Y-71542811D01*
X134584356Y-71531132D01*
X135314408Y-71531132D01*
X135314539Y-71532966D01*
X135318790Y-71539580D01*
X136096307Y-72317096D01*
X136108313Y-72323652D01*
X136120052Y-72314684D01*
X136158010Y-72261859D01*
X136163321Y-72253020D01*
X136261318Y-72054737D01*
X136265117Y-72045142D01*
X136329415Y-71833517D01*
X136331594Y-71823436D01*
X136360702Y-71602338D01*
X136361221Y-71595663D01*
X136362744Y-71533364D01*
X136362550Y-71526646D01*
X136344279Y-71304400D01*
X136342596Y-71294238D01*
X136288710Y-71079708D01*
X136285389Y-71069953D01*
X136197193Y-70867118D01*
X136192315Y-70858020D01*
X136119224Y-70745038D01*
X136108538Y-70735835D01*
X136098973Y-70740238D01*
X135322021Y-71517189D01*
X135314408Y-71531132D01*
X134584356Y-71531132D01*
X134585592Y-71528868D01*
X134585461Y-71527034D01*
X134581210Y-71520420D01*
X133803862Y-70743073D01*
X133792330Y-70736776D01*
X133780048Y-70746399D01*
X133724467Y-70827877D01*
X133719379Y-70836833D01*
X133626252Y-71037459D01*
X133622689Y-71047146D01*
X133563581Y-71260280D01*
X133561650Y-71270400D01*
X133538145Y-71490349D01*
X133537893Y-71500638D01*
X122165451Y-71500638D01*
X120095405Y-69430592D01*
X120061379Y-69368280D01*
X120058500Y-69341497D01*
X120058500Y-68955469D01*
X133537095Y-68955469D01*
X133537392Y-68960622D01*
X133537392Y-68960625D01*
X133543067Y-69059041D01*
X133550427Y-69186697D01*
X133551564Y-69191743D01*
X133551565Y-69191749D01*
X133583741Y-69334523D01*
X133601346Y-69412642D01*
X133603288Y-69417424D01*
X133603289Y-69417428D01*
X133686540Y-69622450D01*
X133688484Y-69627237D01*
X133809501Y-69824719D01*
X133961147Y-69999784D01*
X134139349Y-70147730D01*
X134143814Y-70150339D01*
X134147979Y-70152773D01*
X134196700Y-70204414D01*
X134209767Y-70274198D01*
X134183033Y-70339968D01*
X134166323Y-70356221D01*
X134155508Y-70370711D01*
X134162251Y-70383040D01*
X134937189Y-71157979D01*
X134951132Y-71165592D01*
X134952966Y-71165461D01*
X134959580Y-71161210D01*
X135738994Y-70381795D01*
X135746011Y-70368944D01*
X135738237Y-70358275D01*
X135736655Y-70357025D01*
X135695592Y-70299109D01*
X135692359Y-70228186D01*
X135727983Y-70166774D01*
X135741578Y-70155563D01*
X135757193Y-70144425D01*
X135862243Y-70069494D01*
X136026303Y-69906005D01*
X136161458Y-69717917D01*
X136208641Y-69622450D01*
X136261784Y-69514922D01*
X136261785Y-69514920D01*
X136264078Y-69510280D01*
X136331408Y-69288671D01*
X136361640Y-69059041D01*
X136363327Y-68990000D01*
X136357032Y-68913434D01*
X136344773Y-68764318D01*
X136344772Y-68764312D01*
X136344349Y-68759167D01*
X136287925Y-68534533D01*
X136285866Y-68529797D01*
X136197630Y-68326868D01*
X136197628Y-68326865D01*
X136195570Y-68322131D01*
X136069764Y-68127665D01*
X135913887Y-67956358D01*
X135909836Y-67953159D01*
X135909832Y-67953155D01*
X135737077Y-67816722D01*
X135696014Y-67758805D01*
X135692782Y-67687882D01*
X135728407Y-67626470D01*
X135742001Y-67615261D01*
X135745872Y-67612500D01*
X135862243Y-67529494D01*
X136026303Y-67366005D01*
X136161458Y-67177917D01*
X136208641Y-67082450D01*
X136261784Y-66974922D01*
X136261785Y-66974920D01*
X136264078Y-66970280D01*
X136331408Y-66748671D01*
X136361640Y-66519041D01*
X136363327Y-66450000D01*
X136357032Y-66373434D01*
X136344773Y-66224318D01*
X136344772Y-66224312D01*
X136344349Y-66219167D01*
X136287925Y-65994533D01*
X136285866Y-65989797D01*
X136197630Y-65786868D01*
X136197628Y-65786865D01*
X136195570Y-65782131D01*
X136069764Y-65587665D01*
X135913887Y-65416358D01*
X135909836Y-65413159D01*
X135909832Y-65413155D01*
X135737077Y-65276722D01*
X135696014Y-65218805D01*
X135692782Y-65147882D01*
X135728407Y-65086470D01*
X135742001Y-65075261D01*
X135745872Y-65072500D01*
X135862243Y-64989494D01*
X136026303Y-64826005D01*
X136161458Y-64637917D01*
X136208641Y-64542450D01*
X136261784Y-64434922D01*
X136261785Y-64434920D01*
X136264078Y-64430280D01*
X136331408Y-64208671D01*
X136361640Y-63979041D01*
X136363327Y-63910000D01*
X136357032Y-63833434D01*
X136344773Y-63684318D01*
X136344772Y-63684312D01*
X136344349Y-63679167D01*
X136287925Y-63454533D01*
X136285866Y-63449797D01*
X136197630Y-63246868D01*
X136197628Y-63246865D01*
X136195570Y-63242131D01*
X136069764Y-63047665D01*
X135913887Y-62876358D01*
X135909836Y-62873159D01*
X135909832Y-62873155D01*
X135737077Y-62736722D01*
X135696014Y-62678805D01*
X135692782Y-62607882D01*
X135728407Y-62546470D01*
X135742001Y-62535261D01*
X135745872Y-62532500D01*
X135862243Y-62449494D01*
X136026303Y-62286005D01*
X136161458Y-62097917D01*
X136208641Y-62002450D01*
X136261784Y-61894922D01*
X136261785Y-61894920D01*
X136264078Y-61890280D01*
X136331408Y-61668671D01*
X136361640Y-61439041D01*
X136363327Y-61370000D01*
X136357032Y-61293434D01*
X136344773Y-61144318D01*
X136344772Y-61144312D01*
X136344349Y-61139167D01*
X136287925Y-60914533D01*
X136285866Y-60909797D01*
X136197630Y-60706868D01*
X136197628Y-60706865D01*
X136195570Y-60702131D01*
X136069764Y-60507665D01*
X135913887Y-60336358D01*
X135909836Y-60333159D01*
X135909832Y-60333155D01*
X135737077Y-60196722D01*
X135696014Y-60138805D01*
X135692782Y-60067882D01*
X135728407Y-60006470D01*
X135742001Y-59995261D01*
X135745872Y-59992500D01*
X135862243Y-59909494D01*
X136026303Y-59746005D01*
X136161458Y-59557917D01*
X136208641Y-59462450D01*
X136261784Y-59354922D01*
X136261785Y-59354920D01*
X136264078Y-59350280D01*
X136331408Y-59128671D01*
X136361640Y-58899041D01*
X136363327Y-58830000D01*
X136357032Y-58753434D01*
X136344773Y-58604318D01*
X136344772Y-58604312D01*
X136344349Y-58599167D01*
X136287925Y-58374533D01*
X136285866Y-58369797D01*
X136197630Y-58166868D01*
X136197628Y-58166865D01*
X136195570Y-58162131D01*
X136069764Y-57967665D01*
X135913887Y-57796358D01*
X135909836Y-57793159D01*
X135909832Y-57793155D01*
X135737077Y-57656722D01*
X135696014Y-57598805D01*
X135692782Y-57527882D01*
X135728407Y-57466470D01*
X135742001Y-57455261D01*
X135745872Y-57452500D01*
X135862243Y-57369494D01*
X136026303Y-57206005D01*
X136161458Y-57017917D01*
X136208641Y-56922450D01*
X136261784Y-56814922D01*
X136261785Y-56814920D01*
X136264078Y-56810280D01*
X136331408Y-56588671D01*
X136361640Y-56359041D01*
X136363327Y-56290000D01*
X136357032Y-56213434D01*
X136344773Y-56064318D01*
X136344772Y-56064312D01*
X136344349Y-56059167D01*
X136287925Y-55834533D01*
X136285866Y-55829797D01*
X136197630Y-55626868D01*
X136197628Y-55626865D01*
X136195570Y-55622131D01*
X136069764Y-55427665D01*
X135913887Y-55256358D01*
X135909836Y-55253159D01*
X135909832Y-55253155D01*
X135737077Y-55116722D01*
X135696014Y-55058805D01*
X135692782Y-54987882D01*
X135728407Y-54926470D01*
X135742001Y-54915261D01*
X135745872Y-54912500D01*
X135862243Y-54829494D01*
X136026303Y-54666005D01*
X136161458Y-54477917D01*
X136208641Y-54382450D01*
X136261784Y-54274922D01*
X136261785Y-54274920D01*
X136264078Y-54270280D01*
X136331408Y-54048671D01*
X136361640Y-53819041D01*
X136363327Y-53750000D01*
X136357032Y-53673434D01*
X136344773Y-53524318D01*
X136344772Y-53524312D01*
X136344349Y-53519167D01*
X136287925Y-53294533D01*
X136285866Y-53289797D01*
X136197630Y-53086868D01*
X136197628Y-53086865D01*
X136195570Y-53082131D01*
X136069764Y-52887665D01*
X135913887Y-52716358D01*
X135909836Y-52713159D01*
X135909832Y-52713155D01*
X135737077Y-52576722D01*
X135696014Y-52518805D01*
X135692782Y-52447882D01*
X135728407Y-52386470D01*
X135742001Y-52375261D01*
X135745872Y-52372500D01*
X135862243Y-52289494D01*
X136026303Y-52126005D01*
X136161458Y-51937917D01*
X136208641Y-51842450D01*
X136261784Y-51734922D01*
X136261785Y-51734920D01*
X136264078Y-51730280D01*
X136331408Y-51508671D01*
X136361640Y-51279041D01*
X136363327Y-51210000D01*
X136357032Y-51133434D01*
X136344773Y-50984318D01*
X136344772Y-50984312D01*
X136344349Y-50979167D01*
X136287925Y-50754533D01*
X136285866Y-50749797D01*
X136197630Y-50546868D01*
X136197628Y-50546865D01*
X136195570Y-50542131D01*
X136069764Y-50347665D01*
X135913887Y-50176358D01*
X135909836Y-50173159D01*
X135909832Y-50173155D01*
X135737077Y-50036722D01*
X135696014Y-49978805D01*
X135692782Y-49907882D01*
X135728407Y-49846470D01*
X135742001Y-49835261D01*
X135745872Y-49832500D01*
X135862243Y-49749494D01*
X136026303Y-49586005D01*
X136032479Y-49577411D01*
X136087875Y-49500318D01*
X136161458Y-49397917D01*
X136208641Y-49302450D01*
X136261784Y-49194922D01*
X136261785Y-49194920D01*
X136264078Y-49190280D01*
X136331408Y-48968671D01*
X136361640Y-48739041D01*
X136363327Y-48670000D01*
X136357032Y-48593434D01*
X136344773Y-48444318D01*
X136344772Y-48444312D01*
X136344349Y-48439167D01*
X136287925Y-48214533D01*
X136285866Y-48209797D01*
X136197630Y-48006868D01*
X136197628Y-48006865D01*
X136195570Y-48002131D01*
X136069764Y-47807665D01*
X135913887Y-47636358D01*
X135909836Y-47633159D01*
X135909832Y-47633155D01*
X135737077Y-47496722D01*
X135696014Y-47438805D01*
X135692782Y-47367882D01*
X135728407Y-47306470D01*
X135742001Y-47295261D01*
X135745872Y-47292500D01*
X135862243Y-47209494D01*
X136026303Y-47046005D01*
X136161458Y-46857917D01*
X136208641Y-46762450D01*
X136261784Y-46654922D01*
X136261785Y-46654920D01*
X136264078Y-46650280D01*
X136331408Y-46428671D01*
X136361640Y-46199041D01*
X136363327Y-46130000D01*
X136357032Y-46053434D01*
X136344773Y-45904318D01*
X136344772Y-45904312D01*
X136344349Y-45899167D01*
X136287925Y-45674533D01*
X136285866Y-45669797D01*
X136197630Y-45466868D01*
X136197628Y-45466865D01*
X136195570Y-45462131D01*
X136069764Y-45267665D01*
X135913887Y-45096358D01*
X135909836Y-45093159D01*
X135909832Y-45093155D01*
X135737077Y-44956722D01*
X135696014Y-44898805D01*
X135692782Y-44827882D01*
X135728407Y-44766470D01*
X135742001Y-44755261D01*
X135745872Y-44752500D01*
X135862243Y-44669494D01*
X136026303Y-44506005D01*
X136161458Y-44317917D01*
X136208641Y-44222450D01*
X136261784Y-44114922D01*
X136261785Y-44114920D01*
X136264078Y-44110280D01*
X136331408Y-43888671D01*
X136361640Y-43659041D01*
X136363327Y-43590000D01*
X136357032Y-43513434D01*
X136344773Y-43364318D01*
X136344772Y-43364312D01*
X136344349Y-43359167D01*
X136287925Y-43134533D01*
X136285866Y-43129797D01*
X136197630Y-42926868D01*
X136197628Y-42926865D01*
X136195570Y-42922131D01*
X136069764Y-42727665D01*
X135913887Y-42556358D01*
X135909836Y-42553159D01*
X135909832Y-42553155D01*
X135737077Y-42416722D01*
X135696014Y-42358805D01*
X135692782Y-42287882D01*
X135728407Y-42226470D01*
X135742001Y-42215261D01*
X135745872Y-42212500D01*
X135862243Y-42129494D01*
X136026303Y-41966005D01*
X136161458Y-41777917D01*
X136208641Y-41682450D01*
X136261784Y-41574922D01*
X136261785Y-41574920D01*
X136264078Y-41570280D01*
X136331408Y-41348671D01*
X136361640Y-41119041D01*
X136363327Y-41050000D01*
X136357032Y-40973434D01*
X136344773Y-40824318D01*
X136344772Y-40824312D01*
X136344349Y-40819167D01*
X136287925Y-40594533D01*
X136285866Y-40589797D01*
X136197630Y-40386868D01*
X136197628Y-40386865D01*
X136195570Y-40382131D01*
X136069764Y-40187665D01*
X135913887Y-40016358D01*
X135909836Y-40013159D01*
X135909832Y-40013155D01*
X135737077Y-39876722D01*
X135696014Y-39818805D01*
X135692782Y-39747882D01*
X135728407Y-39686470D01*
X135742001Y-39675261D01*
X135745872Y-39672500D01*
X135862243Y-39589494D01*
X136026303Y-39426005D01*
X136161458Y-39237917D01*
X136208641Y-39142450D01*
X136261784Y-39034922D01*
X136261785Y-39034920D01*
X136264078Y-39030280D01*
X136331408Y-38808671D01*
X136361640Y-38579041D01*
X136363327Y-38510000D01*
X136357032Y-38433434D01*
X136344773Y-38284318D01*
X136344772Y-38284312D01*
X136344349Y-38279167D01*
X136287925Y-38054533D01*
X136285866Y-38049797D01*
X136197630Y-37846868D01*
X136197628Y-37846865D01*
X136195570Y-37842131D01*
X136069764Y-37647665D01*
X135913887Y-37476358D01*
X135909836Y-37473159D01*
X135909832Y-37473155D01*
X135736177Y-37336011D01*
X135736172Y-37336008D01*
X135732123Y-37332810D01*
X135727607Y-37330317D01*
X135727604Y-37330315D01*
X135533879Y-37223373D01*
X135533875Y-37223371D01*
X135529355Y-37220876D01*
X135524486Y-37219152D01*
X135524482Y-37219150D01*
X135315903Y-37145288D01*
X135315899Y-37145287D01*
X135311028Y-37143562D01*
X135305935Y-37142655D01*
X135305932Y-37142654D01*
X135088095Y-37103851D01*
X135088089Y-37103850D01*
X135083006Y-37102945D01*
X135010096Y-37102054D01*
X134856581Y-37100179D01*
X134856579Y-37100179D01*
X134851411Y-37100116D01*
X134622464Y-37135150D01*
X134402314Y-37207106D01*
X134397726Y-37209494D01*
X134397722Y-37209496D01*
X134371065Y-37223373D01*
X134196872Y-37314052D01*
X134192739Y-37317155D01*
X134192736Y-37317157D01*
X134167625Y-37336011D01*
X134011655Y-37453117D01*
X133851639Y-37620564D01*
X133848725Y-37624836D01*
X133848724Y-37624837D01*
X133833152Y-37647665D01*
X133721119Y-37811899D01*
X133623602Y-38021981D01*
X133561707Y-38245169D01*
X133537095Y-38475469D01*
X133537392Y-38480622D01*
X133537392Y-38480625D01*
X133543067Y-38579041D01*
X133550427Y-38706697D01*
X133551564Y-38711743D01*
X133551565Y-38711749D01*
X133583741Y-38854523D01*
X133601346Y-38932642D01*
X133603288Y-38937424D01*
X133603289Y-38937428D01*
X133686540Y-39142450D01*
X133688484Y-39147237D01*
X133809501Y-39344719D01*
X133961147Y-39519784D01*
X134139349Y-39667730D01*
X134143819Y-39670342D01*
X134147511Y-39672500D01*
X134196232Y-39724140D01*
X134209301Y-39793924D01*
X134182566Y-39859694D01*
X134159589Y-39882045D01*
X134011655Y-39993117D01*
X133851639Y-40160564D01*
X133848725Y-40164836D01*
X133848724Y-40164837D01*
X133833152Y-40187665D01*
X133721119Y-40351899D01*
X133623602Y-40561981D01*
X133561707Y-40785169D01*
X133537095Y-41015469D01*
X133537392Y-41020622D01*
X133537392Y-41020625D01*
X133543067Y-41119041D01*
X133550427Y-41246697D01*
X133551564Y-41251743D01*
X133551565Y-41251749D01*
X133583741Y-41394523D01*
X133601346Y-41472642D01*
X133603288Y-41477424D01*
X133603289Y-41477428D01*
X133686540Y-41682450D01*
X133688484Y-41687237D01*
X133809501Y-41884719D01*
X133961147Y-42059784D01*
X134139349Y-42207730D01*
X134143819Y-42210342D01*
X134147511Y-42212500D01*
X134196232Y-42264140D01*
X134209301Y-42333924D01*
X134182566Y-42399694D01*
X134159589Y-42422045D01*
X134011655Y-42533117D01*
X133851639Y-42700564D01*
X133848725Y-42704836D01*
X133848724Y-42704837D01*
X133833152Y-42727665D01*
X133721119Y-42891899D01*
X133623602Y-43101981D01*
X133561707Y-43325169D01*
X133537095Y-43555469D01*
X133537392Y-43560622D01*
X133537392Y-43560625D01*
X133543067Y-43659041D01*
X133550427Y-43786697D01*
X133551564Y-43791743D01*
X133551565Y-43791749D01*
X133583741Y-43934523D01*
X133601346Y-44012642D01*
X133603288Y-44017424D01*
X133603289Y-44017428D01*
X133686540Y-44222450D01*
X133688484Y-44227237D01*
X133809501Y-44424719D01*
X133961147Y-44599784D01*
X134139349Y-44747730D01*
X134143819Y-44750342D01*
X134147511Y-44752500D01*
X134196232Y-44804140D01*
X134209301Y-44873924D01*
X134182566Y-44939694D01*
X134159589Y-44962045D01*
X134011655Y-45073117D01*
X133851639Y-45240564D01*
X133848725Y-45244836D01*
X133848724Y-45244837D01*
X133833152Y-45267665D01*
X133721119Y-45431899D01*
X133623602Y-45641981D01*
X133561707Y-45865169D01*
X133537095Y-46095469D01*
X133537392Y-46100622D01*
X133537392Y-46100625D01*
X133543067Y-46199041D01*
X133550427Y-46326697D01*
X133551564Y-46331743D01*
X133551565Y-46331749D01*
X133583741Y-46474523D01*
X133601346Y-46552642D01*
X133603288Y-46557424D01*
X133603289Y-46557428D01*
X133686540Y-46762450D01*
X133688484Y-46767237D01*
X133809501Y-46964719D01*
X133961147Y-47139784D01*
X134139349Y-47287730D01*
X134143819Y-47290342D01*
X134147511Y-47292500D01*
X134196232Y-47344140D01*
X134209301Y-47413924D01*
X134182566Y-47479694D01*
X134159589Y-47502045D01*
X134011655Y-47613117D01*
X133851639Y-47780564D01*
X133848725Y-47784836D01*
X133848724Y-47784837D01*
X133833152Y-47807665D01*
X133721119Y-47971899D01*
X133623602Y-48181981D01*
X133561707Y-48405169D01*
X133537095Y-48635469D01*
X133537392Y-48640622D01*
X133537392Y-48640625D01*
X133543067Y-48739041D01*
X133550427Y-48866697D01*
X133551564Y-48871743D01*
X133551565Y-48871749D01*
X133580811Y-49001520D01*
X133601346Y-49092642D01*
X133603288Y-49097424D01*
X133603289Y-49097428D01*
X133686540Y-49302450D01*
X133688484Y-49307237D01*
X133809501Y-49504719D01*
X133961147Y-49679784D01*
X134081434Y-49779648D01*
X134121424Y-49812848D01*
X134139349Y-49827730D01*
X134143819Y-49830342D01*
X134147511Y-49832500D01*
X134196232Y-49884140D01*
X134209301Y-49953924D01*
X134182566Y-50019694D01*
X134159589Y-50042045D01*
X134011655Y-50153117D01*
X134008083Y-50156855D01*
X133877531Y-50293470D01*
X133851639Y-50320564D01*
X133848725Y-50324836D01*
X133848724Y-50324837D01*
X133834520Y-50345660D01*
X133721119Y-50511899D01*
X133623602Y-50721981D01*
X133561707Y-50945169D01*
X133537095Y-51175469D01*
X133537392Y-51180622D01*
X133537392Y-51180625D01*
X133543067Y-51279041D01*
X133550427Y-51406697D01*
X133551564Y-51411743D01*
X133551565Y-51411749D01*
X133583741Y-51554523D01*
X133601346Y-51632642D01*
X133603288Y-51637424D01*
X133603289Y-51637428D01*
X133686540Y-51842450D01*
X133688484Y-51847237D01*
X133809501Y-52044719D01*
X133961147Y-52219784D01*
X134139349Y-52367730D01*
X134143819Y-52370342D01*
X134147511Y-52372500D01*
X134196232Y-52424140D01*
X134209301Y-52493924D01*
X134182566Y-52559694D01*
X134159589Y-52582045D01*
X134011655Y-52693117D01*
X133851639Y-52860564D01*
X133848725Y-52864836D01*
X133848724Y-52864837D01*
X133833152Y-52887665D01*
X133721119Y-53051899D01*
X133623602Y-53261981D01*
X133561707Y-53485169D01*
X133537095Y-53715469D01*
X133537392Y-53720622D01*
X133537392Y-53720625D01*
X133543067Y-53819041D01*
X133550427Y-53946697D01*
X133551564Y-53951743D01*
X133551565Y-53951749D01*
X133583741Y-54094523D01*
X133601346Y-54172642D01*
X133603288Y-54177424D01*
X133603289Y-54177428D01*
X133686540Y-54382450D01*
X133688484Y-54387237D01*
X133809501Y-54584719D01*
X133961147Y-54759784D01*
X134139349Y-54907730D01*
X134143819Y-54910342D01*
X134147511Y-54912500D01*
X134196232Y-54964140D01*
X134209301Y-55033924D01*
X134182566Y-55099694D01*
X134159589Y-55122045D01*
X134011655Y-55233117D01*
X133851639Y-55400564D01*
X133848725Y-55404836D01*
X133848724Y-55404837D01*
X133833152Y-55427665D01*
X133721119Y-55591899D01*
X133623602Y-55801981D01*
X133561707Y-56025169D01*
X133537095Y-56255469D01*
X133537392Y-56260622D01*
X133537392Y-56260625D01*
X133543067Y-56359041D01*
X133550427Y-56486697D01*
X133551564Y-56491743D01*
X133551565Y-56491749D01*
X133583741Y-56634523D01*
X133601346Y-56712642D01*
X133603288Y-56717424D01*
X133603289Y-56717428D01*
X133686540Y-56922450D01*
X133688484Y-56927237D01*
X133809501Y-57124719D01*
X133961147Y-57299784D01*
X134139349Y-57447730D01*
X134143819Y-57450342D01*
X134147511Y-57452500D01*
X134196232Y-57504140D01*
X134209301Y-57573924D01*
X134182566Y-57639694D01*
X134159589Y-57662045D01*
X134011655Y-57773117D01*
X133851639Y-57940564D01*
X133848725Y-57944836D01*
X133848724Y-57944837D01*
X133833152Y-57967665D01*
X133721119Y-58131899D01*
X133623602Y-58341981D01*
X133561707Y-58565169D01*
X133537095Y-58795469D01*
X133537392Y-58800622D01*
X133537392Y-58800625D01*
X133543067Y-58899041D01*
X133550427Y-59026697D01*
X133551564Y-59031743D01*
X133551565Y-59031749D01*
X133583741Y-59174523D01*
X133601346Y-59252642D01*
X133603288Y-59257424D01*
X133603289Y-59257428D01*
X133686540Y-59462450D01*
X133688484Y-59467237D01*
X133809501Y-59664719D01*
X133961147Y-59839784D01*
X134139349Y-59987730D01*
X134143819Y-59990342D01*
X134147511Y-59992500D01*
X134196232Y-60044140D01*
X134209301Y-60113924D01*
X134182566Y-60179694D01*
X134159589Y-60202045D01*
X134011655Y-60313117D01*
X133851639Y-60480564D01*
X133848725Y-60484836D01*
X133848724Y-60484837D01*
X133833152Y-60507665D01*
X133721119Y-60671899D01*
X133623602Y-60881981D01*
X133561707Y-61105169D01*
X133537095Y-61335469D01*
X133537392Y-61340622D01*
X133537392Y-61340625D01*
X133543067Y-61439041D01*
X133550427Y-61566697D01*
X133551564Y-61571743D01*
X133551565Y-61571749D01*
X133583741Y-61714523D01*
X133601346Y-61792642D01*
X133603288Y-61797424D01*
X133603289Y-61797428D01*
X133686540Y-62002450D01*
X133688484Y-62007237D01*
X133809501Y-62204719D01*
X133961147Y-62379784D01*
X134139349Y-62527730D01*
X134143819Y-62530342D01*
X134147511Y-62532500D01*
X134196232Y-62584140D01*
X134209301Y-62653924D01*
X134182566Y-62719694D01*
X134159589Y-62742045D01*
X134011655Y-62853117D01*
X133851639Y-63020564D01*
X133848725Y-63024836D01*
X133848724Y-63024837D01*
X133833152Y-63047665D01*
X133721119Y-63211899D01*
X133623602Y-63421981D01*
X133561707Y-63645169D01*
X133537095Y-63875469D01*
X133537392Y-63880622D01*
X133537392Y-63880625D01*
X133543067Y-63979041D01*
X133550427Y-64106697D01*
X133551564Y-64111743D01*
X133551565Y-64111749D01*
X133583741Y-64254523D01*
X133601346Y-64332642D01*
X133603288Y-64337424D01*
X133603289Y-64337428D01*
X133686540Y-64542450D01*
X133688484Y-64547237D01*
X133809501Y-64744719D01*
X133961147Y-64919784D01*
X134139349Y-65067730D01*
X134143819Y-65070342D01*
X134147511Y-65072500D01*
X134196232Y-65124140D01*
X134209301Y-65193924D01*
X134182566Y-65259694D01*
X134159589Y-65282045D01*
X134011655Y-65393117D01*
X133851639Y-65560564D01*
X133848725Y-65564836D01*
X133848724Y-65564837D01*
X133833152Y-65587665D01*
X133721119Y-65751899D01*
X133623602Y-65961981D01*
X133561707Y-66185169D01*
X133537095Y-66415469D01*
X133537392Y-66420622D01*
X133537392Y-66420625D01*
X133543067Y-66519041D01*
X133550427Y-66646697D01*
X133551564Y-66651743D01*
X133551565Y-66651749D01*
X133583741Y-66794523D01*
X133601346Y-66872642D01*
X133603288Y-66877424D01*
X133603289Y-66877428D01*
X133686540Y-67082450D01*
X133688484Y-67087237D01*
X133809501Y-67284719D01*
X133961147Y-67459784D01*
X134139349Y-67607730D01*
X134143819Y-67610342D01*
X134147511Y-67612500D01*
X134196232Y-67664140D01*
X134209301Y-67733924D01*
X134182566Y-67799694D01*
X134159589Y-67822045D01*
X134011655Y-67933117D01*
X133851639Y-68100564D01*
X133848725Y-68104836D01*
X133848724Y-68104837D01*
X133833152Y-68127665D01*
X133721119Y-68291899D01*
X133623602Y-68501981D01*
X133561707Y-68725169D01*
X133537095Y-68955469D01*
X120058500Y-68955469D01*
X120058500Y-34213595D01*
X120059847Y-34195218D01*
X120062884Y-34174620D01*
X120062884Y-34174616D01*
X120063539Y-34170175D01*
X120064552Y-33886440D01*
X120064571Y-33884664D01*
X120068898Y-33639795D01*
X120069004Y-33636378D01*
X120078069Y-33434159D01*
X120078430Y-33428732D01*
X120093140Y-33261953D01*
X120094021Y-33254507D01*
X120115020Y-33113159D01*
X120116651Y-33104347D01*
X120145344Y-32975203D01*
X120147672Y-32966281D01*
X120187269Y-32834466D01*
X120188298Y-32831406D01*
X123753423Y-32831406D01*
X123758704Y-32838461D01*
X123935080Y-32941527D01*
X123944363Y-32945974D01*
X124151003Y-33024883D01*
X124160901Y-33027759D01*
X124377653Y-33071857D01*
X124387883Y-33073076D01*
X124608914Y-33081182D01*
X124619223Y-33080714D01*
X124838623Y-33052608D01*
X124848688Y-33050468D01*
X125060557Y-32986905D01*
X125070152Y-32983144D01*
X125268778Y-32885838D01*
X125277636Y-32880559D01*
X125335097Y-32839572D01*
X125343497Y-32828874D01*
X125336510Y-32815721D01*
X124562811Y-32042021D01*
X124548868Y-32034408D01*
X124547034Y-32034539D01*
X124540420Y-32038790D01*
X123760180Y-32819031D01*
X123753423Y-32831406D01*
X120188298Y-32831406D01*
X120189869Y-32826731D01*
X120244979Y-32678795D01*
X120247303Y-32673000D01*
X120322331Y-32498616D01*
X120324053Y-32494790D01*
X120410291Y-32311421D01*
X120421249Y-32288122D01*
X120422334Y-32285001D01*
X120422339Y-32284989D01*
X120431787Y-32257814D01*
X120437842Y-32243364D01*
X120461784Y-32194922D01*
X120461785Y-32194920D01*
X120464078Y-32190280D01*
X120531408Y-31968671D01*
X120561640Y-31739041D01*
X120563327Y-31670000D01*
X120560913Y-31640638D01*
X123137893Y-31640638D01*
X123150627Y-31861468D01*
X123152061Y-31871670D01*
X123200685Y-32087439D01*
X123203773Y-32097292D01*
X123286986Y-32302220D01*
X123291634Y-32311421D01*
X123380097Y-32455781D01*
X123390553Y-32465242D01*
X123399331Y-32461458D01*
X124177979Y-31682811D01*
X124184356Y-31671132D01*
X124914408Y-31671132D01*
X124914539Y-31672966D01*
X124918790Y-31679580D01*
X125696307Y-32457096D01*
X125708313Y-32463652D01*
X125720052Y-32454684D01*
X125758010Y-32401859D01*
X125763321Y-32393020D01*
X125861318Y-32194737D01*
X125865117Y-32185142D01*
X125929415Y-31973517D01*
X125931594Y-31963436D01*
X125960702Y-31742338D01*
X125961221Y-31735663D01*
X125962744Y-31673364D01*
X125962550Y-31666646D01*
X125944279Y-31444400D01*
X125942596Y-31434238D01*
X125888710Y-31219708D01*
X125885389Y-31209953D01*
X125797193Y-31007118D01*
X125792315Y-30998020D01*
X125719224Y-30885038D01*
X125708538Y-30875835D01*
X125698973Y-30880238D01*
X124922021Y-31657189D01*
X124914408Y-31671132D01*
X124184356Y-31671132D01*
X124185592Y-31668868D01*
X124185461Y-31667034D01*
X124181210Y-31660420D01*
X123403862Y-30883073D01*
X123392330Y-30876776D01*
X123380048Y-30886399D01*
X123324467Y-30967877D01*
X123319379Y-30976833D01*
X123226252Y-31177459D01*
X123222689Y-31187146D01*
X123163581Y-31400280D01*
X123161650Y-31410400D01*
X123138145Y-31630349D01*
X123137893Y-31640638D01*
X120560913Y-31640638D01*
X120557032Y-31593434D01*
X120544773Y-31444318D01*
X120544772Y-31444312D01*
X120544349Y-31439167D01*
X120510797Y-31305592D01*
X120489184Y-31219544D01*
X120489183Y-31219540D01*
X120487925Y-31214533D01*
X120476017Y-31187146D01*
X120397630Y-31006868D01*
X120397628Y-31006865D01*
X120395570Y-31002131D01*
X120269764Y-30807665D01*
X120113887Y-30636358D01*
X120109836Y-30633159D01*
X120109832Y-30633155D01*
X119954790Y-30510711D01*
X123755508Y-30510711D01*
X123762251Y-30523040D01*
X124537189Y-31297979D01*
X124551132Y-31305592D01*
X124552966Y-31305461D01*
X124559580Y-31301210D01*
X125338994Y-30521795D01*
X125346011Y-30508944D01*
X125338237Y-30498274D01*
X125335902Y-30496430D01*
X125327320Y-30490729D01*
X125133678Y-30383833D01*
X125124272Y-30379606D01*
X124915772Y-30305772D01*
X124905809Y-30303140D01*
X124688047Y-30264350D01*
X124677796Y-30263381D01*
X124456616Y-30260679D01*
X124446332Y-30261399D01*
X124227693Y-30294855D01*
X124217666Y-30297244D01*
X124007426Y-30365961D01*
X123997916Y-30369958D01*
X123801725Y-30472089D01*
X123793007Y-30477578D01*
X123763961Y-30499386D01*
X123755508Y-30510711D01*
X119954790Y-30510711D01*
X119936177Y-30496011D01*
X119936172Y-30496008D01*
X119932123Y-30492810D01*
X119927607Y-30490317D01*
X119927604Y-30490315D01*
X119733879Y-30383373D01*
X119733875Y-30383371D01*
X119729355Y-30380876D01*
X119724486Y-30379152D01*
X119724482Y-30379150D01*
X119515903Y-30305288D01*
X119515899Y-30305287D01*
X119511028Y-30303562D01*
X119505935Y-30302655D01*
X119505932Y-30302654D01*
X119288095Y-30263851D01*
X119288089Y-30263850D01*
X119283006Y-30262945D01*
X119210096Y-30262054D01*
X119056581Y-30260179D01*
X119056579Y-30260179D01*
X119051411Y-30260116D01*
X118822464Y-30295150D01*
X118602314Y-30367106D01*
X118597726Y-30369494D01*
X118597722Y-30369496D01*
X118401461Y-30471663D01*
X118396872Y-30474052D01*
X118392739Y-30477155D01*
X118392736Y-30477157D01*
X118333284Y-30521795D01*
X118211655Y-30613117D01*
X118051639Y-30780564D01*
X118048725Y-30784836D01*
X118048724Y-30784837D01*
X118033152Y-30807665D01*
X117921119Y-30971899D01*
X117823602Y-31181981D01*
X117761707Y-31405169D01*
X117737095Y-31635469D01*
X117737392Y-31640622D01*
X117737392Y-31640625D01*
X117750129Y-31861529D01*
X117750427Y-31866697D01*
X117751564Y-31871743D01*
X117751565Y-31871749D01*
X117783741Y-32014523D01*
X117801346Y-32092642D01*
X117803288Y-32097424D01*
X117803289Y-32097428D01*
X117870624Y-32263254D01*
X117874370Y-32273802D01*
X117878750Y-32288123D01*
X117975946Y-32494790D01*
X117975962Y-32494824D01*
X117977684Y-32498651D01*
X118052686Y-32672976D01*
X118055017Y-32678787D01*
X118110130Y-32826730D01*
X118112730Y-32834466D01*
X118152327Y-32966281D01*
X118154655Y-32975203D01*
X118183348Y-33104347D01*
X118184979Y-33113159D01*
X118205978Y-33254507D01*
X118206859Y-33261953D01*
X118221569Y-33428732D01*
X118221930Y-33434159D01*
X118230995Y-33636378D01*
X118231101Y-33639795D01*
X118235428Y-33884665D01*
X118235447Y-33886440D01*
X118236461Y-34170177D01*
X118236554Y-34171826D01*
X118236554Y-34171831D01*
X118238906Y-34213595D01*
X118239501Y-34224164D01*
X118240298Y-34227264D01*
X118241500Y-34242843D01*
X118241500Y-69421497D01*
X118221498Y-69489618D01*
X118204595Y-69510592D01*
X114590592Y-73124595D01*
X114528280Y-73158621D01*
X114501497Y-73161500D01*
X112243598Y-73161500D01*
X112225221Y-73160153D01*
X112204623Y-73157116D01*
X112204619Y-73157116D01*
X112200178Y-73156461D01*
X112104019Y-73156117D01*
X111916441Y-73155447D01*
X111914665Y-73155428D01*
X111834369Y-73154009D01*
X111669772Y-73151100D01*
X111666401Y-73150996D01*
X111464141Y-73141929D01*
X111458749Y-73141570D01*
X111317412Y-73129105D01*
X111291953Y-73126859D01*
X111284507Y-73125978D01*
X111259606Y-73122279D01*
X111143149Y-73104977D01*
X111134356Y-73103350D01*
X111056508Y-73086054D01*
X111005203Y-73074655D01*
X110996281Y-73072327D01*
X110864466Y-73032730D01*
X110856730Y-73030130D01*
X110802726Y-73010012D01*
X110708783Y-72975015D01*
X110702976Y-72972686D01*
X110530275Y-72898383D01*
X110475605Y-72853087D01*
X110454103Y-72785425D01*
X110472595Y-72716879D01*
X110480966Y-72704833D01*
X110493496Y-72688873D01*
X110486510Y-72675721D01*
X109712811Y-71902021D01*
X109698868Y-71894408D01*
X109697034Y-71894539D01*
X109690420Y-71898790D01*
X108910180Y-72679031D01*
X108903423Y-72691406D01*
X108922730Y-72717197D01*
X108922040Y-72717713D01*
X108946627Y-72743737D01*
X108959743Y-72813511D01*
X108933055Y-72879300D01*
X108910023Y-72901719D01*
X108803472Y-72981720D01*
X108761655Y-73013117D01*
X108758083Y-73016855D01*
X108625660Y-73155428D01*
X108601639Y-73180564D01*
X108598725Y-73184836D01*
X108598724Y-73184837D01*
X108583152Y-73207665D01*
X108471119Y-73371899D01*
X108373602Y-73581981D01*
X108311707Y-73805169D01*
X108287095Y-74035469D01*
X108287392Y-74040622D01*
X108287392Y-74040625D01*
X108293067Y-74139041D01*
X108300427Y-74266697D01*
X108301564Y-74271743D01*
X108301565Y-74271749D01*
X108333741Y-74414523D01*
X108351346Y-74492642D01*
X108353288Y-74497424D01*
X108353289Y-74497428D01*
X108427933Y-74681253D01*
X108438484Y-74707237D01*
X108559501Y-74904719D01*
X108711147Y-75079784D01*
X108889349Y-75227730D01*
X109089322Y-75344584D01*
X109094147Y-75346426D01*
X109094148Y-75346427D01*
X109104717Y-75350463D01*
X109305694Y-75427209D01*
X109310760Y-75428240D01*
X109310761Y-75428240D01*
X109363846Y-75439040D01*
X109532656Y-75473385D01*
X109663324Y-75478176D01*
X109758949Y-75481683D01*
X109758953Y-75481683D01*
X109764113Y-75481872D01*
X109769233Y-75481216D01*
X109769235Y-75481216D01*
X109842270Y-75471860D01*
X109993847Y-75452442D01*
X109998795Y-75450957D01*
X109998802Y-75450956D01*
X110127361Y-75412386D01*
X110215690Y-75385886D01*
X110278996Y-75354873D01*
X110297578Y-75347533D01*
X110313810Y-75342569D01*
X110313818Y-75342566D01*
X110318124Y-75341249D01*
X110524827Y-75244035D01*
X110528614Y-75242331D01*
X110702976Y-75167313D01*
X110708787Y-75164982D01*
X110750363Y-75149494D01*
X110856731Y-75109869D01*
X110864466Y-75107269D01*
X110996281Y-75067672D01*
X111005203Y-75065344D01*
X111056508Y-75053945D01*
X111134356Y-75036649D01*
X111143149Y-75035022D01*
X111259606Y-75017720D01*
X111284507Y-75014021D01*
X111291953Y-75013140D01*
X111317412Y-75010894D01*
X111458749Y-74998429D01*
X111464141Y-74998070D01*
X111666401Y-74989003D01*
X111669772Y-74988899D01*
X111841083Y-74985871D01*
X111914664Y-74984571D01*
X111916440Y-74984552D01*
X112198521Y-74983545D01*
X112198524Y-74983545D01*
X112200176Y-74983539D01*
X112201818Y-74983446D01*
X112201834Y-74983446D01*
X112248030Y-74980843D01*
X112248031Y-74980843D01*
X112254187Y-74980496D01*
X112257278Y-74979701D01*
X112272845Y-74978500D01*
X114848583Y-74978500D01*
X114868292Y-74980051D01*
X114882190Y-74982252D01*
X114888777Y-74981907D01*
X114888782Y-74981907D01*
X114950480Y-74978673D01*
X114957074Y-74978500D01*
X114977610Y-74978500D01*
X114980882Y-74978156D01*
X114980884Y-74978156D01*
X114998042Y-74976353D01*
X115004616Y-74975836D01*
X115066308Y-74972603D01*
X115066312Y-74972602D01*
X115072903Y-74972257D01*
X115079284Y-74970547D01*
X115079286Y-74970547D01*
X115086491Y-74968617D01*
X115105925Y-74965015D01*
X115113354Y-74964234D01*
X115113363Y-74964232D01*
X115119928Y-74963542D01*
X115184997Y-74942400D01*
X115191299Y-74940533D01*
X115257370Y-74922829D01*
X115269908Y-74916440D01*
X115288174Y-74908875D01*
X115295272Y-74906569D01*
X115295274Y-74906568D01*
X115301556Y-74904527D01*
X115308847Y-74900318D01*
X115360782Y-74870333D01*
X115366579Y-74867185D01*
X115427530Y-74836129D01*
X115438467Y-74827273D01*
X115454763Y-74816073D01*
X115461224Y-74812343D01*
X115461228Y-74812340D01*
X115466944Y-74809040D01*
X115471850Y-74804623D01*
X115471855Y-74804619D01*
X115517769Y-74763278D01*
X115522784Y-74758994D01*
X115536177Y-74748148D01*
X115538741Y-74746072D01*
X115553256Y-74731557D01*
X115558041Y-74727016D01*
X115603957Y-74685673D01*
X115608866Y-74681253D01*
X115617140Y-74669865D01*
X115629981Y-74654832D01*
X119100905Y-71183908D01*
X119163217Y-71149882D01*
X119234032Y-71154947D01*
X119279095Y-71183908D01*
X121014595Y-72919408D01*
X121048621Y-72981720D01*
X121051500Y-73008503D01*
X121051500Y-86796402D01*
X121050153Y-86814779D01*
X121046461Y-86839822D01*
X121046445Y-86844319D01*
X121045447Y-87123558D01*
X121045428Y-87125334D01*
X121041101Y-87370204D01*
X121040995Y-87373621D01*
X121031930Y-87575840D01*
X121031569Y-87581267D01*
X121016859Y-87748046D01*
X121015978Y-87755492D01*
X120994979Y-87896840D01*
X120993350Y-87905643D01*
X120980194Y-87964855D01*
X120964655Y-88034796D01*
X120962327Y-88043718D01*
X120922730Y-88175533D01*
X120920130Y-88183268D01*
X120878193Y-88295844D01*
X120865017Y-88331212D01*
X120862688Y-88337017D01*
X120803823Y-88473838D01*
X120790666Y-88504418D01*
X120745370Y-88559088D01*
X120677708Y-88580590D01*
X120609162Y-88562098D01*
X120569132Y-88523061D01*
X120558713Y-88506956D01*
X120539764Y-88477665D01*
X120517607Y-88453314D01*
X120454229Y-88383663D01*
X120383887Y-88306358D01*
X120379836Y-88303159D01*
X120379832Y-88303155D01*
X120206177Y-88166011D01*
X120206172Y-88166008D01*
X120202123Y-88162810D01*
X120197607Y-88160317D01*
X120197604Y-88160315D01*
X120003879Y-88053373D01*
X120003875Y-88053371D01*
X119999355Y-88050876D01*
X119994486Y-88049152D01*
X119994482Y-88049150D01*
X119785903Y-87975288D01*
X119785899Y-87975287D01*
X119781028Y-87973562D01*
X119775935Y-87972655D01*
X119775932Y-87972654D01*
X119558095Y-87933851D01*
X119558089Y-87933850D01*
X119553006Y-87932945D01*
X119480096Y-87932054D01*
X119326581Y-87930179D01*
X119326579Y-87930179D01*
X119321411Y-87930116D01*
X119092464Y-87965150D01*
X118872314Y-88037106D01*
X118867726Y-88039494D01*
X118867722Y-88039496D01*
X118828383Y-88059975D01*
X118809552Y-88067910D01*
X118792196Y-88073614D01*
X118788169Y-88075611D01*
X118788164Y-88075613D01*
X118560311Y-88188602D01*
X118560214Y-88188651D01*
X118560068Y-88188723D01*
X118555221Y-88191160D01*
X118554943Y-88191300D01*
X118350123Y-88295684D01*
X118349354Y-88296072D01*
X118273373Y-88334143D01*
X118176285Y-88382789D01*
X118172792Y-88384472D01*
X118068446Y-88432757D01*
X118027312Y-88451791D01*
X118020656Y-88454642D01*
X117892683Y-88505151D01*
X117883411Y-88508398D01*
X117757975Y-88546915D01*
X117747555Y-88549633D01*
X117606576Y-88580038D01*
X117596743Y-88581753D01*
X117526833Y-88591110D01*
X117422929Y-88605017D01*
X117414774Y-88605840D01*
X117292227Y-88614185D01*
X117194438Y-88620843D01*
X117188291Y-88621111D01*
X116911706Y-88626375D01*
X116901306Y-88627082D01*
X116867733Y-88629363D01*
X116867729Y-88629364D01*
X116861705Y-88629773D01*
X116860001Y-88630225D01*
X116844461Y-88631500D01*
X114685661Y-88631500D01*
X114617540Y-88611498D01*
X114596566Y-88594595D01*
X107745405Y-81743435D01*
X107711379Y-81681123D01*
X107708500Y-81654340D01*
X107708500Y-71500638D01*
X108287893Y-71500638D01*
X108300627Y-71721468D01*
X108302061Y-71731670D01*
X108350685Y-71947439D01*
X108353773Y-71957292D01*
X108436986Y-72162220D01*
X108441634Y-72171421D01*
X108530097Y-72315781D01*
X108540553Y-72325242D01*
X108549331Y-72321458D01*
X109327979Y-71542811D01*
X109334356Y-71531132D01*
X110064408Y-71531132D01*
X110064539Y-71532966D01*
X110068790Y-71539580D01*
X110846307Y-72317096D01*
X110858313Y-72323652D01*
X110870052Y-72314684D01*
X110908010Y-72261859D01*
X110913321Y-72253020D01*
X111011318Y-72054737D01*
X111015117Y-72045142D01*
X111079415Y-71833517D01*
X111081594Y-71823436D01*
X111110702Y-71602338D01*
X111111221Y-71595663D01*
X111112744Y-71533364D01*
X111112550Y-71526646D01*
X111094279Y-71304400D01*
X111092596Y-71294238D01*
X111038710Y-71079708D01*
X111035389Y-71069953D01*
X110947193Y-70867118D01*
X110942315Y-70858020D01*
X110869224Y-70745038D01*
X110858538Y-70735835D01*
X110848973Y-70740238D01*
X110072021Y-71517189D01*
X110064408Y-71531132D01*
X109334356Y-71531132D01*
X109335592Y-71528868D01*
X109335461Y-71527034D01*
X109331210Y-71520420D01*
X108553862Y-70743073D01*
X108542330Y-70736776D01*
X108530048Y-70746399D01*
X108474467Y-70827877D01*
X108469379Y-70836833D01*
X108376252Y-71037459D01*
X108372689Y-71047146D01*
X108313581Y-71260280D01*
X108311650Y-71270400D01*
X108288145Y-71490349D01*
X108287893Y-71500638D01*
X107708500Y-71500638D01*
X107708500Y-50345660D01*
X107728502Y-50277539D01*
X107745405Y-50256565D01*
X107981256Y-50020714D01*
X107999918Y-50005333D01*
X108007485Y-50000232D01*
X108007489Y-50000229D01*
X108011215Y-49997717D01*
X108145182Y-49876381D01*
X108157061Y-49866863D01*
X108248864Y-49802003D01*
X108265247Y-49792200D01*
X108328656Y-49760517D01*
X108349414Y-49752352D01*
X108392243Y-49739753D01*
X108415291Y-49735255D01*
X108422040Y-49734582D01*
X108454610Y-49731332D01*
X108476452Y-49731055D01*
X108531392Y-49735137D01*
X108549231Y-49737757D01*
X108631674Y-49755969D01*
X108644589Y-49759553D01*
X108704441Y-49779648D01*
X108757802Y-49797564D01*
X108766270Y-49800749D01*
X108861726Y-49840628D01*
X108916869Y-49885342D01*
X108939086Y-49952773D01*
X108921320Y-50021511D01*
X108888806Y-50057649D01*
X108761655Y-50153117D01*
X108758083Y-50156855D01*
X108627531Y-50293470D01*
X108601639Y-50320564D01*
X108598725Y-50324836D01*
X108598724Y-50324837D01*
X108584520Y-50345660D01*
X108471119Y-50511899D01*
X108373602Y-50721981D01*
X108311707Y-50945169D01*
X108287095Y-51175469D01*
X108287392Y-51180622D01*
X108287392Y-51180625D01*
X108293067Y-51279041D01*
X108300427Y-51406697D01*
X108301564Y-51411743D01*
X108301565Y-51411749D01*
X108333741Y-51554523D01*
X108351346Y-51632642D01*
X108353288Y-51637424D01*
X108353289Y-51637428D01*
X108436540Y-51842450D01*
X108438484Y-51847237D01*
X108559501Y-52044719D01*
X108711147Y-52219784D01*
X108889349Y-52367730D01*
X108893819Y-52370342D01*
X108897511Y-52372500D01*
X108946232Y-52424140D01*
X108959301Y-52493924D01*
X108932566Y-52559694D01*
X108909589Y-52582045D01*
X108761655Y-52693117D01*
X108601639Y-52860564D01*
X108598725Y-52864836D01*
X108598724Y-52864837D01*
X108583152Y-52887665D01*
X108471119Y-53051899D01*
X108373602Y-53261981D01*
X108311707Y-53485169D01*
X108287095Y-53715469D01*
X108287392Y-53720622D01*
X108287392Y-53720625D01*
X108293067Y-53819041D01*
X108300427Y-53946697D01*
X108301564Y-53951743D01*
X108301565Y-53951749D01*
X108333741Y-54094523D01*
X108351346Y-54172642D01*
X108353288Y-54177424D01*
X108353289Y-54177428D01*
X108436540Y-54382450D01*
X108438484Y-54387237D01*
X108559501Y-54584719D01*
X108711147Y-54759784D01*
X108889349Y-54907730D01*
X108893819Y-54910342D01*
X108897511Y-54912500D01*
X108946232Y-54964140D01*
X108959301Y-55033924D01*
X108932566Y-55099694D01*
X108909589Y-55122045D01*
X108761655Y-55233117D01*
X108601639Y-55400564D01*
X108598725Y-55404836D01*
X108598724Y-55404837D01*
X108583152Y-55427665D01*
X108471119Y-55591899D01*
X108373602Y-55801981D01*
X108311707Y-56025169D01*
X108287095Y-56255469D01*
X108287392Y-56260622D01*
X108287392Y-56260625D01*
X108293067Y-56359041D01*
X108300427Y-56486697D01*
X108301564Y-56491743D01*
X108301565Y-56491749D01*
X108333741Y-56634523D01*
X108351346Y-56712642D01*
X108353288Y-56717424D01*
X108353289Y-56717428D01*
X108436540Y-56922450D01*
X108438484Y-56927237D01*
X108559501Y-57124719D01*
X108711147Y-57299784D01*
X108889349Y-57447730D01*
X108893819Y-57450342D01*
X108897511Y-57452500D01*
X108946232Y-57504140D01*
X108959301Y-57573924D01*
X108932566Y-57639694D01*
X108909589Y-57662045D01*
X108761655Y-57773117D01*
X108601639Y-57940564D01*
X108598725Y-57944836D01*
X108598724Y-57944837D01*
X108583152Y-57967665D01*
X108471119Y-58131899D01*
X108373602Y-58341981D01*
X108311707Y-58565169D01*
X108287095Y-58795469D01*
X108287392Y-58800622D01*
X108287392Y-58800625D01*
X108293067Y-58899041D01*
X108300427Y-59026697D01*
X108301564Y-59031743D01*
X108301565Y-59031749D01*
X108333741Y-59174523D01*
X108351346Y-59252642D01*
X108353288Y-59257424D01*
X108353289Y-59257428D01*
X108436540Y-59462450D01*
X108438484Y-59467237D01*
X108559501Y-59664719D01*
X108711147Y-59839784D01*
X108889349Y-59987730D01*
X108893819Y-59990342D01*
X108897511Y-59992500D01*
X108946232Y-60044140D01*
X108959301Y-60113924D01*
X108932566Y-60179694D01*
X108909589Y-60202045D01*
X108761655Y-60313117D01*
X108601639Y-60480564D01*
X108598725Y-60484836D01*
X108598724Y-60484837D01*
X108583152Y-60507665D01*
X108471119Y-60671899D01*
X108373602Y-60881981D01*
X108311707Y-61105169D01*
X108287095Y-61335469D01*
X108287392Y-61340622D01*
X108287392Y-61340625D01*
X108293067Y-61439041D01*
X108300427Y-61566697D01*
X108301564Y-61571743D01*
X108301565Y-61571749D01*
X108333741Y-61714523D01*
X108351346Y-61792642D01*
X108353288Y-61797424D01*
X108353289Y-61797428D01*
X108436540Y-62002450D01*
X108438484Y-62007237D01*
X108559501Y-62204719D01*
X108711147Y-62379784D01*
X108889349Y-62527730D01*
X108893819Y-62530342D01*
X108897511Y-62532500D01*
X108946232Y-62584140D01*
X108959301Y-62653924D01*
X108932566Y-62719694D01*
X108909589Y-62742045D01*
X108761655Y-62853117D01*
X108601639Y-63020564D01*
X108598725Y-63024836D01*
X108598724Y-63024837D01*
X108583152Y-63047665D01*
X108471119Y-63211899D01*
X108373602Y-63421981D01*
X108311707Y-63645169D01*
X108287095Y-63875469D01*
X108287392Y-63880622D01*
X108287392Y-63880625D01*
X108293067Y-63979041D01*
X108300427Y-64106697D01*
X108301564Y-64111743D01*
X108301565Y-64111749D01*
X108333741Y-64254523D01*
X108351346Y-64332642D01*
X108353288Y-64337424D01*
X108353289Y-64337428D01*
X108436540Y-64542450D01*
X108438484Y-64547237D01*
X108559501Y-64744719D01*
X108711147Y-64919784D01*
X108889349Y-65067730D01*
X108893819Y-65070342D01*
X108897511Y-65072500D01*
X108946232Y-65124140D01*
X108959301Y-65193924D01*
X108932566Y-65259694D01*
X108909589Y-65282045D01*
X108761655Y-65393117D01*
X108601639Y-65560564D01*
X108598725Y-65564836D01*
X108598724Y-65564837D01*
X108583152Y-65587665D01*
X108471119Y-65751899D01*
X108373602Y-65961981D01*
X108311707Y-66185169D01*
X108287095Y-66415469D01*
X108287392Y-66420622D01*
X108287392Y-66420625D01*
X108293067Y-66519041D01*
X108300427Y-66646697D01*
X108301564Y-66651743D01*
X108301565Y-66651749D01*
X108333741Y-66794523D01*
X108351346Y-66872642D01*
X108353288Y-66877424D01*
X108353289Y-66877428D01*
X108436540Y-67082450D01*
X108438484Y-67087237D01*
X108559501Y-67284719D01*
X108711147Y-67459784D01*
X108889349Y-67607730D01*
X108893819Y-67610342D01*
X108897511Y-67612500D01*
X108946232Y-67664140D01*
X108959301Y-67733924D01*
X108932566Y-67799694D01*
X108909589Y-67822045D01*
X108761655Y-67933117D01*
X108601639Y-68100564D01*
X108598725Y-68104836D01*
X108598724Y-68104837D01*
X108583152Y-68127665D01*
X108471119Y-68291899D01*
X108373602Y-68501981D01*
X108311707Y-68725169D01*
X108287095Y-68955469D01*
X108287392Y-68960622D01*
X108287392Y-68960625D01*
X108293067Y-69059041D01*
X108300427Y-69186697D01*
X108301564Y-69191743D01*
X108301565Y-69191749D01*
X108333741Y-69334523D01*
X108351346Y-69412642D01*
X108353288Y-69417424D01*
X108353289Y-69417428D01*
X108436540Y-69622450D01*
X108438484Y-69627237D01*
X108559501Y-69824719D01*
X108711147Y-69999784D01*
X108889349Y-70147730D01*
X108893814Y-70150339D01*
X108897979Y-70152773D01*
X108946700Y-70204414D01*
X108959767Y-70274198D01*
X108933033Y-70339968D01*
X108916323Y-70356221D01*
X108905508Y-70370711D01*
X108912251Y-70383040D01*
X109687189Y-71157979D01*
X109701132Y-71165592D01*
X109702966Y-71165461D01*
X109709580Y-71161210D01*
X110488994Y-70381795D01*
X110496011Y-70368944D01*
X110488237Y-70358275D01*
X110486655Y-70357025D01*
X110445592Y-70299109D01*
X110442359Y-70228186D01*
X110477983Y-70166774D01*
X110491578Y-70155563D01*
X110507193Y-70144425D01*
X110612243Y-70069494D01*
X110776303Y-69906005D01*
X110911458Y-69717917D01*
X110958641Y-69622450D01*
X111011784Y-69514922D01*
X111011785Y-69514920D01*
X111014078Y-69510280D01*
X111081408Y-69288671D01*
X111111640Y-69059041D01*
X111113327Y-68990000D01*
X111107032Y-68913434D01*
X111094773Y-68764318D01*
X111094772Y-68764312D01*
X111094349Y-68759167D01*
X111037925Y-68534533D01*
X111035866Y-68529797D01*
X110947630Y-68326868D01*
X110947628Y-68326865D01*
X110945570Y-68322131D01*
X110819764Y-68127665D01*
X110663887Y-67956358D01*
X110659836Y-67953159D01*
X110659832Y-67953155D01*
X110487077Y-67816722D01*
X110446014Y-67758805D01*
X110442782Y-67687882D01*
X110478407Y-67626470D01*
X110492001Y-67615261D01*
X110495872Y-67612500D01*
X110612243Y-67529494D01*
X110776303Y-67366005D01*
X110911458Y-67177917D01*
X110958641Y-67082450D01*
X111011784Y-66974922D01*
X111011785Y-66974920D01*
X111014078Y-66970280D01*
X111081408Y-66748671D01*
X111111640Y-66519041D01*
X111113327Y-66450000D01*
X111107032Y-66373434D01*
X111094773Y-66224318D01*
X111094772Y-66224312D01*
X111094349Y-66219167D01*
X111037925Y-65994533D01*
X111035866Y-65989797D01*
X110947630Y-65786868D01*
X110947628Y-65786865D01*
X110945570Y-65782131D01*
X110819764Y-65587665D01*
X110663887Y-65416358D01*
X110659836Y-65413159D01*
X110659832Y-65413155D01*
X110487077Y-65276722D01*
X110446014Y-65218805D01*
X110442782Y-65147882D01*
X110478407Y-65086470D01*
X110492001Y-65075261D01*
X110495872Y-65072500D01*
X110612243Y-64989494D01*
X110776303Y-64826005D01*
X110911458Y-64637917D01*
X110958641Y-64542450D01*
X111011784Y-64434922D01*
X111011785Y-64434920D01*
X111014078Y-64430280D01*
X111081408Y-64208671D01*
X111111640Y-63979041D01*
X111113327Y-63910000D01*
X111107032Y-63833434D01*
X111094773Y-63684318D01*
X111094772Y-63684312D01*
X111094349Y-63679167D01*
X111037925Y-63454533D01*
X111035866Y-63449797D01*
X110947630Y-63246868D01*
X110947628Y-63246865D01*
X110945570Y-63242131D01*
X110819764Y-63047665D01*
X110663887Y-62876358D01*
X110659836Y-62873159D01*
X110659832Y-62873155D01*
X110487077Y-62736722D01*
X110446014Y-62678805D01*
X110442782Y-62607882D01*
X110478407Y-62546470D01*
X110492001Y-62535261D01*
X110495872Y-62532500D01*
X110612243Y-62449494D01*
X110776303Y-62286005D01*
X110911458Y-62097917D01*
X110958641Y-62002450D01*
X111011784Y-61894922D01*
X111011785Y-61894920D01*
X111014078Y-61890280D01*
X111081408Y-61668671D01*
X111111640Y-61439041D01*
X111113327Y-61370000D01*
X111107032Y-61293434D01*
X111094773Y-61144318D01*
X111094772Y-61144312D01*
X111094349Y-61139167D01*
X111037925Y-60914533D01*
X111035866Y-60909797D01*
X110947630Y-60706868D01*
X110947628Y-60706865D01*
X110945570Y-60702131D01*
X110819764Y-60507665D01*
X110663887Y-60336358D01*
X110659836Y-60333159D01*
X110659832Y-60333155D01*
X110487077Y-60196722D01*
X110446014Y-60138805D01*
X110442782Y-60067882D01*
X110478407Y-60006470D01*
X110492001Y-59995261D01*
X110495872Y-59992500D01*
X110612243Y-59909494D01*
X110776303Y-59746005D01*
X110911458Y-59557917D01*
X110958641Y-59462450D01*
X111011784Y-59354922D01*
X111011785Y-59354920D01*
X111014078Y-59350280D01*
X111081408Y-59128671D01*
X111111640Y-58899041D01*
X111113327Y-58830000D01*
X111107032Y-58753434D01*
X111094773Y-58604318D01*
X111094772Y-58604312D01*
X111094349Y-58599167D01*
X111037925Y-58374533D01*
X111035866Y-58369797D01*
X110947630Y-58166868D01*
X110947628Y-58166865D01*
X110945570Y-58162131D01*
X110819764Y-57967665D01*
X110663887Y-57796358D01*
X110659836Y-57793159D01*
X110659832Y-57793155D01*
X110487077Y-57656722D01*
X110446014Y-57598805D01*
X110442782Y-57527882D01*
X110478407Y-57466470D01*
X110492001Y-57455261D01*
X110495872Y-57452500D01*
X110612243Y-57369494D01*
X110776303Y-57206005D01*
X110911458Y-57017917D01*
X110958641Y-56922450D01*
X111011784Y-56814922D01*
X111011785Y-56814920D01*
X111014078Y-56810280D01*
X111081408Y-56588671D01*
X111111640Y-56359041D01*
X111113327Y-56290000D01*
X111107032Y-56213434D01*
X111094773Y-56064318D01*
X111094772Y-56064312D01*
X111094349Y-56059167D01*
X111037925Y-55834533D01*
X111035866Y-55829797D01*
X110947630Y-55626868D01*
X110947628Y-55626865D01*
X110945570Y-55622131D01*
X110819764Y-55427665D01*
X110663887Y-55256358D01*
X110659836Y-55253159D01*
X110659832Y-55253155D01*
X110487077Y-55116722D01*
X110446014Y-55058805D01*
X110442782Y-54987882D01*
X110478407Y-54926470D01*
X110492001Y-54915261D01*
X110495872Y-54912500D01*
X110612243Y-54829494D01*
X110776303Y-54666005D01*
X110911458Y-54477917D01*
X110958641Y-54382450D01*
X111011784Y-54274922D01*
X111011785Y-54274920D01*
X111014078Y-54270280D01*
X111081408Y-54048671D01*
X111111640Y-53819041D01*
X111113327Y-53750000D01*
X111107032Y-53673434D01*
X111094773Y-53524318D01*
X111094772Y-53524312D01*
X111094349Y-53519167D01*
X111037925Y-53294533D01*
X111035866Y-53289797D01*
X110947630Y-53086868D01*
X110947628Y-53086865D01*
X110945570Y-53082131D01*
X110819764Y-52887665D01*
X110663887Y-52716358D01*
X110659836Y-52713159D01*
X110659832Y-52713155D01*
X110487077Y-52576722D01*
X110446014Y-52518805D01*
X110442782Y-52447882D01*
X110478407Y-52386470D01*
X110492001Y-52375261D01*
X110495872Y-52372500D01*
X110612243Y-52289494D01*
X110776303Y-52126005D01*
X110911458Y-51937917D01*
X110958641Y-51842450D01*
X111011784Y-51734922D01*
X111011785Y-51734920D01*
X111014078Y-51730280D01*
X111081408Y-51508671D01*
X111111640Y-51279041D01*
X111113327Y-51210000D01*
X111107032Y-51133434D01*
X111094773Y-50984318D01*
X111094772Y-50984312D01*
X111094349Y-50979167D01*
X111037925Y-50754533D01*
X111035866Y-50749797D01*
X110947630Y-50546868D01*
X110947628Y-50546865D01*
X110945570Y-50542131D01*
X110819764Y-50347665D01*
X110663887Y-50176358D01*
X110659836Y-50173159D01*
X110659832Y-50173155D01*
X110487077Y-50036722D01*
X110446014Y-49978805D01*
X110442782Y-49907882D01*
X110478407Y-49846470D01*
X110492001Y-49835261D01*
X110495872Y-49832500D01*
X110612243Y-49749494D01*
X110776303Y-49586005D01*
X110782479Y-49577411D01*
X110837875Y-49500318D01*
X110911458Y-49397917D01*
X110958641Y-49302450D01*
X111011784Y-49194922D01*
X111011785Y-49194920D01*
X111014078Y-49190280D01*
X111081408Y-48968671D01*
X111111640Y-48739041D01*
X111113327Y-48670000D01*
X111107032Y-48593434D01*
X111094773Y-48444318D01*
X111094772Y-48444312D01*
X111094349Y-48439167D01*
X111037925Y-48214533D01*
X111035866Y-48209797D01*
X110947630Y-48006868D01*
X110947628Y-48006865D01*
X110945570Y-48002131D01*
X110819764Y-47807665D01*
X110663887Y-47636358D01*
X110659836Y-47633159D01*
X110659832Y-47633155D01*
X110487077Y-47496722D01*
X110446014Y-47438805D01*
X110442782Y-47367882D01*
X110478407Y-47306470D01*
X110492001Y-47295261D01*
X110495872Y-47292500D01*
X110612243Y-47209494D01*
X110776303Y-47046005D01*
X110911458Y-46857917D01*
X110958641Y-46762450D01*
X111011784Y-46654922D01*
X111011785Y-46654920D01*
X111014078Y-46650280D01*
X111081408Y-46428671D01*
X111111640Y-46199041D01*
X111113327Y-46130000D01*
X111107032Y-46053434D01*
X111094773Y-45904318D01*
X111094772Y-45904312D01*
X111094349Y-45899167D01*
X111037925Y-45674533D01*
X111035866Y-45669797D01*
X110947630Y-45466868D01*
X110947628Y-45466865D01*
X110945570Y-45462131D01*
X110819764Y-45267665D01*
X110663887Y-45096358D01*
X110659836Y-45093159D01*
X110659832Y-45093155D01*
X110487077Y-44956722D01*
X110446014Y-44898805D01*
X110442782Y-44827882D01*
X110478407Y-44766470D01*
X110492001Y-44755261D01*
X110495872Y-44752500D01*
X110612243Y-44669494D01*
X110776303Y-44506005D01*
X110911458Y-44317917D01*
X110958641Y-44222450D01*
X111011784Y-44114922D01*
X111011785Y-44114920D01*
X111014078Y-44110280D01*
X111081408Y-43888671D01*
X111111640Y-43659041D01*
X111113327Y-43590000D01*
X111107032Y-43513434D01*
X111094773Y-43364318D01*
X111094772Y-43364312D01*
X111094349Y-43359167D01*
X111037925Y-43134533D01*
X111035866Y-43129797D01*
X110947630Y-42926868D01*
X110947628Y-42926865D01*
X110945570Y-42922131D01*
X110819764Y-42727665D01*
X110663887Y-42556358D01*
X110659836Y-42553159D01*
X110659832Y-42553155D01*
X110487077Y-42416722D01*
X110446014Y-42358805D01*
X110442782Y-42287882D01*
X110478407Y-42226470D01*
X110492001Y-42215261D01*
X110495872Y-42212500D01*
X110612243Y-42129494D01*
X110776303Y-41966005D01*
X110911458Y-41777917D01*
X110958641Y-41682450D01*
X111011784Y-41574922D01*
X111011785Y-41574920D01*
X111014078Y-41570280D01*
X111081408Y-41348671D01*
X111111640Y-41119041D01*
X111113327Y-41050000D01*
X111107032Y-40973434D01*
X111094773Y-40824318D01*
X111094772Y-40824312D01*
X111094349Y-40819167D01*
X111037925Y-40594533D01*
X111035866Y-40589797D01*
X110947630Y-40386868D01*
X110947628Y-40386865D01*
X110945570Y-40382131D01*
X110819764Y-40187665D01*
X110663887Y-40016358D01*
X110659836Y-40013159D01*
X110659832Y-40013155D01*
X110487077Y-39876722D01*
X110446014Y-39818805D01*
X110442782Y-39747882D01*
X110478407Y-39686470D01*
X110492001Y-39675261D01*
X110495872Y-39672500D01*
X110612243Y-39589494D01*
X110776303Y-39426005D01*
X110911458Y-39237917D01*
X110958641Y-39142450D01*
X111011784Y-39034922D01*
X111011785Y-39034920D01*
X111014078Y-39030280D01*
X111081408Y-38808671D01*
X111111640Y-38579041D01*
X111113327Y-38510000D01*
X111107032Y-38433434D01*
X111094773Y-38284318D01*
X111094772Y-38284312D01*
X111094349Y-38279167D01*
X111037925Y-38054533D01*
X111035866Y-38049797D01*
X110947630Y-37846868D01*
X110947628Y-37846865D01*
X110945570Y-37842131D01*
X110819764Y-37647665D01*
X110663887Y-37476358D01*
X110659836Y-37473159D01*
X110659832Y-37473155D01*
X110486177Y-37336011D01*
X110486172Y-37336008D01*
X110482123Y-37332810D01*
X110477607Y-37330317D01*
X110477604Y-37330315D01*
X110283879Y-37223373D01*
X110283875Y-37223371D01*
X110279355Y-37220876D01*
X110274486Y-37219152D01*
X110274482Y-37219150D01*
X110065903Y-37145288D01*
X110065899Y-37145287D01*
X110061028Y-37143562D01*
X110055935Y-37142655D01*
X110055932Y-37142654D01*
X109838095Y-37103851D01*
X109838089Y-37103850D01*
X109833006Y-37102945D01*
X109760096Y-37102054D01*
X109606581Y-37100179D01*
X109606579Y-37100179D01*
X109601411Y-37100116D01*
X109372464Y-37135150D01*
X109152314Y-37207106D01*
X109147726Y-37209494D01*
X109147722Y-37209496D01*
X109121065Y-37223373D01*
X108946872Y-37314052D01*
X108942739Y-37317155D01*
X108942736Y-37317157D01*
X108917625Y-37336011D01*
X108761655Y-37453117D01*
X108601639Y-37620564D01*
X108598725Y-37624836D01*
X108598724Y-37624837D01*
X108583152Y-37647665D01*
X108471119Y-37811899D01*
X108373602Y-38021981D01*
X108311707Y-38245169D01*
X108287095Y-38475469D01*
X108287392Y-38480622D01*
X108287392Y-38480625D01*
X108293067Y-38579041D01*
X108300427Y-38706697D01*
X108301564Y-38711743D01*
X108301565Y-38711749D01*
X108333741Y-38854523D01*
X108351346Y-38932642D01*
X108353288Y-38937424D01*
X108353289Y-38937428D01*
X108436540Y-39142450D01*
X108438484Y-39147237D01*
X108559501Y-39344719D01*
X108711147Y-39519784D01*
X108889349Y-39667730D01*
X108893819Y-39670342D01*
X108897511Y-39672500D01*
X108946232Y-39724140D01*
X108959301Y-39793924D01*
X108932566Y-39859694D01*
X108909589Y-39882045D01*
X108761655Y-39993117D01*
X108601639Y-40160564D01*
X108598725Y-40164836D01*
X108598724Y-40164837D01*
X108583152Y-40187665D01*
X108471119Y-40351899D01*
X108373602Y-40561981D01*
X108311707Y-40785169D01*
X108287095Y-41015469D01*
X108287392Y-41020622D01*
X108287392Y-41020625D01*
X108293067Y-41119041D01*
X108300427Y-41246697D01*
X108301564Y-41251743D01*
X108301565Y-41251749D01*
X108333741Y-41394523D01*
X108351346Y-41472642D01*
X108353288Y-41477424D01*
X108353289Y-41477428D01*
X108436540Y-41682450D01*
X108438484Y-41687237D01*
X108559501Y-41884719D01*
X108711147Y-42059784D01*
X108889349Y-42207730D01*
X108893819Y-42210342D01*
X108897511Y-42212500D01*
X108946232Y-42264140D01*
X108959301Y-42333924D01*
X108932566Y-42399694D01*
X108909589Y-42422045D01*
X108761655Y-42533117D01*
X108601639Y-42700564D01*
X108598725Y-42704836D01*
X108598724Y-42704837D01*
X108583152Y-42727665D01*
X108471119Y-42891899D01*
X108373602Y-43101981D01*
X108311707Y-43325169D01*
X108287095Y-43555469D01*
X108287392Y-43560622D01*
X108287392Y-43560625D01*
X108293067Y-43659041D01*
X108300427Y-43786697D01*
X108301564Y-43791743D01*
X108301565Y-43791749D01*
X108333741Y-43934523D01*
X108351346Y-44012642D01*
X108353288Y-44017424D01*
X108353289Y-44017428D01*
X108436540Y-44222450D01*
X108438484Y-44227237D01*
X108559501Y-44424719D01*
X108711147Y-44599784D01*
X108889349Y-44747730D01*
X108893819Y-44750342D01*
X108897511Y-44752500D01*
X108946232Y-44804140D01*
X108959301Y-44873924D01*
X108932566Y-44939694D01*
X108909589Y-44962045D01*
X108761655Y-45073117D01*
X108601639Y-45240564D01*
X108598725Y-45244836D01*
X108598724Y-45244837D01*
X108583152Y-45267665D01*
X108471119Y-45431899D01*
X108373602Y-45641981D01*
X108311707Y-45865169D01*
X108287095Y-46095469D01*
X108287392Y-46100622D01*
X108287392Y-46100625D01*
X108293067Y-46199041D01*
X108300427Y-46326697D01*
X108301564Y-46331743D01*
X108301565Y-46331749D01*
X108333741Y-46474523D01*
X108351346Y-46552642D01*
X108353288Y-46557424D01*
X108353289Y-46557428D01*
X108436540Y-46762450D01*
X108438484Y-46767237D01*
X108559501Y-46964719D01*
X108711147Y-47139784D01*
X108889349Y-47287730D01*
X108893819Y-47290342D01*
X108897511Y-47292500D01*
X108946232Y-47344140D01*
X108959301Y-47413924D01*
X108932566Y-47479694D01*
X108909589Y-47502045D01*
X108761655Y-47613117D01*
X108758088Y-47616849D01*
X108758083Y-47616854D01*
X108732254Y-47643883D01*
X108713686Y-47659865D01*
X108704926Y-47666031D01*
X108701659Y-47669112D01*
X108539371Y-47822153D01*
X108533355Y-47827473D01*
X108409154Y-47930443D01*
X108343949Y-47958522D01*
X108320169Y-47959151D01*
X108300225Y-47957791D01*
X108300221Y-47957791D01*
X108292648Y-47957275D01*
X108285171Y-47958580D01*
X108285170Y-47958580D01*
X108258692Y-47963201D01*
X108229697Y-47968262D01*
X108223179Y-47969223D01*
X108159758Y-47976898D01*
X108152657Y-47979581D01*
X108150048Y-47980222D01*
X108133738Y-47984685D01*
X108131202Y-47985450D01*
X108123716Y-47986757D01*
X108077903Y-48006868D01*
X108065205Y-48012442D01*
X108059101Y-48014933D01*
X107999344Y-48037513D01*
X107993081Y-48041817D01*
X107990715Y-48043054D01*
X107975903Y-48051299D01*
X107973649Y-48052632D01*
X107966695Y-48055685D01*
X107915998Y-48094587D01*
X107910668Y-48098459D01*
X107864280Y-48130339D01*
X107864275Y-48130344D01*
X107858019Y-48134643D01*
X107852968Y-48140313D01*
X107852966Y-48140314D01*
X107816565Y-48181170D01*
X107811584Y-48186446D01*
X107159693Y-48838337D01*
X107157383Y-48840590D01*
X107030426Y-48961205D01*
X106988425Y-49006197D01*
X106985480Y-49011019D01*
X106974976Y-49023054D01*
X106519480Y-49478550D01*
X106513215Y-49484404D01*
X106469615Y-49522439D01*
X106465248Y-49528653D01*
X106432872Y-49574719D01*
X106428939Y-49580014D01*
X106389524Y-49630282D01*
X106386401Y-49637198D01*
X106385017Y-49639484D01*
X106376643Y-49654165D01*
X106375378Y-49656525D01*
X106371010Y-49662739D01*
X106368250Y-49669818D01*
X106368249Y-49669820D01*
X106347798Y-49722275D01*
X106345247Y-49728344D01*
X106318955Y-49786573D01*
X106317571Y-49794040D01*
X106316770Y-49796595D01*
X106312141Y-49812848D01*
X106311478Y-49815428D01*
X106308718Y-49822509D01*
X106307727Y-49830040D01*
X106307726Y-49830042D01*
X106300379Y-49885852D01*
X106299348Y-49892359D01*
X106287704Y-49955186D01*
X106288141Y-49962766D01*
X106288141Y-49962767D01*
X106291291Y-50017392D01*
X106291500Y-50024646D01*
X106291500Y-81971088D01*
X106291208Y-81979658D01*
X106287275Y-82037352D01*
X104508500Y-82037352D01*
X104508500Y-27634500D01*
X104528502Y-27566379D01*
X104582158Y-27519886D01*
X104634500Y-27508500D01*
X140365500Y-27508500D01*
X140433621Y-27528502D01*
G37*
G04 #@! TD.AperFunction*
M02*
