%TF.GenerationSoftware,KiCad,Pcbnew,(6.0.11-0)*%
%TF.CreationDate,2024-11-12T18:08:24+07:00*%
%TF.ProjectId,1,312e6b69-6361-4645-9f70-636258585858,rev?*%
%TF.SameCoordinates,Original*%
%TF.FileFunction,Drillmap*%
%TF.FilePolarity,Positive*%
%FSLAX45Y45*%
G04 Gerber Fmt 4.5, Leading zero omitted, Abs format (unit mm)*
G04 Created by KiCad (PCBNEW (6.0.11-0)) date 2024-11-12 18:08:24*
%MOMM*%
%LPD*%
G01*
G04 APERTURE LIST*
%ADD10C,0.100000*%
%ADD11C,0.200000*%
G04 APERTURE END LIST*
D10*
X10400000Y-2700000D02*
X10400000Y-9500000D01*
X10400000Y-9500000D02*
X14100000Y-9500000D01*
X14100000Y-9500000D02*
X14100000Y-2700000D01*
X14100000Y-2700000D02*
X10400000Y-2700000D01*
D11*
X10652619Y-9815476D02*
X10652619Y-9615476D01*
X10700238Y-9615476D01*
X10728810Y-9625000D01*
X10747857Y-9644048D01*
X10757381Y-9663095D01*
X10766905Y-9701190D01*
X10766905Y-9729762D01*
X10757381Y-9767857D01*
X10747857Y-9786905D01*
X10728810Y-9805952D01*
X10700238Y-9815476D01*
X10652619Y-9815476D01*
X10852619Y-9815476D02*
X10852619Y-9682143D01*
X10852619Y-9720238D02*
X10862143Y-9701190D01*
X10871667Y-9691667D01*
X10890714Y-9682143D01*
X10909762Y-9682143D01*
X10976429Y-9815476D02*
X10976429Y-9682143D01*
X10976429Y-9615476D02*
X10966905Y-9625000D01*
X10976429Y-9634524D01*
X10985952Y-9625000D01*
X10976429Y-9615476D01*
X10976429Y-9634524D01*
X11100238Y-9815476D02*
X11081190Y-9805952D01*
X11071667Y-9786905D01*
X11071667Y-9615476D01*
X11205000Y-9815476D02*
X11185952Y-9805952D01*
X11176429Y-9786905D01*
X11176429Y-9615476D01*
X11433571Y-9815476D02*
X11433571Y-9615476D01*
X11500238Y-9758333D01*
X11566905Y-9615476D01*
X11566905Y-9815476D01*
X11747857Y-9815476D02*
X11747857Y-9710714D01*
X11738333Y-9691667D01*
X11719286Y-9682143D01*
X11681190Y-9682143D01*
X11662143Y-9691667D01*
X11747857Y-9805952D02*
X11728809Y-9815476D01*
X11681190Y-9815476D01*
X11662143Y-9805952D01*
X11652619Y-9786905D01*
X11652619Y-9767857D01*
X11662143Y-9748810D01*
X11681190Y-9739286D01*
X11728809Y-9739286D01*
X11747857Y-9729762D01*
X11843095Y-9682143D02*
X11843095Y-9882143D01*
X11843095Y-9691667D02*
X11862143Y-9682143D01*
X11900238Y-9682143D01*
X11919286Y-9691667D01*
X11928809Y-9701190D01*
X11938333Y-9720238D01*
X11938333Y-9777381D01*
X11928809Y-9796429D01*
X11919286Y-9805952D01*
X11900238Y-9815476D01*
X11862143Y-9815476D01*
X11843095Y-9805952D01*
X12024048Y-9796429D02*
X12033571Y-9805952D01*
X12024048Y-9815476D01*
X12014524Y-9805952D01*
X12024048Y-9796429D01*
X12024048Y-9815476D01*
X12024048Y-9691667D02*
X12033571Y-9701190D01*
X12024048Y-9710714D01*
X12014524Y-9701190D01*
X12024048Y-9691667D01*
X12024048Y-9710714D01*
M02*
